<svg width="24" height="24" viewBox="0 0 24 24" fill="none" xmlns="http://www.w3.org/2000/svg">
<path d="M21.7183 11.563H15.7183L13.7183 14.563H9.71826L7.71826 11.563H1.71826" stroke="#989898" stroke-linecap="round" stroke-linejoin="round"/>
<path d="M5.16826 4.67299L1.71826 11.563V17.563C1.71826 18.0934 1.92898 18.6021 2.30405 18.9772C2.67912 19.3523 3.18783 19.563 3.71826 19.563H19.7183C20.2487 19.563 20.7574 19.3523 21.1325 18.9772C21.5075 18.6021 21.7183 18.0934 21.7183 17.563V11.563L18.2683 4.67299C18.1027 4.33978 17.8474 4.05936 17.5312 3.86327C17.215 3.66718 16.8503 3.56319 16.4783 3.56299H6.95826C6.58618 3.56319 6.22153 3.66718 5.90531 3.86327C5.58909 4.05936 5.33384 4.33978 5.16826 4.67299V4.67299Z" stroke="#989898" stroke-linecap="round" stroke-linejoin="round"/>
</svg>
