<svg width="25" height="25" viewBox="0 0 25 25" fill="none" xmlns="http://www.w3.org/2000/svg">
<path d="M19.9297 3.41797H5.92969C4.82512 3.41797 3.92969 4.3134 3.92969 5.41797V19.418C3.92969 20.5225 4.82512 21.418 5.92969 21.418H19.9297C21.0343 21.418 21.9297 20.5225 21.9297 19.418V5.41797C21.9297 4.3134 21.0343 3.41797 19.9297 3.41797Z" stroke="#FE570F" stroke-linecap="round" stroke-linejoin="round"/>
<path d="M9.42969 10.418C10.2581 10.418 10.9297 9.7464 10.9297 8.91797C10.9297 8.08954 10.2581 7.41797 9.42969 7.41797C8.60126 7.41797 7.92969 8.08954 7.92969 8.91797C7.92969 9.7464 8.60126 10.418 9.42969 10.418Z" stroke="#FE570F" stroke-linecap="round" stroke-linejoin="round"/>
<path d="M21.9297 15.418L16.9297 10.418L5.92969 21.418" stroke="#FE570F" stroke-linecap="round" stroke-linejoin="round"/>
</svg>
