<svg width="123" height="46" viewBox="0 0 123 46" fill="none" xmlns="http://www.w3.org/2000/svg">
<path fill-rule="evenodd" clip-rule="evenodd" d="M7.3841 38.2258C7.33418 38.2507 7.29447 38.2917 7.27161 38.3418C7.24875 38.3919 7.24414 38.4482 7.25846 38.5012L6.83357 38.6359C10.5435 41.5644 14.8458 42.8645 19.0464 44.1648C18.8549 44.3463 19.0464 44.2468 18.7712 44.2936L19.0584 44.4928L19.2199 44.1355C19.5191 44.3463 19.3935 44.2526 19.2977 44.5396C19.579 44.5396 20.2312 44.7856 20.5304 44.6392H20.7877C20.1893 44.5162 20.5603 44.6392 20.0517 44.5747L20.1773 44.3347C20.4705 44.3874 20.7757 44.4518 21.0569 44.4869L20.8655 44.6568L21.1707 44.8852C21.3502 44.7622 21.2365 44.8851 21.1707 44.6977C21.4519 44.6099 21.2005 44.6392 21.5057 44.7387L21.8587 44.5865C21.6732 44.44 21.8588 44.5455 21.6194 44.4928L21.4698 44.3464C22.5687 44.5417 23.6806 44.6591 24.7968 44.6977C23.9172 44.9964 23.0017 44.6977 22.1938 44.563C22.3674 45.014 23.253 45.1136 24.0189 45.1487V45.0199L23.7616 45.0726L23.6 44.9379V44.8734C24.4437 44.9379 24.2343 45.1136 24.6233 45.219L25.4969 45.0199C27.0287 45.506 28.9076 44.6743 30.2839 44.3931L30.7506 44.3347C31.3909 44.5689 33.3894 43.4795 34.2271 42.9993C35.4897 42.3784 35.4239 42.7006 37.0994 41.5644C39.7681 39.901 42.7659 36.0061 43.7951 33.2709L43.8969 33.0367C44.1243 32.574 44.3277 32.1112 44.4953 31.6427C44.7705 30.9047 45.2073 30.8638 45.2672 30.1434L45.1654 30.0262L45.0936 30.6998L44.9081 30.6412C45.1175 30.0555 45.303 29.4698 45.5065 28.9193H45.5664C45.5364 29.3 45.6262 29.0305 45.4646 29.3175L45.6082 29.5284C45.8416 28.4917 45.6082 28.808 45.8894 27.578C46.1527 27.8299 45.8475 27.9413 45.8894 28.4098C46.2245 27.912 46.8289 26.0201 46.416 25.7156C46.6374 25.4696 46.4161 25.5926 46.7631 25.6043C46.6734 24.7609 47.0383 24.0112 47.1879 23.1795C47.249 22.8059 47.2711 22.4272 47.2537 22.0492C47.0563 22.1663 47.176 22.0492 47.0503 22.2308C46.9725 22.0433 47.0024 21.4225 46.8768 21.0594V20.8661C46.7571 21.1413 46.799 21.1238 46.811 21.6333L46.7451 21.727L46.416 21.6216C46.4603 20.7309 46.4363 19.8381 46.3442 18.9508C46.045 17.4749 45.4526 17.2465 45.1475 15.7823L44.95 16.2509C44.8931 15.9644 44.8212 15.6808 44.7346 15.4015H44.6747L44.7465 15.7823C44.561 15.7296 44.6688 15.8936 44.4294 15.4836C44.2572 15.9641 44.2343 16.4839 44.3636 16.9771L44.2379 17.0063C43.9872 15.6715 43.5608 14.3742 42.9694 13.1467L42.9155 13.176C43.124 13.6521 43.2707 14.1518 43.3523 14.6636C42.8494 13.5417 42.2255 12.4756 41.4914 11.4833C41.0307 10.8391 41.1503 10.1187 40.6537 9.47444C39.5287 8.05707 38.0867 7.13167 36.5908 6.095L36.1 5.55622C35.005 5.16966 31.8396 3.76398 29.8171 3.33643C25.82 2.47547 23.4265 1.60857 18.5558 2.2294C14.6579 2.798 10.9685 4.31659 7.82689 6.64552L7.04306 7.49474C6.02582 8.7774 4.60761 9.99563 3.61431 11.5946C2.1842 13.539 1.81923 15.8174 1.25676 18.0782C0.873091 19.6899 0.622956 21.3293 0.508789 22.9805C0.508789 27.1447 1.63372 31.5783 4.15885 34.946C5.08087 36.1466 6.141 37.2393 7.31829 38.2025L7.3841 38.2258ZM42.5804 14.1306C42.8244 14.4327 43.0257 14.7656 43.1788 15.1204C43.107 14.8627 42.8976 14.5231 42.6881 14.1541L42.5804 14.1306ZM39.4988 19.0562L39.3013 19.1618C39.2654 19.0856 39.2356 19.0094 39.2056 18.9274H39.2775L39.2056 18.8455C39.2933 18.8343 39.3782 18.8085 39.4569 18.7692L39.4929 19.0329L39.4988 19.0562ZM39.3911 18.3945H39.3133V18.1836C39.4509 18.2714 39.4689 18.3418 39.4809 18.4179L39.3911 18.3945ZM39.3373 19.232H39.3911H39.4569C39.4569 19.3257 39.4569 19.4252 39.4569 19.5189C39.5168 19.4252 39.4749 19.3433 39.427 19.2613L39.3373 19.232ZM39.4569 11.9988L39.5107 11.9636V12.0397L39.4569 11.9988ZM40.0972 11.9578C39.9005 11.8279 39.7163 11.6809 39.5467 11.5185C39.8043 11.6033 40.0282 11.7652 40.1869 11.9812L40.0972 11.9578ZM35.2145 18.0313L35.8787 20.661L35.5974 20.6084L35.7949 20.3273C35.4299 20.503 35.011 20.7372 34.8973 21.0477H34.7717L34.7417 20.9832C34.8375 21.1823 34.5204 21.9203 34.4785 22.1545C34.2331 23.6188 34.5383 25.1767 34.2211 26.5531C33.4193 30.0672 29.2487 32.6209 25.7961 32.9196C22.4392 33.2066 19.0763 33.1714 16.3777 31.1625C14.6304 29.874 13.0806 27.01 12.3027 25.0069C10.723 20.9071 12.9669 15.9404 16.8803 13.8143C20.1474 12.0573 24.3839 12.1686 27.7647 13.6153C30.5831 14.8218 31.3969 17.2113 33.2099 19.3667H33.4313C33.4122 19.3368 33.402 19.3024 33.402 19.2671C33.402 19.2319 33.4122 19.1975 33.4313 19.1676C33.9497 19.7001 34.3888 20.3014 34.7357 20.9539C34.7338 20.9266 34.7338 20.8992 34.7357 20.8719C34.8494 20.4385 34.9152 19.9758 35.2563 19.8411V20.0403H35.3221H35.4538C35.5436 19.8294 35.6453 19.6009 35.7171 19.3784H35.765L35.2145 18.0313ZM36.2616 19.7533L36.2078 19.8294L36.2616 19.7533Z" fill="#1A1A1A"/>
<path fill-rule="evenodd" clip-rule="evenodd" d="M56.0439 9.19914C56.0439 9.14643 56.0918 9.19909 55.9781 9.15224C55.9781 9.08195 55.9004 9.11716 56.1038 9.07617C56.2115 8.99417 56.1756 8.97651 56.1636 8.83594H56.0978C56.02 8.91794 56.0978 8.94139 55.8525 9.00581L55.6669 9.08203H55.6071C55.667 8.94146 55.7866 8.91218 55.9123 8.78918H55.661C55.9901 8.26792 55.7687 7.65294 55.6969 7.17268L56.0141 7.21944C55.7627 6.38776 56.2714 5.08167 56.78 4.29099L56.397 4.12698L56.7082 3.74048C56.3611 3.67605 56.4209 3.74041 56.4509 3.5237C56.3025 3.56066 56.1583 3.61166 56.02 3.67599H55.9542C56.1996 3.16644 55.9542 2.90299 55.6251 2.62186C55.296 2.34073 56.0081 1.68476 56.1038 1.45049C55.7029 1.50906 55.8824 1.50906 55.5413 1.45049C55.5413 1.87218 55.0028 2.54574 54.7575 3.07286H54.6318L55.1165 2.03031H54.9909C54.6677 2.15331 54.3924 3.07276 54.6318 3.11961L54.5121 3.19583L54.1351 3.10203L54.2548 2.9323L54.1292 2.8854L53.7642 3.25431H53.5726L53.6325 3.1372C53.0342 3.24848 52.9863 4.10953 52.7828 4.54294C52.2742 5.71432 52.4777 7.10227 51.9032 8.22094C51.4185 9.17561 51.7716 10.3587 51.5203 11.4774C51.1598 12.913 51.0988 14.405 51.3407 15.8642C51.6698 17.3694 50.6706 19.1793 51.233 20.7548L51.5382 24.3157L51.7417 25.2997C51.3766 26.4711 51.7416 28.2281 52.1844 29.3175C52.3161 29.6396 52.2144 31.0746 51.963 31.1742C51.963 31.3382 51.963 31.3265 52.1545 31.3148L52.0468 36.3281L52.2682 39.0341C52.1316 39.5861 52.2083 40.1682 52.4836 40.6682L52.2982 40.8614C52.2982 40.8614 53.2197 42.6477 53.2675 42.7766H53.5128C53.5128 42.6829 53.459 42.7473 53.5786 42.6771C53.8783 42.966 54.1342 43.2953 54.3386 43.6551H54.4643C54.7781 43.5127 55.1178 43.4331 55.4635 43.4209L55.2122 43.5204L55.4635 43.5673L55.5233 43.4678V43.6142H55.7089C55.7089 43.3448 55.5892 44.0828 55.5233 43.6142C55.1583 43.9012 55.7388 43.6668 55.5653 43.7898C55.673 43.8308 55.7508 43.7898 55.8585 43.7898C55.9153 43.7483 55.9777 43.7149 56.0439 43.6903L55.7268 43.4795C56.5227 43.6904 56.6064 43.4795 56.4688 43.7841C56.6483 43.7372 56.1577 43.7841 56.4688 43.7841C56.4688 44.1472 56.3371 43.743 56.3431 44.1647H56.4688L56.7919 44.0593L56.9056 44.2291C57.1809 44.4809 56.9056 43.9245 56.9056 44.2291L56.409 44.2877L56.3431 44.3346C57.0539 44.3675 57.7662 44.3243 58.4674 44.2058L58.593 44.3755H58.9102L58.8443 44.2525L59.4009 44.1765L59.5265 43.9538H59.2153C59.6701 43.6434 59.347 44.0534 59.2692 43.661C59.6162 43.661 59.329 43.7137 59.4188 43.5732H59.7778L60.1009 43.4092C60.5258 43.4502 59.9513 43.5087 60.3343 43.4092L60.5198 43.5673C61.9021 43.415 60.7233 43.2393 61.196 42.8118C61.5789 42.4486 62.3269 42.2261 61.8602 41.6404C62.0517 41.5935 62.0875 41.9509 62.1773 42.0212C62.4166 41.6756 61.9679 41.2246 61.7884 40.92H61.8482L61.9738 41.0371H62.1654L61.9738 40.7736C62.0683 40.7718 62.1599 40.8053 62.2299 40.8674C62.3 40.9294 62.3432 41.0153 62.3508 41.1075L62.1654 41.0606C62.4508 41.393 62.6298 41.8004 62.6799 42.2319L62.7458 42.1617L62.9312 42.3256H62.997C63.1043 42.2747 63.1883 42.1864 63.2325 42.0781C63.2768 41.9698 63.2781 41.8492 63.2364 41.7399C63.411 41.7951 63.5594 41.9104 63.654 42.0643C63.7486 42.2183 63.783 42.4006 63.751 42.5775H63.8109H63.8767C64.2058 42.1148 63.8767 41.5877 63.7271 41.0606C63.6553 40.838 64.128 40.6799 64.0921 40.4749C63.9054 39.9923 63.6896 39.521 63.4458 39.0634L63.5655 38.8701C62.9253 38.4015 62.5303 36.1818 62.8894 35.2095C63.4219 33.6399 62.6261 31.2971 62.7996 29.6455L62.4764 29.0012C62.5602 28.2925 62.7637 26.2075 62.1773 25.8737C62.3867 25.821 62.2251 24.6495 62.3987 24.2103L62.5004 22.5001C62.875 21.2063 63.0226 19.8596 62.9372 18.5174C62.6979 18.5174 62.8176 18.5175 62.6859 18.4472C62.4765 18.5585 62.5483 18.8982 62.5662 19.0329H62.5064C62.1534 18.7283 62.6201 18.3183 62.5064 18.1426C62.5064 18.1426 62.3568 18.1777 62.3209 18.0723L62.5064 18.1192L62.5662 17.9258C62.4834 17.9084 62.3978 17.9084 62.3149 17.9258C61.944 17.182 62.5722 16.245 62.4645 15.4894C62.5483 14.646 62.8295 12.7425 62.9672 11.8932C63.2663 12.2798 62.7697 15.0969 62.7697 15.0969C62.7697 15.2551 62.7697 15.2199 62.9612 15.2375C62.8116 15.4425 62.4944 15.7588 62.4764 16.0693H62.5363V15.9989L62.7876 16.1395L62.8474 16.0927C62.7637 15.9873 62.7757 15.958 62.5962 15.8994C62.7458 15.8994 62.6799 15.8408 62.7876 15.8994L62.9013 15.466C63.2963 15.753 62.9731 16.2919 62.9013 16.4031L63.0868 16.3504C62.997 16.4675 63.1227 16.4089 62.8355 16.4264C62.9073 16.5436 62.8355 16.5086 63.0868 16.5437C63.003 16.6374 63.0868 16.5964 62.9013 16.6432C62.9013 16.5847 62.9612 16.6432 62.8415 16.5729C62.8415 16.7251 62.8415 16.649 63.0928 16.7369H62.7816C62.9073 16.8306 62.7816 16.7838 63.033 16.7779L63.0928 16.854C62.9252 16.854 63.0928 16.854 62.9073 16.854C62.65 16.9828 62.8056 17.1468 62.7278 17.2933C62.9851 17.3343 62.7876 17.2933 63.039 17.2348C62.7697 18.0489 63.8348 19.9524 63.4758 21.0593L63.3262 23.4021C62.9911 24.1635 63.374 25.0302 63.1766 25.8092C62.8617 26.8778 62.837 28.0083 63.1048 29.0891L63.033 32.3397H63.0928C63.4398 32.0879 63.1646 31.672 63.2663 31.3265V27.3789L63.398 23.9292C63.751 22.2658 63.9964 20.702 63.5715 19.2788L63.2065 16.1044C63.2424 15.7764 63.4937 15.5831 63.38 15.3078C63.6014 15.3488 63.4578 15.3079 63.5715 15.3782L63.6912 15.2785H63.3202C63.4698 15.1731 63.398 15.2142 63.6912 15.22C63.6553 15.1439 63.763 14.9388 63.5595 14.8627L63.4997 14.7925C63.4997 14.9741 63.4997 14.8568 63.5655 15.0091H63.3142V14.7456L63.5057 14.7925L63.6912 14.6928C63.5476 14.646 63.6912 14.6928 63.4997 14.6928C63.38 14.6167 63.4399 14.6929 63.4997 14.5992L63.3142 14.5054C63.1885 14.5639 63.2783 14.5054 63.2484 14.5757L63.1287 14.6285L63.2364 13.662C63.5356 13.9314 63.2783 14.195 63.2364 14.4117C63.3024 14.4078 63.3668 14.3903 63.4253 14.3602C63.4838 14.3302 63.5351 14.2882 63.5758 14.2373C63.6166 14.1863 63.6457 14.1275 63.6615 14.0647C63.6773 14.0019 63.6793 13.9365 63.6673 13.8729H63.5416L63.6014 13.9431C63.5458 13.9772 63.4816 13.9955 63.4159 13.9959C63.4159 13.7558 63.6254 13.8143 63.7271 13.7031L63.5356 13.463C64.134 13.0003 63.3322 12.4613 63.6373 12.0396C64.116 11.8815 63.4159 11.0558 63.8049 10.8098C64.0801 10.6341 64.2656 7.8813 64.1879 7.4069L64.499 7.4538L64.5588 7.18426C64.3494 7.25454 64.4451 7.18426 64.4331 7.33068H64.1819L64.2417 6.89728H64.5529C64.5529 6.67472 64.6306 6.59866 64.4811 6.39367H64.3553L64.4811 6.58699H64.2955L64.3494 6.05978H64.4152C64.4811 6.17106 64.493 6.08904 64.4152 6.18275L64.6007 6.22966C64.5528 5.91924 64.4152 6.02466 64.4093 5.64397C64.7084 5.69082 64.4451 5.74933 64.5947 5.87818C64.7802 5.71419 65.0076 5.12856 64.5947 5.05828C64.7682 4.97628 64.5947 5.02309 64.9059 5.00551C64.6306 4.68924 65.1692 4.39053 65.0136 3.96883C64.8281 4.00397 64.9418 3.96889 64.8281 4.0216C64.7383 3.97474 64.7563 3.81661 64.6366 3.73462V3.68771C64.5229 3.758 64.5648 3.75219 64.5767 3.88104H64.5169H64.1998L64.2537 3.20755C64.1579 2.83271 63.6553 2.75649 63.8049 2.39337L63.4937 2.49303L63.5535 2.27626H63.4877L63.4279 2.37578C63.2843 2.37578 63.3262 2.37583 63.2424 2.28212C62.9791 2.37583 62.7817 2.46947 62.7458 2.65103H62.6201L62.9193 1.58518H62.8534C62.7624 1.82172 62.5886 2.01889 62.3628 2.14156H62.303C62.0816 1.84286 61.9559 1.16346 62.1594 0.970181L61.7824 1.05211L61.3456 0.987769C61.1062 0.823776 61.1421 0.653961 61.0882 0.437256H60.9626L60.8429 0.847209C60.6846 0.905492 60.5142 0.925496 60.3463 0.905693L60.1607 1.16937H59.8496L60.1548 0.92328L59.7838 1.05211C59.6162 1.08726 59.7838 1.05211 59.5983 1.05211C59.2991 1.20439 58.8922 1.54421 58.8563 1.76092L58.6648 1.52656C58.5272 1.52656 58.252 1.52656 57.9767 1.52656C57.9561 1.77215 57.8506 2.0036 57.6775 2.1826H57.9288L57.9886 1.93651C58.1083 2.03022 58.0963 2.11219 57.9886 2.2059C58.0545 2.2879 57.9887 2.28216 57.8032 2.32902C57.8032 2.25288 57.8451 2.29378 57.7434 2.22935C57.6775 2.29378 57.7433 2.2879 57.6177 2.35233H57.9946L57.5578 2.57496C57.5937 2.71553 57.5579 2.67448 57.8092 2.66862L57.7553 3.10203L57.3843 3.16065L57.3185 3.20755L57.6296 3.15479H57.6954L57.5818 3.82827C57.2946 3.82827 57.3963 3.82835 57.2646 3.76393C57.145 3.8225 57.2287 3.76385 57.2048 3.83414L57.145 3.9338L57.4562 3.88104C57.4354 4.02131 57.3798 4.15447 57.2942 4.26883C57.2087 4.38319 57.0958 4.47534 56.9654 4.53708C57.0722 4.52548 57.1769 4.49979 57.2766 4.46086C57.2287 4.60729 57.2108 4.66587 57.3484 4.7713H57.0971V4.60142H56.9116C56.6842 5.49753 56.1876 6.54008 56.391 7.26047L56.4509 7.1375C56.7201 7.2605 56.4508 8.53721 56.2235 8.51378V8.12728C56.1537 8.19071 56.1054 8.27356 56.085 8.36465C56.0647 8.45573 56.0734 8.55076 56.1098 8.6369L56.0081 8.7716" fill="#1A1A1A"/>
<path fill-rule="evenodd" clip-rule="evenodd" d="M98.8755 32.2459L80.8645 31.0746C80.8672 31.0901 80.8672 31.106 80.8645 31.1215H80.9901V31.0746H81.403C81.4449 31.1917 81.4928 31.2972 81.5227 31.4026H81.2115C81.295 31.5738 81.3262 31.7649 81.3013 31.9531C81.1671 31.9483 81.0333 31.9366 80.9004 31.9181C80.9295 31.7634 80.9086 31.6037 80.8405 31.4612L80.7867 31.549C80.661 31.549 80.6431 31.3147 80.673 31.0921L98.8755 32.2459ZM77.3819 39.8599L77.2623 40.2524L76.8135 40.0063C76.8135 40.3519 76.8135 40.2874 76.628 40.2816C76.683 40.4242 76.7553 40.56 76.8434 40.6858V40.7443C76.2809 40.5803 76.0356 40.8732 75.7843 41.2129C75.5988 41.4647 74.7551 40.9727 74.4798 40.9142C74.5935 41.2949 74.5696 41.1191 74.5396 41.4588C74.9824 41.4178 75.7364 41.8279 76.3348 41.9977L76.3767 42.109L75.2218 41.7868V41.9157C75.3953 42.2085 76.4185 42.3257 76.4185 42.109L76.5143 42.2202L76.4724 42.5952L76.2749 42.5014V42.6302L76.7058 42.9348V43.0577V43.1164L76.5681 43.0753C76.7776 43.661 77.6752 43.5673 78.1598 43.702C79.4344 44.0359 80.8705 43.6435 82.1211 44.0418C83.1862 44.3815 84.9693 43.8719 86.1721 43.9597C87.1209 44.0358 88.0751 44.0182 89.0203 43.9071C89.0527 43.9095 89.0853 43.9054 89.1161 43.8954C89.1469 43.8853 89.1753 43.8694 89.1998 43.8485L89.7204 43.7665C91.3121 43.462 93.2089 44.4577 94.8784 43.9247L98.6362 43.661L99.6773 43.4737C100.874 43.8427 102.777 43.5205 103.92 43.087C104.261 42.9582 105.781 43.0871 105.876 43.3214C106.05 43.3214 106.038 43.3507 106.032 43.1398L111.316 43.298L113.554 43.1046C114.133 43.2445 114.745 43.1759 115.277 42.9113L115.48 43.0929C115.48 43.0929 117.377 42.2086 117.509 42.1676V41.9215C117.413 41.9215 117.509 41.9743 117.407 41.863C117.716 41.569 118.067 41.3204 118.448 41.1251V41.0021C118.302 40.6956 118.222 40.3623 118.215 40.0239L118.317 40.27L118.365 40.0239L118.263 39.9654H118.418V39.778L118.107 39.1923C118.054 39.0557 118.028 38.9107 118.029 38.7647C118.412 38.7647 118.55 39.1864 118.999 39.1864V39.0693L118.287 38.6418V38.5831C118.556 38.3137 118.754 38.63 119.071 38.6359L119.124 39.1278L119.178 39.1864C119.22 38.4933 119.182 37.7978 119.065 37.113L119.244 36.9901V36.6796L119.118 36.7441L119.035 36.1935L118.807 36.0705V36.3809C118.49 35.9241 118.311 36.5566 117.892 36.6269C117.892 36.293 117.892 36.2872 117.766 36.1993V36.3809L117.688 36.3223C117.754 36.0192 117.754 35.706 117.688 35.4029L118.448 35.0983C118.305 33.7395 118.113 34.8874 117.658 34.4247L117.06 32.9605L116.988 32.902L117.264 33.2768V33.2124C117.208 33.1005 117.111 33.0135 116.992 32.9689C116.873 32.9243 116.741 32.9254 116.623 32.9722C116.687 32.7992 116.812 32.6544 116.976 32.5641C117.139 32.4738 117.331 32.4441 117.515 32.4803V32.4158V32.3573C117.03 32.0235 116.474 32.3222 115.911 32.4862C115.678 32.5564 115.516 32.0878 115.277 32.123C114.882 32.2231 114.505 32.3811 114.158 32.5915L113.99 32.5564C113.982 32.5891 113.982 32.6234 113.99 32.656C113.919 32.6894 113.845 32.7168 113.769 32.738L113.566 32.6209C112.429 32.697 111.687 32.6969 110.215 32.6911L107.163 32.5212V32.4569C106.906 32.1171 106.463 32.3865 106.098 32.2811C105.272 32.2811 104.105 32.2811 102.885 32.2401C102.885 32.1581 102.885 32.0761 102.885 31.9883V31.959C102.907 31.4727 102.969 30.989 103.07 30.5123C103.417 29.5459 102.657 28.6908 102.567 27.7479V27.5897C102.657 27.3766 102.686 27.1438 102.651 26.916C102.616 26.6881 102.519 26.4736 102.37 26.2954C101.951 25.8737 102.879 25.124 102.292 24.6789C102.179 24.0917 102.013 23.5155 101.796 22.957C101.889 22.8346 101.952 22.6921 101.978 22.5413C102.004 22.3906 101.993 22.2359 101.945 22.0902C101.872 21.7513 101.725 21.4317 101.514 21.153C101.389 21.0066 101.586 20.2921 101.837 20.2804C101.837 20.1984 101.879 20.2043 101.658 20.1926L101.843 19.1383C101.903 19.1837 101.97 19.2193 102.041 19.2437C101.867 19.3901 102.041 19.3139 101.855 19.3373L101.897 19.5131L102.131 19.2261C102.167 19.4252 102.131 19.3374 101.981 19.5717C102.095 19.601 102.262 19.8411 102.466 19.7416H102.585C102.388 19.5893 102.496 19.7122 102.298 19.6302L102.466 19.4429L102.771 19.6419L102.615 19.7592V19.9875C102.747 19.9055 102.615 19.9875 102.717 19.8352C102.873 19.7942 102.759 19.7884 102.831 19.9056L103.046 19.8294C103.046 19.6829 103.046 19.7884 102.998 19.724V19.5834L104.045 20.4151C103.567 20.4502 103.411 20.0402 103.184 19.8294C103.034 20.2101 103.297 20.4151 103.555 20.5908C103.621 20.4736 103.674 20.4913 103.501 20.4854V20.3448L103.537 20.2979C103.8 20.4971 103.627 20.6025 103.692 20.7724L104.081 20.8016C104.267 21.5337 105.176 21.4634 105.553 21.8382C105.595 21.8812 105.63 21.9307 105.655 21.9847C105.565 22.4942 106.912 22.5704 106.977 23.0682C107.019 23.4255 110.083 25.7097 110.669 25.9967L110.442 26.2135L110.711 26.4653C110.753 26.2427 110.759 26.3656 110.616 26.2544L110.753 26.0494L111.22 26.4301L111.022 26.6643C111.274 26.8459 111.322 26.963 111.621 26.9982L111.723 26.9163L111.429 26.8752L111.531 26.7229L112.13 27.1739L112.094 27.2267C111.932 27.1915 112.022 27.2676 111.956 27.1329L111.794 27.25C112.177 27.4491 112.136 27.25 112.572 27.537C112.333 27.742 112.423 27.4844 112.183 27.5078C112.273 27.7831 112.818 28.4155 113.135 28.1285C113.135 28.3335 113.177 28.1578 113.015 28.4214C113.542 28.4214 113.578 29.1066 114.146 29.3058C114.218 29.1301 114.194 29.2473 114.2 29.1185C114.302 29.0833 114.469 29.2179 114.637 29.1887L114.691 29.2238C114.691 29.0774 114.691 29.1125 114.505 29.0247V28.9544L114.708 28.7201L115.45 29.3058C115.935 29.5166 116.312 29.177 116.647 29.5753L116.707 29.2473L116.923 29.4639L116.958 29.4113L116.881 29.2883C116.994 29.1888 116.916 29.1887 117.096 29.2121C117.136 29.0961 117.144 28.9718 117.12 28.8516C117.096 28.7314 117.04 28.6195 116.958 28.5269L117.03 28.4272L118.083 29.4874L118.119 29.4347C117.908 29.2065 117.779 28.916 117.754 28.6088L117.79 28.5562C118.362 28.6476 118.882 28.9363 119.256 29.3703L119.376 29.0129L119.705 28.7142C120.028 28.6498 120.202 28.808 120.489 28.931L120.585 28.8491L120.178 28.4331C120.201 28.2672 120.279 28.1131 120.399 27.9938L120.202 27.6366L120.375 27.3848L120.477 27.8182L120.543 27.4199C120.596 27.2559 120.543 27.4199 120.674 27.2852C120.675 26.8732 120.539 26.4722 120.285 26.1431L120.668 26.1783C120.758 26.0729 120.902 25.8385 121.081 25.6335C120.816 25.4438 120.609 25.1867 120.483 24.8898L120.315 25.0713L120.561 25.3056C120.527 25.3152 120.491 25.3175 120.456 25.3123C120.421 25.3072 120.388 25.2948 120.358 25.2759C120.329 25.257 120.304 25.232 120.285 25.2028C120.266 25.1736 120.254 25.1407 120.249 25.1064C120.118 25.1064 120.148 25.0655 120.214 24.8605C120.297 24.9249 120.214 24.9191 120.363 24.8605C120.327 24.7609 120.309 24.796 120.291 24.6672L120.058 24.9541C120.058 24.6437 120.058 24.6496 120.058 24.4329C119.884 24.3568 119.944 24.3685 119.807 24.5618L119.34 24.181L119.495 23.8414V23.7535L119.376 24.0463V24.0932L118.664 23.4782C118.843 23.2673 118.759 23.326 118.921 23.2792C118.921 23.1386 118.921 23.2439 118.867 23.1736L118.795 23.0507L118.676 23.3435C118.536 23.2342 118.421 23.0975 118.339 22.9421C118.256 22.7868 118.208 22.6162 118.197 22.4415C118.148 22.5366 118.117 22.6399 118.107 22.7461C117.964 22.5997 117.904 22.5411 117.706 22.5645L117.82 22.342L118.012 22.4708L118.119 22.3185C117.216 21.44 116.324 20.2335 115.361 19.847L115.462 19.9875L115.57 19.5424C116.665 19.9816 117.874 21.399 118.496 22.4181L118.897 22.2425L119.172 22.7871C119.442 22.5587 119.346 22.5645 119.561 22.7461C119.608 22.5959 119.634 22.4403 119.639 22.2834L119.675 22.2307C119.822 22.4541 120.034 22.6292 120.283 22.7336C120.533 22.838 120.809 22.8669 121.075 22.8164C121.452 22.8164 121.931 23.8472 122.164 24.1166C122.338 23.7535 122.23 23.8941 122.505 23.6774C122.033 23.3377 121.554 22.4006 121.087 21.7915L121.129 21.6685L122.051 22.8399L122.146 22.7578C122.188 22.4005 121.285 21.4928 121.099 21.6275V21.4752L121.422 21.2408L121.548 21.4693L121.674 21.4048L121.458 20.8191L121.53 20.7196L121.566 20.6669L121.668 20.8133C121.889 20.1866 120.914 19.5423 120.537 19.0562C119.501 17.756 117.772 16.8366 116.815 15.507C115.995 14.3767 114.421 13.7499 113.29 12.6781C111.827 11.2739 110.16 10.0897 108.342 9.16399C107.358 8.61921 106.451 7.95187 105.643 7.17857C105.335 6.91083 105.014 6.65863 104.68 6.42301C103.375 5.56205 102.131 4.41403 100.593 4.01577C99.9945 3.7932 98.2413 3.15489 97.601 2.93233L97.1103 2.75659L96.5778 2.87956L94.5373 3.41249C93.0289 3.89096 91.6131 4.61365 90.3487 5.55034C88.1557 6.45406 86.1865 7.80827 84.5744 9.52133C84.2572 9.87274 82.4801 10.8742 82.2347 10.7395C82.0373 10.8625 82.0373 10.8331 82.1689 11.003L76.1852 14.728L73.8336 16.5261C73.1144 16.8351 72.4941 17.3289 72.0385 17.9552H71.7153C71.7153 17.9552 70.1476 20.0754 70.0279 20.2101L70.1416 20.4268C70.2553 20.3682 70.1416 20.3624 70.2852 20.4268C70.1117 20.9117 69.8743 21.3725 69.5791 21.7973L69.651 21.8969C69.9741 22.0398 70.2559 22.2592 70.4707 22.5353L70.2134 22.4065L70.3032 22.6466H70.4468L70.2852 22.7578L70.363 22.9277L71.0512 23.2029C71.9786 23.7886 70.4528 23.5134 70.0818 23.859L70.1236 23.9761L71.1469 23.8062L71.1828 23.859C71.0451 24.2748 70.6442 24.1576 70.2912 24.386L69.9561 24.0228H69.8604C70.2191 24.6266 70.6644 25.1769 71.1828 25.6569L71.0571 25.8854L71.2067 26.1548L71.3084 26.0143L71.7153 26.4125L72.0325 26.3423L71.8829 26.0728C72.4813 26.2133 72.3257 25.5574 72.7385 25.1942C72.924 25.4754 72.9061 25.493 73.1215 25.4579L73.0437 25.288H73.1634C73.264 25.5827 73.4487 25.8429 73.6959 26.0377C73.6959 26.0377 72.8044 26.2954 73.0437 26.8518C73.2113 27.2383 75.7783 27.6015 75.7783 27.6015H75.898L75.8142 27.8826L75.8501 27.9353C76.0003 27.9782 76.1602 27.9755 76.3088 27.9273C76.4573 27.8792 76.5875 27.7881 76.6819 27.666C76.6905 27.8886 76.6299 28.1085 76.5081 28.2967C76.3863 28.4849 76.209 28.6325 75.9997 28.7201V28.7904L76.0356 28.8432C76.7476 28.7612 77.1905 28.111 77.7051 27.5663C77.9145 27.3379 78.3633 27.6014 78.6026 27.4023C79.0566 26.8901 79.482 26.3544 79.8772 25.7975L80.1704 25.7507C80.3618 24.8722 82.0313 23.3142 83.3537 22.8808C85.3163 22.219 87.7996 19.7064 89.7503 18.6814L90.1752 18.1426C90.229 18.1426 90.229 18.1426 90.2829 18.084H90.2171L90.2589 18.0313L90.3307 17.9376C90.4923 17.8556 90.7137 17.7443 90.9291 17.6096C90.8934 17.8029 90.8754 17.9989 90.8753 18.1953C90.7616 18.289 90.6598 18.3885 90.5581 18.4881L90.1153 18.7575L86.7465 20.8133L86.7823 20.866C87.261 20.9598 87.5902 20.4268 88.051 20.2804L89.3135 19.4838H89.3614C89.3614 19.4545 89.3614 19.4487 89.3614 19.4429L89.9597 19.0562V19.1148H90.0854V19.0153H90.0196L90.6179 18.6345C90.4743 18.7634 90.618 18.9626 90.5103 19.1207L90.7556 18.945V18.5643H90.6897L90.8693 18.4531C90.8824 18.7967 90.9184 19.139 90.977 19.478L90.8573 20.0637L91.1445 20.4678C91.0189 20.8544 90.7077 22.1019 91.2941 22.3361C91.0727 22.3361 91.2044 23.0682 91.0309 23.3435C90.9591 24.6086 90.3368 25.7273 90.6599 27.0099C90.8932 26.9806 90.7675 26.9806 90.9171 27.0099C91.1086 26.9103 91.0189 26.7054 90.9889 26.6234H91.0547C91.4198 26.7815 90.9889 27.1037 91.1385 27.2091C91.1385 27.2091 91.2822 27.1681 91.33 27.2091H91.1385L91.1027 27.3438C91.1841 27.3548 91.2666 27.3548 91.3479 27.3438C91.7967 27.7538 91.2523 28.4683 91.4916 28.9369C91.4916 29.2824 91.5335 29.6456 91.5574 30.0146L91.5215 30.0672H91.5634C91.5634 30.3835 91.6053 31.2855 91.6352 31.5959L91.6711 31.959C91.318 31.7481 91.2223 29.7041 91.2523 29.2297C91.2164 29.1243 91.2522 29.1418 91.0488 29.1769C91.1624 29.0071 91.4258 28.7378 91.3959 28.5328H91.336V28.5795L91.0667 28.5386L91.0129 28.5854C91.0928 28.641 91.1907 28.666 91.2881 28.6557C91.1505 28.7084 91.2223 28.7143 91.1087 28.6968L91.0607 29.0071C90.6359 28.9016 90.8573 28.4742 90.9052 28.3922L90.6419 28.6499C90.6419 28.8724 90.4444 29.0599 90.6 29.2356C90.3786 29.2356 90.5282 29.2356 90.4025 29.2356L90.3008 29.3292L90.6659 29.259C90.5402 29.3586 90.6 29.3176 90.3128 29.3761C90.3606 29.423 90.3128 29.5869 90.4983 29.5928L90.5701 29.6279C90.5701 29.4991 90.5342 29.5869 90.4743 29.4932L90.7197 29.4522L90.7615 29.6279H90.5761L90.4085 29.745C90.5581 29.745 90.4086 29.7451 90.5941 29.6983C90.7796 29.6514 90.6539 29.6982 90.5941 29.7626H90.7915C90.8992 29.6923 90.7915 29.7627 90.8334 29.6983L90.9471 29.6338C90.9471 29.8564 90.9471 30.0849 91.0129 30.3074C90.6658 30.2137 90.8753 29.9618 90.8633 29.8095C90.4923 29.9618 90.4863 30.1434 90.5461 30.284L90.6659 30.2488L90.5881 30.2195C90.6401 30.1817 90.6989 30.1539 90.7615 30.1375C90.7915 30.3015 90.6 30.3132 90.5222 30.4187L90.7556 30.524C90.3547 30.9516 91.0189 31.6954 91.0009 31.9941V32.0352L89.9179 32.1347C89.5768 32.0996 89.3734 31.8477 89.0802 31.959C89.122 31.7423 89.0802 31.8829 89.152 31.7716L89.0502 31.6544V32.0176C88.9425 31.8712 88.9904 31.9414 88.9964 31.6544C88.9066 31.6895 88.5356 31.5842 88.398 31.7775L88.2843 31.8418C88.5835 31.8418 88.392 31.8126 88.6374 31.7775V32.0234H88.2065L88.2724 31.8418L88.0988 31.6544C88.033 31.795 88.0988 31.6544 88.0988 31.8418C87.9911 31.9473 88.0988 31.9121 87.9732 31.8418C87.9617 31.8373 87.9488 31.8373 87.9372 31.8418L87.7996 32.0469C87.9073 32.1523 87.7996 32.0819 87.9193 32.0878L88.009 32.1992C87.656 32.2343 87.0098 32.2694 86.6627 32.2753C86.9021 31.9414 87.3389 32.164 87.65 32.1288C87.5942 32.0122 87.5005 31.9169 87.3837 31.8576C87.2669 31.7983 87.1334 31.7783 87.0038 31.8008C86.8243 31.8008 86.8063 31.7715 86.8422 31.9414C86.938 31.8359 86.8901 31.8653 86.9739 31.9824V32.0469C86.7166 32.0469 86.7525 31.8711 86.6268 31.7891L86.3995 32.0059C85.8968 31.5666 85.448 32.1991 85.0351 32.1464C84.9885 32.1437 84.9432 32.1295 84.9035 32.1054C84.6702 31.6603 83.2998 32.4568 82.9947 32.1054C82.7733 31.8594 79.8652 32.0645 79.4044 32.2109V31.9005H79.1232C79.2189 32.0938 79.1232 32.0059 79.2908 32L79.3266 32.2401H78.8659V31.9296C78.6325 31.9589 78.5428 31.9298 78.3513 32.0703V32.1933L78.5308 32.0469V32.2284H77.9683V32.1699C78.076 32.0879 77.9684 32.0879 78.094 32.1699V31.9824C77.7769 32.0703 77.9085 32.1874 77.4956 32.2518C77.4956 31.9472 77.6034 32.1992 77.717 32.0352C77.5196 31.8829 76.8793 31.7423 76.8673 32.1581C76.7536 32.0059 76.8254 32.1581 76.7656 31.8653C76.4724 32.1816 76.0894 31.7013 75.6706 31.9063C75.7304 32.082 75.6706 31.9765 75.7484 32.0819C75.7125 32.1698 75.5449 32.1757 75.4731 32.3046H75.4252C75.515 32.4041 75.5031 32.369 75.6347 32.3397L75.6706 32.3924V32.7028L74.9585 32.7438C74.5876 32.8903 74.5696 33.3822 74.1746 33.2943L74.3182 33.5813H74.0849V33.64L74.1986 33.6867C74.1986 33.8273 74.2345 33.7805 74.1268 33.88C74.2584 34.1202 74.3841 34.3017 74.5756 34.3076V34.4305L73.4267 34.29V34.3545C73.66 34.4306 73.9891 34.5185 74.0909 34.8113C73.9239 34.9546 73.7244 35.0569 73.5091 35.1099C73.2937 35.1628 73.0686 35.1649 72.8523 35.1159L72.9839 35.4672V35.9006C72.8463 36.1525 72.6607 36.1467 72.4393 36.2287V36.3575L72.8881 36.4102C72.97 36.5577 73.0132 36.7228 73.0138 36.8906L73.3189 37.0311L73.3669 37.3298L73.0677 37.0661L73.2471 37.4059C73.307 37.564 73.2471 37.4059 73.2471 37.5934C73.4506 37.8628 73.8455 38.2084 74.0909 38.2084L73.8695 38.4308C73.8695 38.5656 73.9293 38.8292 73.9473 39.0986C74.2042 39.0871 74.4581 39.1568 74.6713 39.2977V39.0517H74.408C74.4918 38.9229 74.5755 38.9228 74.6892 39.0107C74.767 38.9345 74.761 38.9755 74.8388 39.1747C74.761 39.1747 74.8029 39.1395 74.7491 39.2508C74.8268 39.3035 74.8149 39.2509 74.8927 39.3504V38.9872C75.0602 39.2215 75.0603 39.2157 75.1859 39.3739C75.3236 39.327 75.2817 39.3738 75.2458 39.1161H75.7065L75.8142 39.4734L75.874 39.5262L75.7783 39.2333V39.1688H76.5023C76.5023 39.4441 76.5023 39.3446 76.5023 39.4851C76.5861 39.5905 76.5023 39.5144 76.5861 39.532L76.6998 39.5788L76.6041 39.2801C76.7519 39.2823 76.897 39.3185 77.0279 39.3856C77.1589 39.4527 77.2719 39.5491 77.358 39.6667C77.3299 39.564 77.2876 39.4654 77.2323 39.3739C77.3939 39.3739 77.4597 39.4089 77.5495 39.2683L77.6153 39.5027L77.4358 39.532V39.7135L77.3819 39.8599ZM98.8217 32.0995C98.8217 32.0702 98.8217 32.041 98.8217 32.0176C98.7781 32.0336 98.739 32.0596 98.708 32.0937H98.5225C98.5405 31.9885 98.5858 31.8897 98.6541 31.8067C98.6541 31.7598 98.6541 31.7775 98.708 31.7599L98.7498 31.9883V32.0234C98.7797 32.0032 98.805 31.9771 98.824 31.9468C98.8431 31.9165 98.8555 31.8828 98.8606 31.8476C98.8656 31.8124 98.8632 31.7764 98.8534 31.7422C98.8436 31.7079 98.8267 31.6761 98.8037 31.6485L98.5165 31.7716C98.4746 31.0688 98.1694 29.7509 98.0916 29.0657C98.2563 29.017 98.4288 28.9991 98.6002 29.0129C98.4746 29.0129 98.5344 29.0129 98.4686 29.0129C98.4028 29.0129 98.4267 29.5049 98.4686 29.7802L98.5644 30.0965H98.696L98.6422 29.9677H98.702C99.1926 30.0731 98.6062 30.5006 98.702 30.6705C98.702 30.7115 98.6541 31.2562 98.7678 31.2562C98.7678 31.303 98.8516 31.2562 98.6661 31.3382C98.5823 31.4261 98.6182 31.426 98.6661 31.5138H98.7259C98.7918 31.4377 98.684 31.4437 98.9294 31.3324C98.9653 31.3324 99.1089 30.6294 99.1508 30.6353C99.1106 30.9308 99.0322 31.2201 98.9174 31.4962L99.1568 31.4378C99.1055 31.5512 99.079 31.6739 99.079 31.7979C99.079 31.922 99.1055 32.0447 99.1568 32.1581L98.8217 32.0995Z" fill="#1A1A1A"/>
</svg>
