<svg width="46" height="70" viewBox="0 0 46 70" fill="none" xmlns="http://www.w3.org/2000/svg">
<g clip-path="url(#clip0_5108_46777)">
<path fill-rule="evenodd" clip-rule="evenodd" d="M44.2657 35.8145L44.3189 35.881C44.7045 35.6084 45.0769 35.8145 45.6022 36.0606C45.3678 35.7914 45.0677 35.5875 44.7311 35.4688L44.1992 35.6615L44.2657 35.8145Z" fill="#E9500F"/>
<path fill-rule="evenodd" clip-rule="evenodd" d="M2.82647 42.7228C2.95906 42.9027 3.06227 43.1024 3.13232 43.3146L3.45814 43.4409L3.61772 43.8266L3.25197 43.534L3.55782 43.9463C3.67751 44.1391 3.55789 43.9463 3.63103 44.1857C3.92361 44.4982 4.42232 44.8506 4.62845 44.8506L4.52212 45.1698C4.58861 45.3427 4.74139 45.6751 4.86108 46.0143C4.98619 45.9883 5.11528 45.9872 5.2408 46.0112C5.36631 46.0351 5.48586 46.0836 5.59259 46.1539L5.4796 45.8347H5.24015C5.24015 45.6552 5.3333 45.6352 5.46629 45.735C5.50618 45.6219 5.52617 45.6751 5.67246 45.9145C5.59931 45.9145 5.62587 45.8813 5.62587 46.0276C5.62587 46.1739 5.68571 46.0275 5.7921 46.1339L5.61255 45.6685C5.86523 45.9478 5.85851 45.9345 6.03805 46.1207C6.13779 46.0342 6.1113 46.0741 5.98496 45.7816L6.39714 45.6884L6.6366 46.1273L6.70965 46.1872L6.50364 45.8214V45.7483L7.16858 45.6419C7.30157 45.9943 7.26827 45.8679 7.27492 46.0541C7.38796 46.1805 7.27485 46.0941 7.36794 46.1007L7.48774 46.1406L7.27492 45.7749C7.43239 45.7609 7.59083 45.7865 7.73596 45.8492C7.88109 45.9119 8.00832 46.0097 8.1061 46.1339C8.03822 46.0118 7.96265 45.8942 7.87996 45.7816C8.0329 45.7816 8.09281 45.7815 8.11941 45.5887L8.27233 45.8813L8.12607 45.9478L8.22574 46.1738C9.13007 46.1273 10.3005 46.3467 10.8258 45.8347H10.686C10.686 45.4823 11.7833 45.3892 11.9362 45.5488H11.9761L12.0092 45.622L11.7167 45.7549H11.6768C11.9161 45.9212 12.0425 45.8148 12.1821 45.7084L11.9495 45.3626L15.1345 44.465C15.2011 44.6292 15.2219 44.8085 15.1944 44.9836V45.1698C15.1944 44.9969 15.1944 45.09 15.1944 44.9836C15.0083 44.7575 13.4589 45.316 13.4589 45.316V45.4889L13.6317 45.4091V45.4889C13.5586 46.1539 12.907 45.3892 12.6809 45.5488C12.6277 45.5488 12.641 45.4956 12.6809 45.6485C12.6277 45.6485 12.6809 45.7549 12.5479 45.5222C12.4149 45.4225 12.4216 45.469 12.3086 45.5222L12.3417 45.5953C12.4548 45.6685 12.4216 45.5355 12.6211 45.8347L12.7873 46.0342V46.1074C12.6278 46.1074 12.5412 45.9544 12.3683 45.8414L12.5015 46.1472C11.8365 45.9344 11.4507 46.4332 11.0651 46.6925L10.9388 46.3001C10.347 46.9052 8.94396 46.7657 7.97314 46.4332L8.03288 46.9519L7.52752 46.7191C7.64721 47.1646 7.66727 47.0715 7.47443 47.1048C7.57896 47.2752 7.6992 47.4355 7.83353 47.5835V47.6567C7.25503 47.5436 7.16849 47.9692 7.0754 48.4413C7.00891 48.8004 6.05142 48.315 5.77879 48.2817C5.92079 48.4795 6.01621 48.7068 6.05802 48.9467C6.43703 48.8137 7.30147 49.206 7.89327 49.319L7.98645 49.4586L6.81614 49.2459L6.85592 49.4121C7.13519 49.7579 8.07292 49.738 8.00642 49.4521L8.13272 49.5784L8.25237 50.0704L8.03288 49.984V50.1502L8.55156 50.4694L8.61812 50.6223V50.6955H8.47851V50.7686C8.95727 51.387 9.64215 51.141 10.1342 51.2208C11.4242 51.4202 12.5546 50.6489 13.8446 50.9282C14.955 51.1676 15.8062 50.2633 16.9299 50.1768C18.3734 50.0855 19.7593 49.5773 20.9196 48.7139C22.07 47.7364 24.2443 48.2285 25.3016 46.9186L28.2739 45.1099L29.0319 44.445C30.2554 44.4051 31.6385 43.2282 32.3566 42.2241C32.5628 41.9249 33.8993 41.4195 34.1387 41.6722C34.285 41.599 34.2916 41.6323 34.1387 41.3796C35.6415 40.7147 37.1576 39.9499 38.7002 39.1586C39.2987 38.7131 39.8838 38.2809 40.4955 37.8288C40.8022 37.7554 41.0877 37.6122 41.3299 37.4103C41.5721 37.2085 41.7644 36.9535 41.8919 36.6651L42.2045 36.7515L42.7564 35.6545C43.029 35.1092 43.3415 34.4907 43.4213 34.4176L43.2484 34.1317C43.142 34.1849 43.2484 34.2115 43.1022 34.1317C43.1819 33.8125 43.2019 33.5731 43.2418 33.347C43.2806 33.0772 43.3661 32.8162 43.4945 32.5758L43.388 32.4427C42.982 32.2359 42.624 31.9459 42.3375 31.5916L42.6433 31.7711L42.4771 31.4719H42.3308L42.4771 31.3589L42.3441 31.1461C42.0715 31.3921 41.6791 31.7446 41.3068 32.1435C41.0474 31.698 41.1738 31.6448 41.4265 31.7512C41.3733 31.6049 41.3334 31.4785 41.2869 31.3389C41.2018 31.3021 41.1214 31.2552 41.0475 31.1993L41.1007 31.678C40.6818 30.6806 41.1406 30.8003 41.5529 30.7205C41.3911 30.6075 41.2495 30.4682 41.1339 30.3083C41.4598 30.0822 41.9318 30.4014 42.3241 30.0756L42.2377 29.9359L41.2602 29.9958L41.2071 29.9292C41.2071 29.4637 41.6393 29.6632 41.9185 29.4438L42.4039 29.9027H42.5037C41.8956 29.1832 41.2283 28.516 40.5089 27.9078V27.6618L40.2429 27.3426V27.4889L39.691 26.9769H39.4316L39.6843 27.3094C39.0659 27.0101 39.5048 27.7815 39.2521 28.0807C38.9795 27.7216 38.9928 27.7083 38.8066 27.6883L38.9396 27.9012H38.8398C38.6348 27.5388 38.3821 27.2056 38.0884 26.9104C38.1788 26.6805 38.2543 26.4451 38.3145 26.2055C37.0777 24.8756 37.9555 26.1523 37.2706 25.8664C36.712 25.627 36.0138 24.9222 35.9407 25.6869C35.7678 25.5007 35.9872 25.3012 35.9407 25.1683C35.5218 25.0685 35.5484 25.76 35.4619 26.1058L35.4154 26.0326V25.8399L35.2824 25.6337C35.2824 25.7467 35.2824 25.8531 35.2292 25.9662L35.1826 25.893C35.0962 25.6137 35.063 25.4741 35.1826 25.3943L35.2891 25.6204C35.2226 25.0884 35.555 24.8158 35.7013 24.5299H35.6082L35.5617 24.2506L35.5151 24.1841C35.1893 23.9248 35.043 24.0246 34.9433 24.1841C34.7238 23.599 34.8702 23.3595 35.063 23.2798V23.2L35.0097 23.1335C34.5177 22.9539 34.398 23.5059 34.1852 23.9248C34.0988 24.0977 33.6333 23.6322 33.5203 23.7719C33.2344 24.0711 33.2277 24.7228 32.9617 25.1018L32.7357 25.0485C32.7283 25.572 32.5282 26.0744 32.1737 26.4596C31.8191 26.8448 31.3351 27.0858 30.814 27.1365C29.7767 27.1365 28.1143 28.4664 27.2499 29.1313L26.3521 29.5037L26.0064 30.1687C25.3415 30.3615 23.5129 30.9466 23.5727 31.7711C23.4065 31.545 22.5154 32.1967 22.0367 32.1635L20.5405 32.7087C19.2695 32.7478 18.0266 33.0922 16.9166 33.7128C17.043 33.9921 17.0031 33.8391 16.9964 34.0386C17.2025 34.2514 17.4552 34.0386 17.5549 33.9588L17.5882 34.0319C17.5217 34.5772 16.9233 34.165 16.8368 34.391C16.8368 34.391 16.9498 34.5573 16.8833 34.6437L16.8169 34.3977H16.624C16.6463 34.5078 16.6867 34.6134 16.7437 34.7102C16.3182 35.4416 15.1678 35.0294 14.5827 35.4483L13.2927 35.7674L11.2247 36.173C11.3975 35.6677 14.0773 35.2222 14.0773 35.2222C14.2103 35.1491 14.1903 35.2222 14.0773 34.9363C14.3366 35.0493 14.7422 35.3153 15.0481 35.2156V35.1424H14.9883V34.79L14.9151 34.7302C14.868 34.8521 14.868 34.9872 14.9151 35.1092C14.8087 34.9363 14.822 35.036 14.8087 34.8831H14.3765C14.3765 34.3046 15.0415 34.4907 15.1678 34.5107L15.0215 34.3046C15.1745 34.3711 15.0215 34.2381 15.221 34.5772C15.2875 34.4509 15.3074 34.5772 15.221 34.2315C15.3473 34.298 15.2609 34.2314 15.4072 34.4176C15.3673 34.4774 15.3606 34.3511 15.4072 34.524C15.5269 34.4509 15.467 34.4841 15.4072 34.1517L15.5867 34.5307C15.5867 34.3445 15.5867 34.5307 15.4803 34.2115V34.1051C15.5243 34.1786 15.5536 34.2598 15.5668 34.3444C15.8194 34.6038 15.8726 34.3445 16.0388 34.3977C15.9325 34.0652 16.0389 34.3179 15.8194 34.0386C16.6706 34.0386 17.688 32.0438 18.825 32.0438L20.9063 31.3123C21.7308 31.4121 22.2362 30.6474 23.0142 30.5476C24.0581 30.5173 25.0495 30.0835 25.7803 29.3375L28.4933 28.1006L28.4534 28.0275C28.0345 27.7216 27.8682 28.2203 27.5225 28.2403C26.4452 28.7789 25.3615 29.3042 24.2643 29.8295L21.3052 31.0197C19.7094 31.2458 18.2465 31.5184 17.3156 32.5956L14.8154 34.2315C14.5161 34.3113 14.217 34.0785 14.0374 34.3179C13.951 34.0386 13.9842 34.2315 13.9975 34.0652L13.8446 33.9522L14.0308 34.411C13.8645 34.2714 13.9377 34.3378 13.7848 33.9788C13.7382 34.0586 13.5054 33.9787 13.5453 34.2713V34.3777C13.7049 34.3245 13.5853 34.3179 13.6917 34.2181L13.8113 34.524L13.5852 34.6304L13.5188 34.3844L13.3326 34.1982C13.3725 34.3844 13.3326 34.1982 13.439 34.4242C13.439 34.5971 13.439 34.4974 13.3592 34.4242V34.6902C13.4789 34.8166 13.3924 34.7302 13.4589 34.7368L13.5653 34.8698L12.6809 35.0958C12.7541 34.6304 13.1198 34.8498 13.3459 34.8033C13.0666 34.3445 12.8339 34.3844 12.6809 34.4841L12.7541 34.6304V34.5307L12.8605 34.6636L12.9003 34.7368C12.6809 34.81 12.6278 34.5573 12.4815 34.4708L12.3816 34.79C11.7167 34.3245 11.6236 35.2156 11.2446 35.2222C11.1984 35.2306 11.1512 35.2306 11.105 35.2222C10.7127 34.6903 10.3802 35.8473 9.96132 35.4682C9.6621 35.2023 7.20184 35.9736 6.84277 36.2396L6.70965 35.8406H6.45039C6.62328 36.0667 6.52356 35.9669 6.64325 35.9337L6.77621 36.2396L6.37718 36.326L6.23091 35.9403C6.03142 36.0135 5.93178 35.9403 5.83204 36.2063L5.87847 36.3659L5.97831 36.1398L6.07798 36.3726L5.59259 36.4922L5.55931 36.4191C5.61915 36.2994 5.5594 36.3127 5.65915 36.3726L5.59924 36.1265C5.35986 36.2994 5.52604 36.4258 5.20687 36.5721C5.09383 36.1864 5.28011 36.4856 5.31336 36.2528C5.07398 36.0933 4.45555 36.0268 4.61514 36.5654C4.45555 36.3859 4.6151 36.5654 4.40896 36.1997C4.28263 36.6585 3.74407 36.1066 3.46479 36.439C3.59113 36.6518 3.50467 36.5322 3.60441 36.6452C3.70415 36.7583 3.46479 36.8048 3.45814 36.9843H3.4182C3.53789 37.0974 3.51132 37.0508 3.61106 36.9843L3.67097 37.0508L3.81724 37.4431L3.20538 37.616C2.9394 37.8687 3.12561 38.5004 2.73995 38.4538L2.99271 38.7996H2.77323L2.80651 38.8794L2.91949 38.9193C2.97269 39.1055 2.99264 39.039 2.91949 39.1853C3.13228 39.4712 3.31853 39.6773 3.49142 39.6574L3.55782 39.8104H2.48735L2.52063 39.8835C2.80598 39.9298 3.06657 40.073 3.25862 40.2891V40.3622C3.11234 40.7346 2.59373 41.1336 2.31445 40.954L2.57371 41.3863L2.73995 41.9448C2.73995 42.2906 2.55376 42.3105 2.40082 42.4502L2.44741 42.6098L2.82647 42.7228Z" fill="#E9500F"/>
<path fill-rule="evenodd" clip-rule="evenodd" d="M43.7196 36.5123L43.6465 36.3594V36.5589L43.7196 36.5123Z" fill="#E9500F"/>
<path fill-rule="evenodd" clip-rule="evenodd" d="M44.0928 35.8471L44.2657 36.0266L44.1925 35.8737L44.1194 35.8271L44.0928 35.8471Z" fill="#E9500F"/>
<path fill-rule="evenodd" clip-rule="evenodd" d="M43.7931 36.3658H43.8396L43.7665 36.2129C43.7599 36.3126 43.7333 36.1929 43.7931 36.3658Z" fill="#E9500F"/>
<path fill-rule="evenodd" clip-rule="evenodd" d="M43.9591 36.1466L44.0056 36.1133C43.9192 36.0801 43.9525 36.0468 43.9591 36.1466Z" fill="#E9500F"/>
<path fill-rule="evenodd" clip-rule="evenodd" d="M34.7967 41.4992L34.8566 41.466L34.7568 41.333L34.7967 41.4992Z" fill="#E9500F"/>
<path fill-rule="evenodd" clip-rule="evenodd" d="M34.4775 41.4788C34.6105 41.6118 34.6305 41.5853 34.7302 41.5321C34.6504 41.2595 34.5307 41.4722 34.4775 41.4788Z" fill="#E9500F"/>
<path fill-rule="evenodd" clip-rule="evenodd" d="M34.3979 41.5192L34.5176 41.6456L34.4644 41.486L34.3779 41.4395L34.3979 41.5192Z" fill="#E9500F"/>
<path fill-rule="evenodd" clip-rule="evenodd" d="M43.7798 34.9366C43.7821 34.8087 43.7664 34.6812 43.7332 34.5576C43.7019 34.6854 43.7185 34.8202 43.7798 34.9366Z" fill="#E9500F"/>
<path fill-rule="evenodd" clip-rule="evenodd" d="M43.9533 34.3711H43.8535C43.8592 34.4885 43.9036 34.6007 43.9798 34.6903V34.4642L43.9533 34.3711Z" fill="#E9500F"/>
<path fill-rule="evenodd" clip-rule="evenodd" d="M44.0264 33.3936L44.0995 33.5465L44.2325 33.4334C44.0529 33.3669 44.1727 33.4135 44.0264 33.3936Z" fill="#E9500F"/>
<path fill-rule="evenodd" clip-rule="evenodd" d="M43.6008 32.4489C43.6008 32.1696 43.6606 32.1496 43.8468 32.03V31.9435L43.7138 31.8438C43.4678 31.99 43.4146 32.1363 43.6008 32.4489Z" fill="#E9500F"/>
<path fill-rule="evenodd" clip-rule="evenodd" d="M44.3257 31.3784L44.4121 31.2986L44.3257 31.1523L44.2725 31.3186L44.3257 31.3784Z" fill="#E9500F"/>
<path fill-rule="evenodd" clip-rule="evenodd" d="M44.2656 31.4394C44.0662 31.353 44.0861 31.4395 43.9863 31.4794C44.1592 31.5459 44.126 31.5325 44.2656 31.4394Z" fill="#E9500F"/>
<path fill-rule="evenodd" clip-rule="evenodd" d="M44.3447 31.0065L44.6306 30.8469C44.4045 30.7804 44.4578 30.8535 44.3447 31.0065Z" fill="#E9500F"/>
<path fill-rule="evenodd" clip-rule="evenodd" d="M43.3809 31.7777L43.4873 31.9041L43.5604 31.8442L43.4008 31.6514L43.3809 31.7777Z" fill="#E9500F"/>
<path fill-rule="evenodd" clip-rule="evenodd" d="M6.60254 49.8516L6.70887 49.9912C6.60248 49.8582 6.68898 49.9446 6.60254 49.8516Z" fill="#E9500F"/>
<path fill-rule="evenodd" clip-rule="evenodd" d="M43.4148 30.415L43.335 30.4948L43.5278 30.5414L43.4148 30.415Z" fill="#E9500F"/>
<path fill-rule="evenodd" clip-rule="evenodd" d="M41.499 31.5718L41.5456 31.6383L41.8182 31.5385C41.6985 31.2792 41.5722 31.5053 41.499 31.5718Z" fill="#E9500F"/>
<path fill-rule="evenodd" clip-rule="evenodd" d="M42.1844 31.0463L42.3706 30.9997L42.0049 30.3281L42.1844 31.0463Z" fill="#E9500F"/>
<path fill-rule="evenodd" clip-rule="evenodd" d="M41.9046 31.1664L41.5654 30.9004L41.7184 31.0999L41.9046 31.1664Z" fill="#E9500F"/>
<path fill-rule="evenodd" clip-rule="evenodd" d="M41.5059 30.5274L41.845 30.9995L42.0046 30.8732L41.5524 30.4941L41.5325 30.5141L41.5059 30.5274Z" fill="#E9500F"/>
<path fill-rule="evenodd" clip-rule="evenodd" d="M41.5725 31.0003L41.5194 30.9338C41.3066 30.834 41.3465 30.9338 41.3997 31.1267L41.4463 31.1931H41.6058L41.5725 31.0003Z" fill="#E9500F"/>
<path fill-rule="evenodd" clip-rule="evenodd" d="M13.0994 45.4364L13.2391 45.4696L13.0928 45.2568L13.0994 45.4364Z" fill="#E9500F"/>
<path fill-rule="evenodd" clip-rule="evenodd" d="M6.95523 48.2555L7.0416 48.2155C6.93521 48.0759 6.99506 48.1358 6.88867 48.1025L6.95523 48.2555Z" fill="#E9500F"/>
<path fill-rule="evenodd" clip-rule="evenodd" d="M12.1084 45.5225L12.1549 45.682L12.268 45.7219L12.2214 45.5557L12.1084 45.5225Z" fill="#E9500F"/>
<path fill-rule="evenodd" clip-rule="evenodd" d="M6.7959 47.8691L6.86239 48.0221L6.94219 47.9888L6.7959 47.8691Z" fill="#E9500F"/>
<path fill-rule="evenodd" clip-rule="evenodd" d="M11.2041 45.7421L11.2507 45.9017L11.6364 45.8219C11.4369 45.5692 11.3238 45.6756 11.2041 45.7421Z" fill="#E9500F"/>
<path fill-rule="evenodd" clip-rule="evenodd" d="M10.9854 45.748L11.0186 45.8278L11.1915 45.9342L11.1449 45.768L10.9854 45.748Z" fill="#E9500F"/>
<path fill-rule="evenodd" clip-rule="evenodd" d="M10.8652 45.7148C11.0182 45.9675 10.8652 45.8145 11.0248 45.9143L10.8652 45.7148Z" fill="#E9500F"/>
<path fill-rule="evenodd" clip-rule="evenodd" d="M6.19758 47.5898L6.14439 47.7029L6.10449 47.7228L6.13774 47.796L6.17099 47.8758L6.25743 47.8359L6.26408 47.7428L6.19758 47.5898Z" fill="#E9500F"/>
<path fill-rule="evenodd" clip-rule="evenodd" d="M7.33468 47.005H7.554V46.8255C7.40106 46.6659 7.36123 46.7523 7.28809 46.8255L7.33468 47.005Z" fill="#E9500F"/>
<path fill-rule="evenodd" clip-rule="evenodd" d="M7.62037 46.5125H7.66031L7.59375 46.3662C7.6004 46.466 7.58713 46.3396 7.62037 46.5125Z" fill="#E9500F"/>
<path fill-rule="evenodd" clip-rule="evenodd" d="M7.86611 46.0481L7.79297 45.9883L7.91266 46.2077L7.86611 46.0481Z" fill="#E9500F"/>
<path fill-rule="evenodd" clip-rule="evenodd" d="M7.0086 45.7881L7.00195 46.0607L7.10834 46.1937L7.11499 45.9211L7.0086 45.7881Z" fill="#E9500F"/>
<path fill-rule="evenodd" clip-rule="evenodd" d="M6.88184 46.0203C6.98823 46.16 6.88196 46.0801 7.0083 46.1466L6.9018 46.0137L6.88184 46.0203Z" fill="#E9500F"/>
<path fill-rule="evenodd" clip-rule="evenodd" d="M6.45703 46.0273L6.57002 46.1603C6.47693 46.0273 6.54347 46.1138 6.45703 46.0273Z" fill="#E9500F"/>
<path fill-rule="evenodd" clip-rule="evenodd" d="M6.39648 46.054L6.50952 46.187L6.40978 45.9609L6.39648 46.054Z" fill="#E9500F"/>
<path fill-rule="evenodd" clip-rule="evenodd" d="M6.23755 46.0337L6.14453 45.9805C6.18616 46.0554 6.24011 46.1229 6.30411 46.18L6.23755 46.0337Z" fill="#E9500F"/>
<path fill-rule="evenodd" clip-rule="evenodd" d="M5.35938 46.4131V46.4929H5.49915C5.41936 46.3865 5.46577 46.4197 5.35938 46.4131Z" fill="#E9500F"/>
<path fill-rule="evenodd" clip-rule="evenodd" d="M5.22656 46.5657L5.4061 46.579L5.26646 46.3662L5.22656 46.5657Z" fill="#E9500F"/>
<path fill-rule="evenodd" clip-rule="evenodd" d="M4.72106 45.9682H4.76099C4.6945 45.895 4.72106 45.8817 4.72106 45.9682Z" fill="#E9500F"/>
<path fill-rule="evenodd" clip-rule="evenodd" d="M40.6211 26.9961L40.4814 27.2554L40.5745 27.3951L40.6809 27.2887L40.6211 26.9961Z" fill="#E9500F"/>
<path fill-rule="evenodd" clip-rule="evenodd" d="M40.3291 27.1699C40.3756 27.283 40.3291 27.1699 40.4089 27.3228L40.4422 27.2896L40.3291 27.1699Z" fill="#E9500F"/>
<path fill-rule="evenodd" clip-rule="evenodd" d="M40.4746 26.5713L40.5411 26.7309L40.6076 26.6644L40.4746 26.5713Z" fill="#E9500F"/>
<path fill-rule="evenodd" clip-rule="evenodd" d="M39.2313 27.7814L38.6662 27.1631H38.5664C38.7539 27.4032 38.9783 27.6119 39.2313 27.7814Z" fill="#E9500F"/>
<path fill-rule="evenodd" clip-rule="evenodd" d="M40.2089 26.4783C40.0094 26.3254 40.1357 26.4052 39.9961 26.332C40.0825 26.4584 40.0958 26.5248 40.1623 26.6379L40.2156 26.6977L40.2089 26.4783Z" fill="#E9500F"/>
<path fill-rule="evenodd" clip-rule="evenodd" d="M38.5664 25.7266C38.6728 26.1987 39.125 27.0032 38.8923 27.2825C39.125 27.5086 39.012 27.3823 39.1848 27.4754C39.0585 26.97 38.9122 26.478 38.7526 25.9992L38.5664 25.7266Z" fill="#E9500F"/>
<path fill-rule="evenodd" clip-rule="evenodd" d="M39.5576 27.0834L39.4512 26.957V27.0634L39.5044 27.1233L39.5576 27.0834Z" fill="#E9500F"/>
<path fill-rule="evenodd" clip-rule="evenodd" d="M39.1855 26.3184H39.3318C39.1855 26.2186 39.2587 26.2652 39.1855 26.3184Z" fill="#E9500F"/>
<path fill-rule="evenodd" clip-rule="evenodd" d="M38.4609 26.2646L38.5673 26.3976L38.6272 26.3444C38.5208 26.238 38.5673 26.2779 38.4609 26.2646Z" fill="#E9500F"/>
<path fill-rule="evenodd" clip-rule="evenodd" d="M38.6729 25.6602L38.7393 25.8264L38.7659 25.7998L38.6729 25.6602Z" fill="#E9500F"/>
<path fill-rule="evenodd" clip-rule="evenodd" d="M38.0548 25.4205C38.1612 25.5601 38.0548 25.4736 38.1745 25.5335V25.733L38.2277 25.7995L38.394 25.8726V25.6599L38.1745 25.4138C38.0215 25.3274 38.2211 25.5203 37.9551 25.2676L38.0548 25.4205Z" fill="#E9500F"/>
<path fill-rule="evenodd" clip-rule="evenodd" d="M37.5363 25.4201L37.3967 25.2139L37.3435 25.041C37.3135 25.1435 37.2757 25.2436 37.2305 25.3403L37.5363 25.4201Z" fill="#E9500F"/>
<path fill-rule="evenodd" clip-rule="evenodd" d="M37.2567 24.902L37.3431 25.0417L37.3964 24.9951L37.25 24.4698L37.1104 24.2637L36.9242 24.0908L36.7314 24.2571H37.0107L37.1171 24.3834C37.0905 24.5496 37.2235 24.6959 37.2567 24.902Z" fill="#E9500F"/>
<path fill-rule="evenodd" clip-rule="evenodd" d="M36.9707 24.7031L37.0438 24.8561L37.2433 24.9093C37.1588 24.8325 37.0676 24.7635 36.9707 24.7031Z" fill="#E9500F"/>
<path fill-rule="evenodd" clip-rule="evenodd" d="M37.543 24.0977L37.6427 24.2306L37.543 24.0977Z" fill="#E9500F"/>
<path fill-rule="evenodd" clip-rule="evenodd" d="M36.1528 25.0087L36.3058 25.1018L36.2392 24.9421C36.1328 24.8557 36.1528 24.869 36.0664 24.8623L36.1528 25.0087Z" fill="#E9500F"/>
<path fill-rule="evenodd" clip-rule="evenodd" d="M36.8516 23.7256L36.8184 23.7522L36.9646 23.8519L36.8516 23.7256Z" fill="#E9500F"/>
<path fill-rule="evenodd" clip-rule="evenodd" d="M36.0136 24.3835L36.1532 24.3902L35.9404 24.1309L35.967 24.317L36.0136 24.3835Z" fill="#E9500F"/>
<path fill-rule="evenodd" clip-rule="evenodd" d="M23.4922 31.5515L23.572 31.5049L23.459 31.4717L23.4922 31.5515Z" fill="#E9500F"/>
<path fill-rule="evenodd" clip-rule="evenodd" d="M16.0518 34.5907C16.0829 34.7241 16.1345 34.852 16.2047 34.9697C16.2047 34.7038 16.3377 34.7769 16.4175 34.6904V34.6106C16.3992 34.5793 16.3734 34.553 16.3424 34.5341C16.3115 34.5152 16.2762 34.5043 16.24 34.5023C16.2038 34.5003 16.1676 34.5074 16.1348 34.5228C16.1019 34.5382 16.0734 34.5615 16.0518 34.5907Z" fill="#E9500F"/>
<path fill-rule="evenodd" clip-rule="evenodd" d="M16.0914 34.8432L15.985 34.6172C15.8055 34.6504 15.8853 34.8964 15.7656 34.9962L15.8055 35.0694H15.9983C15.9119 34.7569 15.9651 34.7635 16.0914 34.8432Z" fill="#E9500F"/>
<path fill-rule="evenodd" clip-rule="evenodd" d="M36.4386 23.9583L36.1992 23.6191C36.2598 23.7476 36.3286 23.872 36.4053 23.9916L36.4386 23.9583Z" fill="#E9500F"/>
<path fill-rule="evenodd" clip-rule="evenodd" d="M35.9204 24.0445L36.1532 24.1842L36.0667 24.0379L35.8473 23.8916L35.834 23.9049L35.9204 24.0445Z" fill="#E9500F"/>
<path fill-rule="evenodd" clip-rule="evenodd" d="M16.6902 34.4707H16.6302C16.5305 34.4707 16.5372 34.4707 16.5771 34.6768L16.7367 34.6037L16.6902 34.4707Z" fill="#E9500F"/>
<path fill-rule="evenodd" clip-rule="evenodd" d="M16.4704 34.4844L16.3906 34.5176L16.4438 34.6772L16.4771 34.757L16.5569 34.7171L16.4704 34.4844Z" fill="#E9500F"/>
<path fill-rule="evenodd" clip-rule="evenodd" d="M15.7992 34.796C15.7582 34.7349 15.7018 34.6859 15.6355 34.6541C15.5693 34.6222 15.4958 34.6086 15.4225 34.6147C15.3493 34.6208 15.279 34.6463 15.219 34.6887C15.1589 34.7311 15.1113 34.7888 15.0811 34.8558L15.1675 35.0885C15.4667 35.0885 15.5332 34.9888 15.7925 34.8891L15.7992 34.796Z" fill="#E9500F"/>
<path fill-rule="evenodd" clip-rule="evenodd" d="M16.9825 33.873L16.9492 34.0725L17.1022 34.1856L16.9825 33.873Z" fill="#E9500F"/>
<path fill-rule="evenodd" clip-rule="evenodd" d="M16.8096 34.0449L16.9558 34.251C16.8428 34.0582 16.9426 34.1646 16.8096 34.0449Z" fill="#E9500F"/>
<path fill-rule="evenodd" clip-rule="evenodd" d="M14.8677 35.2354L14.6084 35.1689L14.6483 35.2421L14.8677 35.2354Z" fill="#E9500F"/>
<path fill-rule="evenodd" clip-rule="evenodd" d="M16.2975 34.0119C16.3773 34.0119 16.2976 33.9454 16.4439 34.2181C16.5569 33.992 16.5901 33.972 16.8628 34.2181L16.7231 33.9188L16.9624 33.8058C16.7563 33.5465 16.2643 33.8124 16.2975 34.0119Z" fill="#E9500F"/>
<path fill-rule="evenodd" clip-rule="evenodd" d="M16.6436 34.3113L16.6835 34.2913L16.5971 34.0586L16.5771 34.0652L16.6037 34.2381L16.6436 34.3113Z" fill="#E9500F"/>
<path fill-rule="evenodd" clip-rule="evenodd" d="M16.4376 34.3108V34.2244L16.3112 34.0115L16.1982 33.9717C16.2554 34.0991 16.3367 34.2142 16.4376 34.3108Z" fill="#E9500F"/>
<path fill-rule="evenodd" clip-rule="evenodd" d="M16.2909 34.1981L16.1113 34.1914L16.1512 34.2646L16.3241 34.3709L16.2909 34.1981Z" fill="#E9500F"/>
<path fill-rule="evenodd" clip-rule="evenodd" d="M16.0186 34.1445L16.1449 34.3573L16.0917 34.2044L16.0186 34.1445Z" fill="#E9500F"/>
<path fill-rule="evenodd" clip-rule="evenodd" d="M35.9531 23.3994L35.9731 23.4859L36.0263 23.5524L36.0595 23.5258L35.9531 23.3994Z" fill="#E9500F"/>
<path fill-rule="evenodd" clip-rule="evenodd" d="M32.6617 25.4014L32.6484 25.5011L32.6883 25.5743L32.7415 25.541L32.6617 25.4014Z" fill="#E9500F"/>
<path fill-rule="evenodd" clip-rule="evenodd" d="M35.6674 23.5119L35.6342 23.3257L35.581 23.2592L35.4746 23.2393L35.5877 23.4653L35.6674 23.5119Z" fill="#E9500F"/>
<path fill-rule="evenodd" clip-rule="evenodd" d="M35.3749 23.5185L35.5211 23.5119L35.335 23.2393L35.4015 23.4986L35.3749 23.5185Z" fill="#E9500F"/>
<path fill-rule="evenodd" clip-rule="evenodd" d="M24.7028 29.3573H24.8425C24.7029 29.0315 24.7427 29.2243 24.6164 28.9118L24.5166 28.8652C24.5565 29.2177 24.5565 28.9118 24.7028 29.3573Z" fill="#E9500F"/>
<path fill-rule="evenodd" clip-rule="evenodd" d="M24.7695 29.1377L24.9026 29.2574C24.8361 29.0512 24.8427 29.151 24.7695 29.1377Z" fill="#E9500F"/>
<path fill-rule="evenodd" clip-rule="evenodd" d="M24.397 29.1449L24.357 29.0718L24.2839 29.0186L24.2041 29.0585L24.357 29.1649C24.357 29.238 24.3571 29.1649 24.2241 29.1649L24.2772 29.3245L24.3172 29.3976H24.4901L24.397 29.1449Z" fill="#E9500F"/>
<path fill-rule="evenodd" clip-rule="evenodd" d="M13.2923 34.7768L13.2391 34.6172L13.1992 34.6371L13.2923 34.7768Z" fill="#E9500F"/>
<path fill-rule="evenodd" clip-rule="evenodd" d="M35.1953 22.9137L35.2485 22.9802H35.428C35.1355 22.5946 35.2419 22.814 35.1953 22.9137Z" fill="#E9500F"/>
<path fill-rule="evenodd" clip-rule="evenodd" d="M28.9922 26.7246C28.9922 26.851 28.9922 26.7246 29.0387 26.8908L28.9922 26.7246Z" fill="#E9500F"/>
<path fill-rule="evenodd" clip-rule="evenodd" d="M28.8252 26.8179L28.9781 26.9243C28.8983 26.6916 28.8917 26.8112 28.8252 26.8179Z" fill="#E9500F"/>
<path fill-rule="evenodd" clip-rule="evenodd" d="M28.7854 27.057L28.7256 26.8975C28.7455 26.9906 28.7588 26.9573 28.7854 27.057Z" fill="#E9500F"/>
<path fill-rule="evenodd" clip-rule="evenodd" d="M28.5459 26.9639L28.5858 27.037H28.7188C28.6124 26.9306 28.6589 26.9639 28.5459 26.9639Z" fill="#E9500F"/>
<path fill-rule="evenodd" clip-rule="evenodd" d="M28.5596 27.0566H28.3867L28.4266 27.1298L28.4665 27.2029L28.5264 27.1763L28.5596 27.0566Z" fill="#E9500F"/>
<path fill-rule="evenodd" clip-rule="evenodd" d="M24.5564 29.2377L24.4434 29.1113C24.5564 29.2377 24.4833 29.1579 24.5564 29.2377Z" fill="#E9500F"/>
<path fill-rule="evenodd" clip-rule="evenodd" d="M14.582 33.9053C14.582 34.0316 14.582 33.9053 14.582 34.0782H14.622L14.582 33.9053Z" fill="#E9500F"/>
<path fill-rule="evenodd" clip-rule="evenodd" d="M27.3691 27.5088L27.3891 27.5952L27.695 27.5221L27.3691 27.5088Z" fill="#E9500F"/>
<path fill-rule="evenodd" clip-rule="evenodd" d="M27.2492 27.5752L27.1162 27.6417L27.1561 27.7148L27.196 27.788L27.329 27.7215L27.2492 27.5752Z" fill="#E9500F"/>
<path fill-rule="evenodd" clip-rule="evenodd" d="M26.8438 27.7879H27.1563C27.0167 27.6615 26.9302 27.7214 26.8438 27.7879Z" fill="#E9500F"/>
<path fill-rule="evenodd" clip-rule="evenodd" d="M25.4609 28.5068C25.4609 28.6332 25.4609 28.5068 25.4609 28.6863H25.5009L25.4609 28.5068Z" fill="#E9500F"/>
<path fill-rule="evenodd" clip-rule="evenodd" d="M25.3609 28.559C25.2545 28.4593 25.2877 28.6255 25.3609 28.7319V28.559Z" fill="#E9500F"/>
<path fill-rule="evenodd" clip-rule="evenodd" d="M25.168 28.6592L25.2078 28.7324H25.3409C25.2212 28.626 25.2677 28.6592 25.168 28.6592Z" fill="#E9500F"/>
<path fill-rule="evenodd" clip-rule="evenodd" d="M24.8486 28.8186L24.8886 28.8917L25.2011 28.8252C25.0548 28.6656 24.9484 28.7388 24.8486 28.8186Z" fill="#E9500F"/>
<path fill-rule="evenodd" clip-rule="evenodd" d="M35.0429 22.9408L34.9365 22.8145L34.9432 22.9075L35.0695 23.0272L35.0429 22.9408Z" fill="#E9500F"/>
<path fill-rule="evenodd" clip-rule="evenodd" d="M26.751 27.8418L26.7909 27.9149L26.8707 27.8684L26.751 27.8418Z" fill="#E9500F"/>
<path fill-rule="evenodd" clip-rule="evenodd" d="M26.5777 27.834L26.458 27.8938L26.4979 27.967L26.6508 27.9803L26.5777 27.834Z" fill="#E9500F"/>
<path fill-rule="evenodd" clip-rule="evenodd" d="M26.4379 27.9072L26.418 28.007L26.4579 28.0801L26.5177 28.0535L26.4379 27.9072Z" fill="#E9500F"/>
<path fill-rule="evenodd" clip-rule="evenodd" d="M26.3645 27.9482L26.3047 27.9815L26.4177 28.1078L26.3645 27.9482Z" fill="#E9500F"/>
<path fill-rule="evenodd" clip-rule="evenodd" d="M26.2051 28.0273C26.1921 28.082 26.1921 28.1389 26.2051 28.1936H26.245L26.2051 28.0273Z" fill="#E9500F"/>
<path fill-rule="evenodd" clip-rule="evenodd" d="M24.0838 29.3041V29.0381C23.6117 29.2708 23.0132 29.211 22.7539 29.6033L22.8071 29.7629C23.1861 29.6166 23.4056 29.1977 24.0838 29.3041Z" fill="#E9500F"/>
<path fill-rule="evenodd" clip-rule="evenodd" d="M13.1658 34.558L13.1192 34.3984L13.0527 34.425L13.1658 34.558Z" fill="#E9500F"/>
<path fill-rule="evenodd" clip-rule="evenodd" d="M35.3814 22.6814L35.2617 22.5684C35.2976 22.61 35.3378 22.6479 35.3814 22.6814Z" fill="#E9500F"/>
<path fill-rule="evenodd" clip-rule="evenodd" d="M34.2578 23.3926L34.3044 23.4657H34.3443C34.2046 23.2928 34.3243 23.3992 34.2578 23.3926Z" fill="#E9500F"/>
<path fill-rule="evenodd" clip-rule="evenodd" d="M13.917 33.9264L14.0699 34.0394C14.0234 33.8001 14.0034 33.9197 13.917 33.9264Z" fill="#E9500F"/>
<path fill-rule="evenodd" clip-rule="evenodd" d="M13 34.3711C13 34.4908 13 34.3711 13 34.5373H13.0399L13 34.3711Z" fill="#E9500F"/>
<path fill-rule="evenodd" clip-rule="evenodd" d="M32.9746 24.0381L33.0942 24.1578C32.9879 24.0381 33.0677 24.1112 32.9746 24.0381Z" fill="#E9500F"/>
<path fill-rule="evenodd" clip-rule="evenodd" d="M32.748 24.1777C32.7595 24.2328 32.7774 24.2864 32.8013 24.3373H32.8411L32.748 24.1777Z" fill="#E9500F"/>
<path fill-rule="evenodd" clip-rule="evenodd" d="M32.6353 24.25L32.5156 24.4162L32.6819 24.4096L32.6353 24.25Z" fill="#E9500F"/>
<path fill-rule="evenodd" clip-rule="evenodd" d="M22.4482 29.7497L22.4882 29.8295H22.6611C22.5613 29.5635 22.5147 29.7164 22.4482 29.7497Z" fill="#E9500F"/>
<path fill-rule="evenodd" clip-rule="evenodd" d="M22.1299 29.909L22.2629 30.0287C22.1632 29.776 22.223 29.909 22.1299 29.909Z" fill="#E9500F"/>
<path fill-rule="evenodd" clip-rule="evenodd" d="M14.1633 33.7334L14.1367 33.8331L14.1766 33.9063L14.2365 33.8797L14.1633 33.7334Z" fill="#E9500F"/>
<path fill-rule="evenodd" clip-rule="evenodd" d="M28.8382 26.3447L28.7783 26.3713L28.918 26.491L28.8382 26.3447Z" fill="#E9500F"/>
<path fill-rule="evenodd" clip-rule="evenodd" d="M18.2327 31.7113L18.1662 31.3722L18.1329 31.2991C17.867 31.1993 17.7207 31.4055 17.6143 31.6648L17.5677 31.565H17.5079L17.6077 31.6515C17.6077 31.7446 17.5412 31.8376 17.5146 31.9307L17.4281 31.698C17.4281 31.7579 17.4281 31.9906 17.2686 32.0438L17.335 32.2898L17.6808 32.1236L18.2327 31.7113Z" fill="#E9500F"/>
<path fill-rule="evenodd" clip-rule="evenodd" d="M15.5731 32.8877C15.5731 33.0539 15.5266 32.8877 15.6197 33.1404H15.6596L15.5731 32.8877Z" fill="#E9500F"/>
<path fill-rule="evenodd" clip-rule="evenodd" d="M15.2002 33.154L15.4129 33.2338C15.3465 32.9678 15.2467 33.1207 15.2002 33.154Z" fill="#E9500F"/>
<path fill-rule="evenodd" clip-rule="evenodd" d="M14.9678 33.1748L15.0343 33.4208L15.0742 33.4009L14.9678 33.1748Z" fill="#E9500F"/>
<path fill-rule="evenodd" clip-rule="evenodd" d="M33.5534 23.6649L33.4336 23.3457H33.2607C33.3321 23.4644 33.4121 23.5778 33.5001 23.6848L33.5534 23.6649Z" fill="#E9500F"/>
<path fill-rule="evenodd" clip-rule="evenodd" d="M33.327 23.712L33.1941 23.5059L33.1143 23.5591L33.1542 23.6256L33.3403 23.8051L33.327 23.712Z" fill="#E9500F"/>
<path fill-rule="evenodd" clip-rule="evenodd" d="M16.6899 32.2695L16.6699 32.2762L16.7963 32.4956L16.6899 32.2695Z" fill="#E9500F"/>
<path fill-rule="evenodd" clip-rule="evenodd" d="M15.8254 32.9546L15.9451 32.8948L15.8587 32.6621C15.7922 32.7419 15.7789 32.7419 15.8254 32.9546Z" fill="#E9500F"/>
<path fill-rule="evenodd" clip-rule="evenodd" d="M15.6328 32.8613L15.7659 32.981C15.706 32.755 15.7126 32.868 15.6328 32.8613Z" fill="#E9500F"/>
<path fill-rule="evenodd" clip-rule="evenodd" d="M16.4311 32.2959L16.2715 32.3757L16.3114 32.4488L16.584 32.502L16.4311 32.2959Z" fill="#E9500F"/>
<path fill-rule="evenodd" clip-rule="evenodd" d="M16.3381 32.6226L16.2317 32.3965H16.1719C16.2148 32.4803 16.2709 32.5566 16.3381 32.6226Z" fill="#E9500F"/>
<path fill-rule="evenodd" clip-rule="evenodd" d="M16.2048 32.4961L16.1582 32.6091L16.1981 32.6889L16.2579 32.6557L16.2048 32.4961Z" fill="#E9500F"/>
<path fill-rule="evenodd" clip-rule="evenodd" d="M16.1051 32.5488L16.0586 32.6619L16.0985 32.735L16.1583 32.7084L16.1051 32.5488Z" fill="#E9500F"/>
<path fill-rule="evenodd" clip-rule="evenodd" d="M34.7495 22.3359L34.6963 22.3692L34.796 22.5022L34.8958 22.5288L34.7495 22.3359Z" fill="#E9500F"/>
<path fill-rule="evenodd" clip-rule="evenodd" d="M22.2821 29.5566L21.9297 29.6431L22.1425 29.7229L22.2821 29.5566Z" fill="#E9500F"/>
<path fill-rule="evenodd" clip-rule="evenodd" d="M19.7891 30.6865C19.7901 30.7456 19.8014 30.8041 19.8223 30.8594H19.8622L19.7891 30.6865Z" fill="#E9500F"/>
<path fill-rule="evenodd" clip-rule="evenodd" d="M19.5889 30.7875L19.7218 30.9072C19.6553 30.6812 19.6687 30.8008 19.5889 30.7875Z" fill="#E9500F"/>
<path fill-rule="evenodd" clip-rule="evenodd" d="M18.9838 31.2655L18.9306 31.1059L18.8574 31.0527L18.9838 31.2655Z" fill="#E9500F"/>
<path fill-rule="evenodd" clip-rule="evenodd" d="M16.7432 32.0635L16.7698 32.2297L16.9094 32.2563L16.7432 32.0635Z" fill="#E9500F"/>
<path fill-rule="evenodd" clip-rule="evenodd" d="M34.624 22.4023L34.7703 22.5021C34.6506 22.3093 34.6772 22.4023 34.624 22.4023Z" fill="#E9500F"/>
<path fill-rule="evenodd" clip-rule="evenodd" d="M32.9213 23.7721L32.7617 23.5859C32.9147 23.7788 32.8083 23.6658 32.9213 23.7721Z" fill="#E9500F"/>
<path fill-rule="evenodd" clip-rule="evenodd" d="M21.79 29.709L21.8233 29.7888L21.9031 29.7489L21.79 29.709Z" fill="#E9500F"/>
<path fill-rule="evenodd" clip-rule="evenodd" d="M19.5091 30.9199L19.416 30.7803L19.4493 30.9465L19.5091 30.9199Z" fill="#E9500F"/>
<path fill-rule="evenodd" clip-rule="evenodd" d="M18.9775 30.9932L19.0108 31.0663L19.1305 31.1062L18.9775 30.9932Z" fill="#E9500F"/>
<path fill-rule="evenodd" clip-rule="evenodd" d="M17.2087 31.8447L17.1621 31.9578L17.1954 32.0309L17.2552 32.0043L17.2087 31.8447Z" fill="#E9500F"/>
<path fill-rule="evenodd" clip-rule="evenodd" d="M18.5723 31.0922L18.6986 31.2119C18.6454 30.9858 18.6521 31.1055 18.5723 31.0922Z" fill="#E9500F"/>
<path fill-rule="evenodd" clip-rule="evenodd" d="M18.3789 31.1926L18.2991 31.2259L18.2393 31.166L18.2592 31.2458L18.4254 31.3456L18.3789 31.1926Z" fill="#E9500F"/>
<path fill-rule="evenodd" clip-rule="evenodd" d="M17.4883 31.6113C17.4893 31.6704 17.5006 31.7289 17.5216 31.7842H17.5614L17.4883 31.6113Z" fill="#E9500F"/>
<path fill-rule="evenodd" clip-rule="evenodd" d="M21.0987 29.7695C21.0856 29.8264 21.0856 29.8855 21.0987 29.9424H21.1385L21.0987 29.7695Z" fill="#E9500F"/>
<path fill-rule="evenodd" clip-rule="evenodd" d="M18.4189 31.0723L18.4522 31.2452L18.532 31.2053L18.4189 31.0723Z" fill="#E9500F"/>
<path fill-rule="evenodd" clip-rule="evenodd" d="M32.7686 23.3789C32.778 23.4345 32.796 23.4883 32.8218 23.5385L32.7686 23.3789Z" fill="#E9500F"/>
<path fill-rule="evenodd" clip-rule="evenodd" d="M26.8037 26.8701L26.8436 26.9433L26.9234 26.9034L26.8037 26.8701Z" fill="#E9500F"/>
<path fill-rule="evenodd" clip-rule="evenodd" d="M26.5381 27.0098L26.578 27.0829L26.6511 27.043L26.5381 27.0098Z" fill="#E9500F"/>
<path fill-rule="evenodd" clip-rule="evenodd" d="M26.1523 27.123L26.1922 27.2893L26.2521 27.256L26.1523 27.123Z" fill="#E9500F"/>
<path fill-rule="evenodd" clip-rule="evenodd" d="M8.61058 35.5479L8.69037 35.508L8.58398 35.375L8.61058 35.5479Z" fill="#E9500F"/>
<path fill-rule="evenodd" clip-rule="evenodd" d="M19.3295 30.0883L19.1699 30.0684L19.2098 30.1415L19.4691 30.3809L19.3295 30.0883Z" fill="#E9500F"/>
<path fill-rule="evenodd" clip-rule="evenodd" d="M11.1641 34.0186L11.2306 34.2646L11.2705 34.2446L11.1641 34.0186Z" fill="#E9500F"/>
<path fill-rule="evenodd" clip-rule="evenodd" d="M20.0811 29.8096L20.1143 29.9825L20.1742 29.9492L20.0811 29.8096Z" fill="#E9500F"/>
<path fill-rule="evenodd" clip-rule="evenodd" d="M19.0039 30.335L19.0372 30.4081L19.2765 30.3882L19.0039 30.335Z" fill="#E9500F"/>
<path fill-rule="evenodd" clip-rule="evenodd" d="M7.31417 35.6748L7.23438 35.7081L7.37401 35.9208L7.31417 35.6748Z" fill="#E9500F"/>
<path fill-rule="evenodd" clip-rule="evenodd" d="M19.9352 29.9753L19.6426 29.9287C19.7689 30.0551 19.8421 30.0351 19.9352 29.9753Z" fill="#E9500F"/>
<path fill-rule="evenodd" clip-rule="evenodd" d="M6.45692 36.2323V36.1392L6.35059 35.9131C6.35542 36.0278 6.37316 36.1416 6.40367 36.2522L6.45692 36.2323Z" fill="#E9500F"/>
<path fill-rule="evenodd" clip-rule="evenodd" d="M3.53063 37.5362H3.57056C3.50407 37.4631 3.53063 37.4431 3.53063 37.5362Z" fill="#E9500F"/>
<path fill-rule="evenodd" clip-rule="evenodd" d="M18.532 30.3818L18.5254 30.568L18.6052 30.5281L18.532 30.3818Z" fill="#E9500F"/>
<path fill-rule="evenodd" clip-rule="evenodd" d="M18.3662 30.5469L18.4061 30.6267L18.4859 30.5868L18.3662 30.5469Z" fill="#E9500F"/>
<path fill-rule="evenodd" clip-rule="evenodd" d="M6.8488 35.7871C6.83816 35.8442 6.83816 35.9029 6.8488 35.96H6.88858L6.8488 35.7871Z" fill="#E9500F"/>
<path fill-rule="evenodd" clip-rule="evenodd" d="M6.26409 35.96L6.24414 35.9666L6.37048 36.186L6.26409 35.96Z" fill="#E9500F"/>
<path fill-rule="evenodd" clip-rule="evenodd" d="M5.70544 36.2999V36.2068C5.64559 36.1869 5.68549 36.2201 5.70544 36.2999Z" fill="#E9500F"/>
<path fill-rule="evenodd" clip-rule="evenodd" d="M15.2669 31.6579L15.1738 31.6113L15.1805 31.7909L15.3002 31.8241L15.2669 31.6579Z" fill="#E9500F"/>
<path fill-rule="evenodd" clip-rule="evenodd" d="M5.38625 36.3523L5.2998 36.2061L5.3264 36.3789L5.38625 36.3523Z" fill="#E9500F"/>
<path fill-rule="evenodd" clip-rule="evenodd" d="M14.057 31.8574L13.8975 31.9372L13.9307 32.0104L14.0637 32.037L14.057 31.8574Z" fill="#E9500F"/>
<path fill-rule="evenodd" clip-rule="evenodd" d="M13.4189 31.9707L13.4655 32.1303L13.5918 32.0771C13.4788 31.9441 13.5187 31.9774 13.4189 31.9707Z" fill="#E9500F"/>
<path fill-rule="evenodd" clip-rule="evenodd" d="M12.707 32.124L12.7336 32.2903L12.7935 32.2637L12.707 32.124Z" fill="#E9500F"/>
<path fill-rule="evenodd" clip-rule="evenodd" d="M12.0088 32.2627L12.042 32.3358L12.1218 32.3026L12.0088 32.2627Z" fill="#E9500F"/>
<path fill-rule="evenodd" clip-rule="evenodd" d="M11.0117 32.376L11.0517 32.4491L11.2179 32.5555C11.0849 32.376 11.1248 32.376 11.0117 32.376Z" fill="#E9500F"/>
<path fill-rule="evenodd" clip-rule="evenodd" d="M10.2197 32.5361L10.253 32.6159L10.3328 32.576L10.2197 32.5361Z" fill="#E9500F"/>
<path fill-rule="evenodd" clip-rule="evenodd" d="M9.90104 32.5957L9.85449 32.7087L9.88774 32.7819L9.94758 32.7553L9.90104 32.5957Z" fill="#E9500F"/>
<path fill-rule="evenodd" clip-rule="evenodd" d="M9.48242 32.6953L9.51567 32.7685L9.7883 32.7352L9.48242 32.6953Z" fill="#E9500F"/>
<path fill-rule="evenodd" clip-rule="evenodd" d="M9.01061 32.9084L8.89746 32.7754C8.92859 32.8249 8.96677 32.8697 9.01061 32.9084Z" fill="#E9500F"/>
<path fill-rule="evenodd" clip-rule="evenodd" d="M8.75739 32.835L8.6377 32.8948L8.67094 32.968L8.81058 33.0012L8.75739 32.835Z" fill="#E9500F"/>
<path fill-rule="evenodd" clip-rule="evenodd" d="M8.22582 32.9014L8.19922 33.0011L8.23247 33.0742L8.4386 32.9878L8.22582 32.9014Z" fill="#E9500F"/>
<path fill-rule="evenodd" clip-rule="evenodd" d="M8.18519 33.0942C8.14905 33.0438 8.09907 33.005 8.0412 32.9825C7.98333 32.9601 7.92009 32.955 7.85938 32.9679L7.89265 33.0477C8.01899 33.174 8.0921 33.1607 8.18519 33.0942Z" fill="#E9500F"/>
<path fill-rule="evenodd" clip-rule="evenodd" d="M7.59993 33.0879L7.47363 33.1478C7.56673 33.2475 7.54678 33.2343 7.64652 33.2476L7.59993 33.0879Z" fill="#E9500F"/>
<path fill-rule="evenodd" clip-rule="evenodd" d="M7.22125 33.167L7.10156 33.2268L7.13481 33.3L7.2678 33.3332L7.22125 33.167Z" fill="#E9500F"/>
<path fill-rule="evenodd" clip-rule="evenodd" d="M5.49202 33.6723L5.19945 33.6191L5.17285 33.7255L5.44548 33.7854L5.49202 33.6723Z" fill="#E9500F"/>
<path fill-rule="evenodd" clip-rule="evenodd" d="M5.17974 33.8117L5.07324 33.6787C5.15969 33.8183 5.08 33.7386 5.17974 33.8117Z" fill="#E9500F"/>
<path fill-rule="evenodd" clip-rule="evenodd" d="M4.95373 33.7334L4.94043 33.9196L5.00027 33.893L4.95373 33.7334Z" fill="#E9500F"/>
<path fill-rule="evenodd" clip-rule="evenodd" d="M4.82748 33.7861C4.82053 33.8413 4.82053 33.8972 4.82748 33.9524H4.86725L4.82748 33.7861Z" fill="#E9500F"/>
<path fill-rule="evenodd" clip-rule="evenodd" d="M4.66113 33.6797V33.9523L4.84067 33.9656L4.66113 33.6797Z" fill="#E9500F"/>
<path fill-rule="evenodd" clip-rule="evenodd" d="M4.36914 33.8984L4.41573 34.058L4.53538 34.0048C4.42899 33.8718 4.46888 33.9051 4.36914 33.8984Z" fill="#E9500F"/>
<path fill-rule="evenodd" clip-rule="evenodd" d="M4.26939 33.9453L4.22949 33.9653L4.31593 34.1049L4.26939 33.9453Z" fill="#E9500F"/>
<path fill-rule="evenodd" clip-rule="evenodd" d="M4.0293 33.958L4.09586 34.1109L4.17573 34.0711C4.06934 33.9381 4.13569 33.9979 4.0293 33.958Z" fill="#E9500F"/>
<path fill-rule="evenodd" clip-rule="evenodd" d="M4.00977 33.9658C4.00977 34.0922 4.00977 33.9658 4.00977 34.1387H4.04954L4.00977 33.9658Z" fill="#E9500F"/>
<path fill-rule="evenodd" clip-rule="evenodd" d="M3.94312 34.0984C3.69709 33.8657 3.56407 34.0519 3.41113 34.1516C3.60397 34.3711 3.79018 34.1516 3.94312 34.0984Z" fill="#E9500F"/>
<path fill-rule="evenodd" clip-rule="evenodd" d="M2.65332 34.2049C2.88605 34.451 3.21177 34.2847 3.37801 34.2515C3.33966 34.1922 3.28809 34.1428 3.22719 34.1071C3.1663 34.0713 3.0978 34.0504 3.02735 34.0459C2.9569 34.0413 2.88647 34.0534 2.8215 34.081C2.75654 34.1086 2.69893 34.1511 2.65332 34.2049Z" fill="#E9500F"/>
<path fill-rule="evenodd" clip-rule="evenodd" d="M2.54036 34.165L2.41406 34.2183C2.50715 34.3247 2.48721 34.3114 2.58695 34.3247L2.54036 34.165Z" fill="#E9500F"/>
<path fill-rule="evenodd" clip-rule="evenodd" d="M2.36718 34.1524L2.22754 34.1191L2.25414 34.292L2.44032 34.3918L2.36718 34.1524Z" fill="#E9500F"/>
<path fill-rule="evenodd" clip-rule="evenodd" d="M1.98145 34.2253V34.305H2.18096C2.13442 34.2053 2.08119 34.2253 1.98145 34.2253Z" fill="#E9500F"/>
<path fill-rule="evenodd" clip-rule="evenodd" d="M1.74223 34.5108L1.80879 34.3912C1.62261 34.1518 1.40312 34.3912 1.25684 34.4577L1.30343 34.6173C1.47631 34.5242 1.5494 34.4643 1.74223 34.5108Z" fill="#E9500F"/>
<path fill-rule="evenodd" clip-rule="evenodd" d="M8.30468 0.312524L8.34457 0.23938L8.23153 0L8.16504 0.24603L8.30468 0.312524Z" fill="#E9500F"/>
<path fill-rule="evenodd" clip-rule="evenodd" d="M8.13908 2.18752L8.17902 2.11439C7.8399 1.93485 7.89302 1.51596 7.93957 0.970703C7.79523 1.28553 7.72251 1.62847 7.72674 1.97478L8.0459 2.32056L8.13908 2.18752Z" fill="#E9500F"/>
<path fill-rule="evenodd" clip-rule="evenodd" d="M40.721 33.5394L40.6146 33.6591L40.6611 33.5992L40.7475 33.5061C40.8007 33.4396 40.8605 33.3665 40.9869 33.2269C41.0182 33.135 41.0318 33.0379 41.0268 32.9409L41.2795 32.6151C41.2511 32.7602 41.2041 32.901 41.1398 33.034C41.2383 32.8972 41.3294 32.7551 41.4125 32.6085C41.5321 32.4223 41.4125 32.6084 41.5787 32.4289C41.6748 32.247 41.7304 32.0465 41.7419 31.8411C41.7534 31.6357 41.7204 31.4302 41.6452 31.2387L41.9976 31.1788C42.1106 31.0392 42.3168 30.7333 42.5496 30.454C42.3413 30.2549 42.2094 29.989 42.1772 29.7026L41.9776 29.962L42.1505 30.1814C41.9776 30.2479 41.9112 30.1814 41.9045 30.0152C41.7848 30.0152 41.8181 30.0152 41.9045 29.7359C41.971 29.7958 41.9046 29.8024 42.0375 29.7359C42.0375 29.6295 42.0375 29.676 42.0375 29.5231L41.7449 29.9287C41.8247 29.563 41.8181 29.563 41.858 29.3104C41.7117 29.2638 41.7649 29.2638 41.592 29.5364L41.2329 29.2106L41.4457 28.7651V28.6654L41.2728 29.0444L41.2329 29.1175L40.6877 28.5922C40.9005 28.2797 40.8141 28.3794 40.967 28.273C40.967 28.1001 40.967 28.2265 40.967 28.1667L40.9137 28.0403L40.7475 28.4193C40.6282 28.2991 40.5407 28.151 40.4931 27.9884C40.4455 27.8259 40.4392 27.654 40.4749 27.4884C40.4151 27.6171 40.3662 27.7506 40.3286 27.8874C40.2288 27.7477 40.1889 27.6945 39.9961 27.7809L40.1424 27.4818L40.302 27.5749L40.4283 27.362C39.7634 26.5907 39.0985 25.4403 38.2939 25.2807L38.367 25.4204C38.0811 25.6399 37.21 24.7555 37.2366 24.5028H37.1901L37.23 24.4297L37.5492 24.6091H37.5957C37.5957 24.3099 37.3896 24.2634 37.1967 24.2035L37.0638 24.6026L34.0382 22.3816C34.1325 22.2265 34.2716 22.1036 34.4372 22.0292L34.6101 21.9295C34.4837 22.0558 34.5569 22.0092 34.4372 22.0292C34.3773 22.3151 35.9533 23.3258 35.9533 23.3258L36.0796 23.2061L35.8935 23.1064L35.9333 23.0332C36.5318 22.7274 36.3655 23.6982 36.6647 23.8112C36.7046 23.8578 36.6647 23.8778 36.7512 23.7647C36.8177 23.7647 36.831 23.6915 36.7512 23.9509C36.7512 24.1171 36.7978 24.0905 36.944 24.1504L36.9839 24.0772C36.9839 23.9376 36.8709 24.0373 36.9839 23.6982L37.0305 23.4389L37.0703 23.3657C37.1701 23.5186 37.1169 23.6716 37.1501 23.8844L37.3098 23.5918C37.5824 24.2568 38.3072 24.3366 38.7993 24.5161L38.5532 24.8552C39.4908 25.0281 40.3818 26.338 40.7741 27.3753L41.1864 27.0429L41.3393 27.6147C41.6385 27.2689 41.5455 27.3022 41.7184 27.4551C41.7881 27.2672 41.8415 27.0737 41.878 26.8766L41.9245 26.8035C42.237 27.382 42.6759 27.249 43.1746 27.0895C43.5469 26.9631 43.8395 28.1401 44.0257 28.4193C44.2851 27.9472 44.1321 28.1334 44.4845 27.8342C44.019 27.4552 43.7332 26.4312 43.3807 25.8394L43.4406 25.6864L44.1454 26.9232L44.2651 26.8035C44.3648 26.3447 43.6001 25.4736 43.4206 25.6731V25.4869L43.7797 25.1212L43.8595 25.3672L43.9991 25.2609L43.8927 24.5959L43.9791 24.4496L44.0191 24.3831L44.0989 24.5294L44.1454 24.4562C44.3316 23.6782 43.5869 23.1729 43.2943 22.6875C42.503 21.4042 41.0201 20.8456 40.3286 19.5689C39.7368 18.4717 38.3737 18.239 37.476 17.3347C36.3666 16.1529 34.9721 15.276 33.4265 14.788C31.7907 14.3757 30.7135 12.2612 28.8649 12.1282L25.2942 10.6387L24.2369 10.3661C23.3792 9.34871 21.4641 8.83665 20.1608 8.8167C19.7752 8.8167 18.4718 7.95231 18.5383 7.61319C18.3854 7.52675 18.412 7.50013 18.2856 7.75946L13.631 5.09968L11.4833 4.28846C11.2668 4.06844 11.002 3.90167 10.7101 3.80128C10.4182 3.7009 10.1071 3.66965 9.80101 3.70997L9.7278 3.39746C9.7278 3.39746 7.46707 3.577 7.32078 3.57035L7.14789 3.84958C7.22768 3.91607 7.20762 3.80307 7.20097 3.97596C6.75899 4.18177 6.28815 4.31856 5.80469 4.38157L5.73147 4.52784C5.66942 4.9758 5.53712 5.41121 5.33926 5.81787L5.399 5.47874L5.19948 5.75131L5.25939 5.87104L5.11977 5.7979L4.98016 6.01065C5.24614 6.13034 5.73148 6.28996 6.23684 6.45619C5.95756 6.89506 5.85127 6.80861 5.84462 6.53598L5.54527 6.84849C5.55387 6.93916 5.55387 7.03047 5.54527 7.12114L5.9443 6.85514C5.27936 7.67968 5.14633 7.21421 4.9136 6.85514C4.87438 7.04693 4.8095 7.23254 4.72074 7.40702C4.38162 7.21418 4.50801 6.65567 4.10239 6.44954L4.00937 6.58249L4.38827 7.42699L4.35515 7.50012C3.94289 7.6996 3.96283 7.22748 3.69021 7.06789L3.94281 6.44954V6.35643C3.47875 7.17493 3.085 8.03134 2.76584 8.91646L2.53305 8.98293L2.32038 9.34203H2.47331L2.20723 10.007L2.34035 10.2597L2.54636 9.90056C2.54636 10.5655 3.10506 9.9006 3.52397 10.0269C3.31784 10.4259 3.29775 10.4193 3.37754 10.5988L3.51732 10.3926V10.499C3.27509 10.8382 3.08663 11.2128 2.9587 11.6095H2.08093C1.37609 13.3118 2.26043 12.0151 2.38012 12.7865C2.47986 13.4514 2.24713 14.4222 3.04507 14.1562C2.97192 14.4089 2.61961 14.2693 2.49327 14.3424C2.67281 14.7946 3.37095 14.4887 3.76992 14.4355V14.5087L3.57706 14.5951L3.46407 14.8212L3.82982 14.7281L3.78988 14.8012C3.5771 15.0073 3.45741 15.1005 3.28452 15.0074L3.4441 14.8079C2.98201 14.9738 2.47662 14.9738 2.01453 14.8079L2.04765 14.9143L1.77508 15.0605L1.73515 15.1337C1.73515 15.5725 1.92142 15.6789 2.1608 15.7188C1.70864 16.171 1.32952 16.1045 1.05689 15.905L0.997147 15.9649L0.963867 16.0381C1.18995 16.6631 1.87486 16.5634 2.47996 16.6232C2.73264 16.6232 2.59302 17.2882 2.82575 17.3613C3.33775 17.5076 4.0026 17.2416 4.55451 17.3081L4.661 17.5474C5.22568 17.3154 5.84827 17.2637 6.4435 17.3994C7.03872 17.5351 7.57745 17.8516 7.98573 18.3055C8.71052 19.263 11.0578 20.0477 12.3012 20.4267L13.272 21.0185L14.0766 20.9653C14.695 21.4174 16.5235 22.7207 17.2018 22.2087C17.1153 22.4813 18.3189 22.8737 18.6181 23.3192L20.1608 24.31C21.1152 25.3925 22.2865 26.2624 23.5986 26.8633C23.7516 26.5907 23.6452 26.717 23.8247 26.604C23.8247 26.3048 23.4922 26.2184 23.3592 26.1718V26.0987C23.8712 25.846 23.9576 26.604 24.2037 26.5375C24.2037 26.5375 24.2702 26.3447 24.3832 26.358L24.2236 26.5508L24.3699 26.7237C24.4442 26.6395 24.5028 26.5426 24.5428 26.4377C25.4737 26.3845 25.9458 27.6081 26.7172 27.874L27.9075 28.7917L29.7161 30.3277C29.1708 30.4674 26.8834 28.4326 26.8834 28.4326C26.7305 28.3594 26.777 28.3462 26.6307 28.5789C26.5376 28.293 26.4446 27.7677 26.172 27.5815L26.132 27.6546L26.1985 27.6945L25.9126 27.914V28.0137C25.9795 28.0044 26.0439 27.9821 26.1021 27.9478C26.1603 27.9136 26.2112 27.8682 26.2518 27.8142C26.1853 28.0071 26.2517 27.9405 26.1387 28.0336L26.4645 28.3994C25.9458 28.7053 25.6533 28.047 25.5802 27.9273L25.5136 28.1733C25.4604 28.0071 25.4338 28.1733 25.6 27.8409C25.4471 27.8409 25.5403 27.7743 25.3275 28.0736C25.3275 27.9273 25.2809 28.0735 25.3275 27.8076C25.4073 27.8076 25.3274 27.8873 25.4338 27.7676C25.2875 27.7011 25.3607 27.7677 25.1213 27.9805L25.3142 27.6147C25.1479 27.7145 25.2676 27.6147 25.1146 27.8807L25.0083 27.9206C25.0439 27.8451 25.091 27.7755 25.1479 27.7145C25.1945 27.3487 24.9417 27.4418 24.8553 27.2756C24.6558 27.5549 24.8021 27.3355 24.709 27.668C24.1239 26.9299 21.6769 27.1958 20.8723 26.2117L18.7578 24.822C18.2591 24.044 17.2085 24.0506 16.5967 23.4189C15.811 22.5156 14.7462 21.9001 13.5712 21.6701L10.559 19.9346L10.519 20.0078C10.519 20.5397 11.1042 20.4267 11.3702 20.7192L15.074 22.7141L18.2192 24.6225C19.5491 25.8925 20.8457 26.9963 22.4549 27.2091L25.6333 28.426C25.9126 28.6388 25.9326 29.0311 26.2584 29.0377C26.0855 29.2771 26.2584 29.1375 26.0789 29.2239V29.4168L26.3382 28.9912C26.3382 29.2173 26.3382 29.1175 26.152 29.4566C26.2517 29.4566 26.3648 29.6827 26.5643 29.4566L26.6707 29.4168C26.5111 29.3104 26.5975 29.4167 26.4312 29.3835L26.6108 29.1042L26.8568 29.2372L26.6972 29.43V29.696C26.8236 29.5564 26.6972 29.696 26.8103 29.4766C26.9566 29.3768 26.8568 29.4101 26.9034 29.5298L27.1095 29.3569C27.1095 29.184 27.1095 29.3104 27.1095 29.2439V29.0776L27.9273 29.7026C27.4885 29.9154 27.4087 29.4766 27.2624 29.3303C27.0762 29.8357 27.2625 29.9952 27.4885 30.1083L27.5617 29.962H27.4553V29.7957L27.4952 29.7226C27.708 29.8623 27.5351 30.0551 27.5683 30.2346L27.9141 30.1349C27.9673 30.9461 28.8051 30.5338 29.0844 30.8596C29.1215 30.8957 29.147 30.9421 29.1576 30.9927C28.9913 31.6576 30.2015 31.252 30.1749 31.8305C30.1749 32.2361 32.5354 33.8985 33.0009 34.0514L32.7549 34.3905L32.9544 34.5966C33.0342 34.3174 33.0209 34.4637 32.9079 34.3772L33.0674 34.0846L33.4198 34.3772L33.1937 34.7297C33.3866 34.856 33.4065 34.9757 33.6858 34.9092L33.7922 34.7762L33.5395 34.8293L33.6592 34.6099L34.0914 34.9491L34.0515 35.0222C33.9053 35.0222 33.9717 35.102 33.9385 34.9624L33.7789 35.1552C34.0781 35.2616 34.0781 35.0422 34.4438 35.2284C34.1912 35.5476 34.3241 35.2284 34.1047 35.3215C34.1047 35.6207 34.4837 36.1793 34.8228 35.7337C34.7763 35.9731 34.8228 35.7337 34.6566 36.1194C35.1154 35.9664 35.0024 36.7311 35.4479 36.7843C35.5477 36.5516 35.5011 36.6979 35.5344 36.545C35.5676 36.392 35.7472 36.545 35.9001 36.4718H35.94C35.94 36.3056 35.9399 36.3521 35.8269 36.3056V36.2191L36.0597 35.88L36.5651 36.279C36.9241 36.3588 37.343 35.8401 37.4959 36.1792L37.6488 35.7803L37.7619 35.9531L37.8085 35.88V35.7669C37.9348 35.614 37.8683 35.6406 38.0146 35.6007C38.1409 35.2682 38.2074 35.0023 38.101 34.8693L38.1875 34.7297C38.3804 34.9924 38.5516 35.2704 38.6995 35.5609L38.746 35.4943C38.6751 35.233 38.6751 34.9576 38.746 34.6964L38.7926 34.6299C39.1783 34.5368 39.7169 34.7296 39.5174 34.9291C39.6238 34.8028 39.7168 34.6631 39.8166 34.5302L40.1956 34.0913L40.2688 34.0181L40.3486 33.925L40.4616 33.7921C40.7542 33.4397 41.1265 33.054 41.3925 32.768C41.7875 32.2778 42.2874 31.8825 42.8554 31.611C42.7956 31.5645 42.4498 31.7441 42.0907 32.0699C41.8846 32.2428 41.7184 32.4223 41.4657 32.6617C41.3527 32.7747 41.2396 32.8944 41.1332 33.0141L40.721 33.5394Z" fill="#E9500F"/>
<path fill-rule="evenodd" clip-rule="evenodd" d="M8.90345 2.29395L8.80371 2.42693L8.96995 2.32719L8.90345 2.29395Z" fill="#E9500F"/>
<path fill-rule="evenodd" clip-rule="evenodd" d="M8.22582 2.32043L8.31226 2.08105L8.21252 2.22069L8.19922 2.30714L8.22582 2.32043Z" fill="#E9500F"/>
<path fill-rule="evenodd" clip-rule="evenodd" d="M8.75076 2.30762H8.70417L8.60449 2.44723C8.72418 2.36079 8.63107 2.4539 8.75076 2.30762Z" fill="#E9500F"/>
<path fill-rule="evenodd" clip-rule="evenodd" d="M8.50006 2.27441H8.4579C8.46391 2.33458 8.42785 2.32255 8.50006 2.27441Z" fill="#E9500F"/>
<path fill-rule="evenodd" clip-rule="evenodd" d="M18.0005 7.2147L17.9341 7.1748L17.8809 7.34104L18.0005 7.2147Z" fill="#E9500F"/>
<path fill-rule="evenodd" clip-rule="evenodd" d="M18.1727 7.49407C18.1727 7.30789 18.1726 7.30124 18.0662 7.24805C17.9067 7.46748 18.1527 7.47413 18.1727 7.49407Z" fill="#E9500F"/>
<path fill-rule="evenodd" clip-rule="evenodd" d="M18.2724 7.54007L18.299 7.36719L18.1992 7.50018L18.2059 7.59992L18.2724 7.54007Z" fill="#E9500F"/>
<path fill-rule="evenodd" clip-rule="evenodd" d="M7.60016 3.02539C7.493 3.08738 7.39464 3.16339 7.30762 3.25145C7.42749 3.21057 7.53036 3.13107 7.60016 3.02539Z" fill="#E9500F"/>
<path fill-rule="evenodd" clip-rule="evenodd" d="M7.10156 3.11856V3.21832C7.19901 3.15579 7.2755 3.06544 7.32105 2.95898L7.13484 3.04543L7.10156 3.11856Z" fill="#E9500F"/>
<path fill-rule="evenodd" clip-rule="evenodd" d="M6.27734 3.56395L6.37702 3.43092L6.25737 3.37109C6.25072 3.55728 6.25739 3.43761 6.27734 3.56395Z" fill="#E9500F"/>
<path fill-rule="evenodd" clip-rule="evenodd" d="M5.64483 4.3623C5.4254 4.51524 5.39209 4.44875 5.2458 4.3623L5.18606 4.42213L5.13281 4.58171C5.31235 4.6881 5.4387 4.66818 5.64483 4.3623Z" fill="#E9500F"/>
<path fill-rule="evenodd" clip-rule="evenodd" d="M4.66819 4.2354L4.59505 4.20215L4.50195 4.33514L4.62829 4.30854L4.66819 4.2354Z" fill="#E9500F"/>
<path fill-rule="evenodd" clip-rule="evenodd" d="M4.70834 4.2627C4.6751 4.46218 4.70841 4.40903 4.7749 4.47552C4.8015 4.30264 4.79479 4.33584 4.70834 4.2627Z" fill="#E9500F"/>
<path fill-rule="evenodd" clip-rule="evenodd" d="M4.38838 4.37522L4.24211 4.20898C4.20886 4.44836 4.26204 4.34862 4.38838 4.37522Z" fill="#E9500F"/>
<path fill-rule="evenodd" clip-rule="evenodd" d="M5.16694 4.86001L5.24008 4.71372L5.17359 4.67383L5.06055 4.89991L5.16694 4.86001Z" fill="#E9500F"/>
<path fill-rule="evenodd" clip-rule="evenodd" d="M44.9102 26.9501L44.9501 26.7705C44.8969 26.9301 44.9235 26.8171 44.9102 26.9501Z" fill="#E9500F"/>
<path fill-rule="evenodd" clip-rule="evenodd" d="M4.06934 5.41973L4.13583 5.45962L4.14248 5.27344L4.06934 5.41973Z" fill="#E9500F"/>
<path fill-rule="evenodd" clip-rule="evenodd" d="M5.62564 6.58232L5.66558 6.50918L5.46606 6.31641C5.27323 6.53584 5.5392 6.54242 5.62564 6.58232Z" fill="#E9500F"/>
<path fill-rule="evenodd" clip-rule="evenodd" d="M4.91421 6.21776L4.81447 6.07812L4.3623 6.68323L4.91421 6.21776Z" fill="#E9500F"/>
<path fill-rule="evenodd" clip-rule="evenodd" d="M5.10676 6.41016L5.01367 6.82907L5.12006 6.60299L5.10676 6.41016Z" fill="#E9500F"/>
<path fill-rule="evenodd" clip-rule="evenodd" d="M4.70084 7.042L4.98677 6.53664L4.82053 6.4502L4.6543 7.0154L4.67425 7.0287L4.70084 7.042Z" fill="#E9500F"/>
<path fill-rule="evenodd" clip-rule="evenodd" d="M5.09365 6.77553L5.05371 6.84867C5.05371 7.0814 5.10031 7.01491 5.27319 6.84867L5.31313 6.77553L5.23326 6.64258L5.09365 6.77553Z" fill="#E9500F"/>
<path fill-rule="evenodd" clip-rule="evenodd" d="M36.2732 23.4865L36.2001 23.3535L36.127 23.5995L36.2732 23.4865Z" fill="#E9500F"/>
<path fill-rule="evenodd" clip-rule="evenodd" d="M43.0953 27.3294L43.0022 27.2695C42.9556 27.4424 42.9623 27.356 43.0022 27.4757L43.0953 27.3294Z" fill="#E9500F"/>
<path fill-rule="evenodd" clip-rule="evenodd" d="M37.0446 24.2974L37.151 24.1644L37.0978 24.0381L36.998 24.1711L37.0446 24.2974Z" fill="#E9500F"/>
<path fill-rule="evenodd" clip-rule="evenodd" d="M42.8758 27.6819L42.9622 27.5423L42.8691 27.4824L42.8758 27.6819Z" fill="#E9500F"/>
<path fill-rule="evenodd" clip-rule="evenodd" d="M37.8554 24.949L37.9618 24.8161L37.6093 24.5234C37.5628 24.8426 37.7357 24.8759 37.8554 24.949Z" fill="#E9500F"/>
<path fill-rule="evenodd" clip-rule="evenodd" d="M38.0413 25.1347L38.0812 25.0616L38.048 24.8555L37.9482 24.9885L38.0413 25.1347Z" fill="#E9500F"/>
<path fill-rule="evenodd" clip-rule="evenodd" d="M38.0879 25.2546C38.1876 24.982 38.1478 25.1748 38.1411 25.002L38.0879 25.2546Z" fill="#E9500F"/>
<path fill-rule="evenodd" clip-rule="evenodd" d="M43.0557 28.3934L43.202 28.3867L43.2485 28.42L43.295 28.3469L43.3416 28.2804L43.2419 28.2139L43.1488 28.2538L43.0557 28.3934Z" fill="#E9500F"/>
<path fill-rule="evenodd" clip-rule="evenodd" d="M41.7059 27.6419L41.5463 27.4424L41.3867 27.5488C41.3867 27.7749 41.4598 27.7549 41.5995 27.7682L41.7059 27.6419Z" fill="#E9500F"/>
<path fill-rule="evenodd" clip-rule="evenodd" d="M41.0802 27.6484H41.0337L40.9473 27.788C41.047 27.7216 40.9672 27.7681 41.0802 27.6484Z" fill="#E9500F"/>
<path fill-rule="evenodd" clip-rule="evenodd" d="M40.502 27.6955L40.5086 27.7886L40.6083 27.5625L40.502 27.6955Z" fill="#E9500F"/>
<path fill-rule="evenodd" clip-rule="evenodd" d="M40.8809 28.5928L41.1269 28.4532L41.1668 28.2803L40.9208 28.4266L40.8809 28.5928Z" fill="#E9500F"/>
<path fill-rule="evenodd" clip-rule="evenodd" d="M41.1796 28.5721C41.2261 28.4059 41.1796 28.5256 41.1796 28.3926L41.1396 28.5588L41.1796 28.5721Z" fill="#E9500F"/>
<path fill-rule="evenodd" clip-rule="evenodd" d="M41.4658 28.9524L41.5057 28.7861C41.4828 28.8388 41.4693 28.8951 41.4658 28.9524Z" fill="#E9500F"/>
<path fill-rule="evenodd" clip-rule="evenodd" d="M41.5394 28.9914L41.5793 28.8252L41.4463 29.038L41.5394 28.9914Z" fill="#E9500F"/>
<path fill-rule="evenodd" clip-rule="evenodd" d="M41.626 29.1504V29.2634C41.6623 29.1839 41.6827 29.0981 41.6858 29.0107L41.626 29.1504Z" fill="#E9500F"/>
<path fill-rule="evenodd" clip-rule="evenodd" d="M42.5702 29.7692L42.6234 29.6961L42.5503 29.5498C42.5104 29.716 42.5103 29.6628 42.5702 29.7692Z" fill="#E9500F"/>
<path fill-rule="evenodd" clip-rule="evenodd" d="M42.8095 29.8231L42.6898 29.6436L42.5967 29.8829L42.8095 29.8231Z" fill="#E9500F"/>
<path fill-rule="evenodd" clip-rule="evenodd" d="M42.5964 30.5938H42.5499C42.5433 30.6536 42.51 30.6336 42.5964 30.5938Z" fill="#E9500F"/>
<path fill-rule="evenodd" clip-rule="evenodd" d="M1.76855 9.18261L2.08108 9.2491L2.17417 9.10946L2.04118 9.04297L1.76855 9.18261Z" fill="#E9500F"/>
<path fill-rule="evenodd" clip-rule="evenodd" d="M2.04785 9.41554C2.14759 9.33575 2.04797 9.41559 2.16766 9.2959H2.12107L2.04785 9.41554Z" fill="#E9500F"/>
<path fill-rule="evenodd" clip-rule="evenodd" d="M1.37012 9.44865L1.51641 9.33561L1.42331 9.28906L1.37012 9.44865Z" fill="#E9500F"/>
<path fill-rule="evenodd" clip-rule="evenodd" d="M3.17808 10.2666L2.87207 11.0446L2.90535 11.1509C3.0456 10.8737 3.13789 10.5747 3.17808 10.2666Z" fill="#E9500F"/>
<path fill-rule="evenodd" clip-rule="evenodd" d="M1.36931 9.72859C1.28952 9.96797 1.32952 9.81511 1.30957 9.9747C1.40931 9.86165 1.47574 9.82834 1.56883 9.73524L1.60876 9.66211H1.56217L1.36931 9.72859Z" fill="#E9500F"/>
<path fill-rule="evenodd" clip-rule="evenodd" d="M1.42969 11.6169C1.90845 11.3642 2.49357 10.6527 2.89253 10.7724C2.99893 10.4665 2.89253 10.6194 2.89253 10.4199L1.59592 11.3442L1.42969 11.6169Z" fill="#E9500F"/>
<path fill-rule="evenodd" clip-rule="evenodd" d="M2.32021 10.207L2.24707 10.3533L2.35346 10.3134L2.38671 10.2403L2.32021 10.207Z" fill="#E9500F"/>
<path fill-rule="evenodd" clip-rule="evenodd" d="M1.71482 10.8252L1.60849 10.6855C1.59519 10.8584 1.60178 10.7653 1.71482 10.8252Z" fill="#E9500F"/>
<path fill-rule="evenodd" clip-rule="evenodd" d="M2.0612 11.5629L2.13442 11.4166L2.04789 11.3701C2.01464 11.543 2.01466 11.4499 2.0612 11.5629Z" fill="#E9500F"/>
<path fill-rule="evenodd" clip-rule="evenodd" d="M1.26953 11.5371L1.41582 11.4241L1.36927 11.3975L1.26953 11.5371Z" fill="#E9500F"/>
<path fill-rule="evenodd" clip-rule="evenodd" d="M1.3764 12.2349C1.4695 12.0819 1.41635 12.195 1.42965 12.0753L1.64248 12.0021L1.67576 11.9224V11.7295L1.43631 11.7961L1.29004 12.0952C1.29004 12.2748 1.38313 12.0155 1.29004 12.3612L1.3764 12.2349Z" fill="#E9500F"/>
<path fill-rule="evenodd" clip-rule="evenodd" d="M1.73556 12.7861L1.59592 12.9989L1.42969 13.0987L1.8486 13.1253L1.73556 12.7861Z" fill="#E9500F"/>
<path fill-rule="evenodd" clip-rule="evenodd" d="M1.32996 13.2389L1.42963 13.0993L1.33661 13.0527L0.811281 13.3454L0.658356 13.5449L0.591797 13.7909L0.957549 13.977L0.711442 13.6645L0.784657 13.5182C1.03734 13.5049 1.11717 13.3254 1.32996 13.2389Z" fill="#E9500F"/>
<path fill-rule="evenodd" clip-rule="evenodd" d="M1.31646 13.6044L1.43611 13.4847L1.34974 13.252C1.323 13.3674 1.31179 13.486 1.31646 13.6044Z" fill="#E9500F"/>
<path fill-rule="evenodd" clip-rule="evenodd" d="M0 13.0268C0.0930923 12.947 -4.546e-05 13.0267 0.119645 12.9004H0.0730531L0 13.0268Z" fill="#E9500F"/>
<path fill-rule="evenodd" clip-rule="evenodd" d="M2.24074 14.3489V14.1494L2.12109 14.2758C2.12109 14.4154 2.12113 14.3954 2.16103 14.4819L2.24074 14.3489Z" fill="#E9500F"/>
<path fill-rule="evenodd" clip-rule="evenodd" d="M0.166016 13.9508L0.23916 13.984V13.7979L0.166016 13.9508Z" fill="#E9500F"/>
<path fill-rule="evenodd" clip-rule="evenodd" d="M1.66242 14.7021L1.55603 14.5625L1.42969 14.8684L1.62252 14.7753L1.66242 14.7021Z" fill="#E9500F"/>
<path fill-rule="evenodd" clip-rule="evenodd" d="M17.056 22.4948L16.9629 22.4482L17.0161 22.5679L17.056 22.4948Z" fill="#E9500F"/>
<path fill-rule="evenodd" clip-rule="evenodd" d="M24.962 27.2028C25.0522 27.0944 25.1261 26.9735 25.1814 26.8438C24.9619 27.01 24.9154 26.8438 24.7891 26.8438L24.7492 26.9169C24.7226 27.0898 24.829 27.1562 24.962 27.2028Z" fill="#E9500F"/>
<path fill-rule="evenodd" clip-rule="evenodd" d="M25.1482 27.0168L25.0352 27.2363C25.1881 27.3692 25.341 27.1631 25.5139 27.2363V27.1631L25.3743 26.9902C25.2213 27.1964 25.1748 27.1697 25.1482 27.0168Z" fill="#E9500F"/>
<path fill-rule="evenodd" clip-rule="evenodd" d="M0.838265 14.3828L0.605469 14.7286C0.720341 14.6379 0.823108 14.5329 0.911318 14.4161L0.838265 14.3828Z" fill="#E9500F"/>
<path fill-rule="evenodd" clip-rule="evenodd" d="M1.34997 14.9148L1.32337 14.6289L1.22363 14.7619L1.23028 15.0412L1.25023 15.0545L1.34997 14.9148Z" fill="#E9500F"/>
<path fill-rule="evenodd" clip-rule="evenodd" d="M24.4102 26.718H24.4766C24.5431 26.8111 24.5165 26.8177 24.6894 26.6449L24.5099 26.5518L24.4102 26.718Z" fill="#E9500F"/>
<path fill-rule="evenodd" clip-rule="evenodd" d="M24.5762 26.8975L24.6626 26.9441L24.7624 26.8111L24.8023 26.738L24.7158 26.6914L24.5762 26.8975Z" fill="#E9500F"/>
<path fill-rule="evenodd" clip-rule="evenodd" d="M25.321 27.2954C25.3046 27.373 25.3075 27.4535 25.3294 27.5298C25.3513 27.606 25.3917 27.6758 25.4468 27.7329C25.5019 27.79 25.5702 27.8327 25.6456 27.8573C25.7211 27.8819 25.8014 27.8875 25.8796 27.8739L26.0192 27.6678C25.8264 27.3951 25.6735 27.4151 25.4008 27.2422L25.321 27.2954Z" fill="#E9500F"/>
<path fill-rule="evenodd" clip-rule="evenodd" d="M23.6914 26.8105L23.8842 26.7241L23.8709 26.5312L23.6914 26.8105Z" fill="#E9500F"/>
<path fill-rule="evenodd" clip-rule="evenodd" d="M23.958 26.8574L24.0311 26.6113C23.9447 26.8175 23.9647 26.6778 23.958 26.8574Z" fill="#E9500F"/>
<path fill-rule="evenodd" clip-rule="evenodd" d="M26.3652 27.8477L26.4916 28.1003L26.5315 28.0272L26.3652 27.8477Z" fill="#E9500F"/>
<path fill-rule="evenodd" clip-rule="evenodd" d="M24.2972 27.3153C24.2241 27.2554 24.2241 27.3153 24.3637 27.0692C24.0911 27.0692 24.0512 27.0692 24.0579 26.7168L23.905 27.016L23.6323 26.8697C23.5725 27.1889 24.1443 27.4549 24.2972 27.3153Z" fill="#E9500F"/>
<path fill-rule="evenodd" clip-rule="evenodd" d="M24.3102 26.851L24.2637 26.8311L24.124 27.0372L24.1506 27.0505L24.2703 26.9241L24.3102 26.851Z" fill="#E9500F"/>
<path fill-rule="evenodd" clip-rule="evenodd" d="M24.4498 27.0566L24.39 27.1165L24.2969 27.3492L24.3435 27.4689C24.4115 27.342 24.4479 27.2006 24.4498 27.0566Z" fill="#E9500F"/>
<path fill-rule="evenodd" clip-rule="evenodd" d="M24.4639 27.2162L24.5836 27.3758L24.6235 27.3026L24.5902 27.0898L24.4639 27.2162Z" fill="#E9500F"/>
<path fill-rule="evenodd" clip-rule="evenodd" d="M24.616 27.4827L24.7091 27.25L24.6094 27.383L24.616 27.4827Z" fill="#E9500F"/>
<path fill-rule="evenodd" clip-rule="evenodd" d="M0.551758 15.0748L0.658149 15.0349L0.691396 14.9618L0.624902 14.9219L0.551758 15.0748Z" fill="#E9500F"/>
<path fill-rule="evenodd" clip-rule="evenodd" d="M5.08008 17.5611L5.18647 17.5212L5.22637 17.4481L5.15987 17.4082L5.08008 17.5611Z" fill="#E9500F"/>
<path fill-rule="evenodd" clip-rule="evenodd" d="M0.924324 15.3535L0.738139 15.4466L0.698242 15.5198L0.751438 15.6394L0.937622 15.4533L0.924324 15.3535Z" fill="#E9500F"/>
<path fill-rule="evenodd" clip-rule="evenodd" d="M1.17051 15.6664L1.05082 15.5068L0.87793 15.7928L1.12396 15.6398L1.17051 15.6664Z" fill="#E9500F"/>
<path fill-rule="evenodd" clip-rule="evenodd" d="M14.2835 22.6476L14.2103 22.5146C14.0241 22.8205 14.1571 22.6742 13.9775 22.9601L14.0108 23.0665C14.2701 22.8537 14.0042 23.0665 14.2835 22.6476Z" fill="#E9500F"/>
<path fill-rule="evenodd" clip-rule="evenodd" d="M14.0504 22.7147V22.5352C13.9174 22.7147 14.0038 22.6416 14.0504 22.7147Z" fill="#E9500F"/>
<path fill-rule="evenodd" clip-rule="evenodd" d="M14.3162 23.0663L14.2764 23.1394V23.2392L14.3695 23.2857V23.0862C14.4626 23.0862 14.4293 23.0862 14.4493 23.2192L14.5489 23.0862V23.0131L14.4293 22.8535L14.3162 23.0663Z" fill="#E9500F"/>
<path fill-rule="evenodd" clip-rule="evenodd" d="M27.0958 29.457L26.9961 29.5967L27.0426 29.6166L27.0958 29.457Z" fill="#E9500F"/>
<path fill-rule="evenodd" clip-rule="evenodd" d="M0.618438 16.0189L0.658373 15.9458L0.465513 15.7529C0.25938 16.1918 0.432253 16.0123 0.618438 16.0189Z" fill="#E9500F"/>
<path fill-rule="evenodd" clip-rule="evenodd" d="M8.89746 20.2543C8.9972 20.1745 8.89742 20.2543 9.02376 20.1279H8.97733L8.89746 20.2543Z" fill="#E9500F"/>
<path fill-rule="evenodd" clip-rule="evenodd" d="M9.10365 20.3608V20.168C8.93077 20.3608 9.04381 20.301 9.10365 20.3608Z" fill="#E9500F"/>
<path fill-rule="evenodd" clip-rule="evenodd" d="M9.31566 20.2812L9.21582 20.4209C9.30891 20.3411 9.26246 20.3477 9.31566 20.2812Z" fill="#E9500F"/>
<path fill-rule="evenodd" clip-rule="evenodd" d="M9.42229 20.5206L9.46223 20.4475L9.38901 20.3145C9.35577 20.494 9.3558 20.4076 9.42229 20.5206Z" fill="#E9500F"/>
<path fill-rule="evenodd" clip-rule="evenodd" d="M9.50879 20.4739L9.63513 20.6268L9.66837 20.5537L9.70827 20.4805L9.64178 20.4473L9.50879 20.4739Z" fill="#E9500F"/>
<path fill-rule="evenodd" clip-rule="evenodd" d="M14.2763 22.834V23.0069C14.283 22.8473 14.2697 22.9603 14.2763 22.834Z" fill="#E9500F"/>
<path fill-rule="evenodd" clip-rule="evenodd" d="M25.4404 28.8656C25.5402 28.7858 25.4405 28.8656 25.5668 28.7393H25.5202L25.4404 28.8656Z" fill="#E9500F"/>
<path fill-rule="evenodd" clip-rule="evenodd" d="M10.7585 21.2983L10.825 21.2384L10.5391 20.999L10.7585 21.2983Z" fill="#E9500F"/>
<path fill-rule="evenodd" clip-rule="evenodd" d="M10.8984 21.3709L11.058 21.4507L11.0979 21.3775L11.1378 21.3044L10.9716 21.2246L10.8984 21.3709Z" fill="#E9500F"/>
<path fill-rule="evenodd" clip-rule="evenodd" d="M11.3773 21.6169L11.1778 21.3311C11.1445 21.5305 11.2576 21.577 11.3773 21.6169Z" fill="#E9500F"/>
<path fill-rule="evenodd" clip-rule="evenodd" d="M13 22.4548C13.113 22.3949 13 22.4548 13.1396 22.3418H13.0998L13 22.4548Z" fill="#E9500F"/>
<path fill-rule="evenodd" clip-rule="evenodd" d="M13.1123 22.5144C13.1123 22.6607 13.2253 22.5144 13.2586 22.4014L13.1123 22.5144Z" fill="#E9500F"/>
<path fill-rule="evenodd" clip-rule="evenodd" d="M13.3386 22.628L13.3784 22.5548L13.2986 22.4219C13.2521 22.5948 13.2521 22.5415 13.3386 22.628Z" fill="#E9500F"/>
<path fill-rule="evenodd" clip-rule="evenodd" d="M13.7049 22.8213L13.7448 22.7482L13.4589 22.5088C13.4256 22.7216 13.5719 22.7814 13.7049 22.8213Z" fill="#E9500F"/>
<path fill-rule="evenodd" clip-rule="evenodd" d="M0.758274 16.1987L0.705078 16.3583L0.811469 16.3184L0.838067 16.1455L0.758274 16.1987Z" fill="#E9500F"/>
<path fill-rule="evenodd" clip-rule="evenodd" d="M11.4897 21.6773L11.5296 21.6042L11.4365 21.5576L11.4897 21.6773Z" fill="#E9500F"/>
<path fill-rule="evenodd" clip-rule="evenodd" d="M11.6162 21.8299L11.7492 21.903L11.7891 21.8299L11.6894 21.6836L11.6162 21.8299Z" fill="#E9500F"/>
<path fill-rule="evenodd" clip-rule="evenodd" d="M11.7764 21.9168L11.8828 21.8769L11.9227 21.8038L11.8495 21.7705L11.7764 21.9168Z" fill="#E9500F"/>
<path fill-rule="evenodd" clip-rule="evenodd" d="M11.8623 21.9631L11.9354 21.9963L11.962 21.8301L11.8623 21.9631Z" fill="#E9500F"/>
<path fill-rule="evenodd" clip-rule="evenodd" d="M12.0488 22.056C12.1419 21.9762 12.0489 22.056 12.1686 21.9297H12.122L12.0488 22.056Z" fill="#E9500F"/>
<path fill-rule="evenodd" clip-rule="evenodd" d="M14.6751 23.2266L14.4756 23.3995C15.0142 23.692 15.3799 24.2439 15.8919 24.2306L15.9917 24.0977C15.5927 23.8384 15.0674 23.8782 14.6751 23.2266Z" fill="#E9500F"/>
<path fill-rule="evenodd" clip-rule="evenodd" d="M27.0031 29.6895L26.9033 29.8224L26.9698 29.8623L27.0031 29.6895Z" fill="#E9500F"/>
<path fill-rule="evenodd" clip-rule="evenodd" d="M0.133235 15.8857V16.0586C0.146534 15.899 0.126585 16.0121 0.133235 15.8857Z" fill="#E9500F"/>
<path fill-rule="evenodd" clip-rule="evenodd" d="M1.90785 16.8759L1.94778 16.8027H1.87457C1.83467 16.969 1.85465 16.8027 1.90785 16.8759Z" fill="#E9500F"/>
<path fill-rule="evenodd" clip-rule="evenodd" d="M25.8863 29.3901V29.1973C25.74 29.3901 25.8863 29.3369 25.8863 29.3901Z" fill="#E9500F"/>
<path fill-rule="evenodd" clip-rule="evenodd" d="M26.9502 29.9495C27.0499 29.8698 26.9502 29.9496 27.0699 29.8232H27.03L26.9502 29.9495Z" fill="#E9500F"/>
<path fill-rule="evenodd" clip-rule="evenodd" d="M3.53105 17.8868V17.7139C3.51775 17.8735 3.5377 17.7471 3.53105 17.8868Z" fill="#E9500F"/>
<path fill-rule="evenodd" clip-rule="evenodd" d="M3.83008 18.0338C3.92317 17.954 3.83003 18.0338 3.94972 17.9141H3.90313L3.83008 18.0338Z" fill="#E9500F"/>
<path fill-rule="evenodd" clip-rule="evenodd" d="M3.98926 18.1195L4.23529 18.1528L4.10895 17.9932L3.98926 18.1195Z" fill="#E9500F"/>
<path fill-rule="evenodd" clip-rule="evenodd" d="M16.2376 24.3968V24.3236L16.118 24.1641C15.9783 24.3968 16.1578 24.3968 16.2376 24.3968Z" fill="#E9500F"/>
<path fill-rule="evenodd" clip-rule="evenodd" d="M16.5769 24.5965V24.417C16.4572 24.6431 16.537 24.5234 16.5769 24.5965Z" fill="#E9500F"/>
<path fill-rule="evenodd" clip-rule="evenodd" d="M25.5869 29.3104L25.6933 29.2705L25.7332 29.1973L25.6601 29.1641L25.5869 29.3104Z" fill="#E9500F"/>
<path fill-rule="evenodd" clip-rule="evenodd" d="M8.6709 20.6004L8.73739 20.6336L8.74404 20.4541L8.6709 20.6004Z" fill="#E9500F"/>
<path fill-rule="evenodd" clip-rule="evenodd" d="M20.9519 26.957L20.7059 27.2031L20.666 27.2762C20.7724 27.5621 21.0517 27.5754 21.331 27.5156L21.2777 27.6153L21.3509 27.6486V27.509L21.6568 27.4358L21.5172 27.6486C21.5837 27.6486 21.7632 27.4691 21.9294 27.5821L22.089 27.3826L21.7033 27.1831L20.9519 26.957Z" fill="#E9500F"/>
<path fill-rule="evenodd" clip-rule="evenodd" d="M23.8916 28.5866C24.0379 28.4935 23.8916 28.6398 24.0711 28.4004H24.0312L23.8916 28.5866Z" fill="#E9500F"/>
<path fill-rule="evenodd" clip-rule="evenodd" d="M24.3441 28.7523L24.2643 28.5195C24.0914 28.7323 24.2709 28.7124 24.3441 28.7523Z" fill="#E9500F"/>
<path fill-rule="evenodd" clip-rule="evenodd" d="M24.5361 28.945L24.6957 28.7455L24.6558 28.7256L24.5361 28.945Z" fill="#E9500F"/>
<path fill-rule="evenodd" clip-rule="evenodd" d="M2.72659 17.4746L2.4873 17.7273L2.63357 17.8935C2.69667 17.7707 2.75218 17.6442 2.79981 17.5145L2.72659 17.4746Z" fill="#E9500F"/>
<path fill-rule="evenodd" clip-rule="evenodd" d="M2.94605 17.6801L2.83301 17.8996L2.94605 17.9594L2.98594 17.8863L3.02584 17.627L2.94605 17.6801Z" fill="#E9500F"/>
<path fill-rule="evenodd" clip-rule="evenodd" d="M22.5283 27.9743L22.5549 27.9876L22.648 27.7549L22.5283 27.9743Z" fill="#E9500F"/>
<path fill-rule="evenodd" clip-rule="evenodd" d="M23.7315 28.3272L23.5918 28.2607L23.4521 28.4668C23.5718 28.4801 23.5785 28.4935 23.7315 28.3272Z" fill="#E9500F"/>
<path fill-rule="evenodd" clip-rule="evenodd" d="M23.7848 28.5467V28.3672C23.6452 28.5467 23.7449 28.4736 23.7848 28.5467Z" fill="#E9500F"/>
<path fill-rule="evenodd" clip-rule="evenodd" d="M22.7412 28.1806L22.9207 28.2737L22.9606 28.2006L22.8077 27.9346L22.7412 28.1806Z" fill="#E9500F"/>
<path fill-rule="evenodd" clip-rule="evenodd" d="M23.0799 28.0801L22.9668 28.2995L23.0333 28.3328C23.0626 28.2517 23.0783 28.1663 23.0799 28.0801Z" fill="#E9500F"/>
<path fill-rule="evenodd" clip-rule="evenodd" d="M23.0742 28.2599L23.2006 28.24L23.2405 28.1602L23.174 28.127L23.0742 28.2599Z" fill="#E9500F"/>
<path fill-rule="evenodd" clip-rule="evenodd" d="M23.1865 28.3195L23.3129 28.2929L23.3528 28.2198L23.2863 28.1865L23.1865 28.3195Z" fill="#E9500F"/>
<path fill-rule="evenodd" clip-rule="evenodd" d="M0.272461 16.697L0.365553 16.7435L0.438697 16.5972L0.385502 16.4775L0.272461 16.697Z" fill="#E9500F"/>
<path fill-rule="evenodd" clip-rule="evenodd" d="M16.1914 24.6631L16.5172 24.9291L16.4374 24.6963L16.1914 24.6631Z" fill="#E9500F"/>
<path fill-rule="evenodd" clip-rule="evenodd" d="M18.9512 26.1919C19.0443 26.1121 18.9512 26.192 19.0709 26.0723H19.0244L18.9512 26.1919Z" fill="#E9500F"/>
<path fill-rule="evenodd" clip-rule="evenodd" d="M19.1773 26.3124V26.1328C19.0376 26.3123 19.1307 26.2392 19.1773 26.3124Z" fill="#E9500F"/>
<path fill-rule="evenodd" clip-rule="evenodd" d="M20.0285 26.5713L19.9287 26.7043L19.9354 26.804L20.0285 26.5713Z" fill="#E9500F"/>
<path fill-rule="evenodd" clip-rule="evenodd" d="M22.3154 28.0542L22.4418 27.9279L22.362 27.7949L22.3154 28.0542Z" fill="#E9500F"/>
<path fill-rule="evenodd" clip-rule="evenodd" d="M0.499161 16.81V16.6172C0.326276 16.8167 0.439316 16.7568 0.499161 16.81Z" fill="#E9500F"/>
<path fill-rule="evenodd" clip-rule="evenodd" d="M3.27847 18.0469L3.21191 18.2929C3.31831 18.0602 3.27847 18.2065 3.27847 18.0469Z" fill="#E9500F"/>
<path fill-rule="evenodd" clip-rule="evenodd" d="M16.6772 25.0084L16.7171 24.9352L16.624 24.8887L16.6772 25.0084Z" fill="#E9500F"/>
<path fill-rule="evenodd" clip-rule="evenodd" d="M19.3559 26.3115L19.3027 26.4711L19.4224 26.3448L19.3559 26.3115Z" fill="#E9500F"/>
<path fill-rule="evenodd" clip-rule="evenodd" d="M19.8024 26.7309L19.8423 26.6578L19.7891 26.5381L19.8024 26.7309Z" fill="#E9500F"/>
<path fill-rule="evenodd" clip-rule="evenodd" d="M21.7969 27.7746L21.9232 27.748L21.9631 27.6815L21.8966 27.6416L21.7969 27.7746Z" fill="#E9500F"/>
<path fill-rule="evenodd" clip-rule="evenodd" d="M20.1675 27.0164V26.8369C20.0279 27.0165 20.121 26.9432 20.1675 27.0164Z" fill="#E9500F"/>
<path fill-rule="evenodd" clip-rule="evenodd" d="M20.4004 27.1369L20.4868 27.1834L20.4735 27.2699L20.5334 27.21L20.4935 27.0039L20.4004 27.1369Z" fill="#E9500F"/>
<path fill-rule="evenodd" clip-rule="evenodd" d="M21.3916 27.6615C21.4913 27.5817 21.3916 27.6615 21.518 27.5352H21.4714L21.3916 27.6615Z" fill="#E9500F"/>
<path fill-rule="evenodd" clip-rule="evenodd" d="M17.2422 25.5737C17.3353 25.4939 17.2422 25.5736 17.3619 25.4473H17.3153L17.2422 25.5737Z" fill="#E9500F"/>
<path fill-rule="evenodd" clip-rule="evenodd" d="M20.2676 27.1631L20.3873 27.0368L20.3008 26.9902L20.2676 27.1631Z" fill="#E9500F"/>
<path fill-rule="evenodd" clip-rule="evenodd" d="M3.02539 18.3724C3.11848 18.2926 3.02535 18.3724 3.14504 18.2461H3.09844L3.02539 18.3724Z" fill="#E9500F"/>
<path fill-rule="evenodd" clip-rule="evenodd" d="M10.5864 22.1431L10.6263 22.07L10.5332 22.0234L10.5864 22.1431Z" fill="#E9500F"/>
<path fill-rule="evenodd" clip-rule="evenodd" d="M10.9114 22.3091L10.9447 22.236L10.8516 22.1895L10.9114 22.3091Z" fill="#E9500F"/>
<path fill-rule="evenodd" clip-rule="evenodd" d="M11.2842 22.5942L11.4039 22.4678L11.3374 22.4346L11.2842 22.5942Z" fill="#E9500F"/>
<path fill-rule="evenodd" clip-rule="evenodd" d="M31.0668 33.0212L30.9737 32.9746L30.9404 33.1408L31.0668 33.0212Z" fill="#E9500F"/>
<path fill-rule="evenodd" clip-rule="evenodd" d="M18.7646 26.9371L18.8644 27.0834L18.9043 27.0102L18.9176 26.6445L18.7646 26.9371Z" fill="#E9500F"/>
<path fill-rule="evenodd" clip-rule="evenodd" d="M27.9678 31.7185L28.1274 31.519L28.0875 31.499L27.9678 31.7185Z" fill="#E9500F"/>
<path fill-rule="evenodd" clip-rule="evenodd" d="M17.9873 26.4379L18.107 26.3182L18.0405 26.2783L17.9873 26.4379Z" fill="#E9500F"/>
<path fill-rule="evenodd" clip-rule="evenodd" d="M19.2107 27.0765L19.2506 27.0034L19.0645 26.8105L19.2107 27.0765Z" fill="#E9500F"/>
<path fill-rule="evenodd" clip-rule="evenodd" d="M32.0703 34.0522L32.1568 34.0988L32.2365 33.8594L32.0703 34.0522Z" fill="#E9500F"/>
<path fill-rule="evenodd" clip-rule="evenodd" d="M18.2266 26.4717L18.3995 26.751C18.4084 26.7213 18.4109 26.69 18.4068 26.6592C18.4028 26.6284 18.3922 26.5988 18.3758 26.5724C18.3595 26.546 18.3378 26.5234 18.312 26.506C18.2863 26.4886 18.2572 26.477 18.2266 26.4717Z" fill="#E9500F"/>
<path fill-rule="evenodd" clip-rule="evenodd" d="M33.128 34.457L33.0483 34.5035L32.9219 34.7164C33.0205 34.6533 33.1063 34.5721 33.1746 34.477L33.128 34.457Z" fill="#E9500F"/>
<path fill-rule="evenodd" clip-rule="evenodd" d="M36.1335 36.1865H36.0936C36.0869 36.253 36.0537 36.2397 36.1335 36.1865Z" fill="#E9500F"/>
<path fill-rule="evenodd" clip-rule="evenodd" d="M19.5889 27.4627L19.7551 27.363L19.6687 27.3164L19.5889 27.4627Z" fill="#E9500F"/>
<path fill-rule="evenodd" clip-rule="evenodd" d="M19.855 27.5093L19.8948 27.4362L19.8018 27.3896L19.855 27.5093Z" fill="#E9500F"/>
<path fill-rule="evenodd" clip-rule="evenodd" d="M32.4893 34.3707C32.5823 34.2976 32.4892 34.3707 32.6089 34.251H32.569L32.4893 34.3707Z" fill="#E9500F"/>
<path fill-rule="evenodd" clip-rule="evenodd" d="M33.0342 34.7829L33.0541 34.7962L33.1605 34.5635L33.0342 34.7829Z" fill="#E9500F"/>
<path fill-rule="evenodd" clip-rule="evenodd" d="M33.6997 35.0361L33.6133 35.0826C33.6399 35.1757 33.6465 35.1226 33.6997 35.0361Z" fill="#E9500F"/>
<path fill-rule="evenodd" clip-rule="evenodd" d="M23.0273 29.5494L23.0606 29.6624L23.2002 29.5494L23.1537 29.4297L23.0273 29.5494Z" fill="#E9500F"/>
<path fill-rule="evenodd" clip-rule="evenodd" d="M33.9583 35.3018L33.8984 35.4613L34.0248 35.3417L33.9583 35.3018Z" fill="#E9500F"/>
<path fill-rule="evenodd" clip-rule="evenodd" d="M24.0713 30.4812L24.2508 30.5743L24.2907 30.5012L24.2109 30.3682L24.0713 30.4812Z" fill="#E9500F"/>
<path fill-rule="evenodd" clip-rule="evenodd" d="M24.6157 30.96L24.7154 30.827L24.5825 30.7539C24.5559 30.9268 24.5558 30.8669 24.6157 30.96Z" fill="#E9500F"/>
<path fill-rule="evenodd" clip-rule="evenodd" d="M25.2617 31.485L25.3881 31.3653L25.3216 31.332L25.2617 31.485Z" fill="#E9500F"/>
<path fill-rule="evenodd" clip-rule="evenodd" d="M25.8794 32.0045L25.9193 31.9313L25.8262 31.8848L25.8794 32.0045Z" fill="#E9500F"/>
<path fill-rule="evenodd" clip-rule="evenodd" d="M26.6571 32.8018L26.6969 32.7286V32.5225C26.6105 32.7352 26.6105 32.6821 26.6571 32.8018Z" fill="#E9500F"/>
<path fill-rule="evenodd" clip-rule="evenodd" d="M27.3891 33.3804L27.429 33.3073L27.3359 33.2607L27.3891 33.3804Z" fill="#E9500F"/>
<path fill-rule="evenodd" clip-rule="evenodd" d="M27.6621 33.6193L27.7884 33.5994L27.8283 33.5262L27.7619 33.4863L27.6621 33.6193Z" fill="#E9500F"/>
<path fill-rule="evenodd" clip-rule="evenodd" d="M28.0407 33.9254L28.0806 33.8522L27.8545 33.6328L28.0407 33.9254Z" fill="#E9500F"/>
<path fill-rule="evenodd" clip-rule="evenodd" d="M28.5459 34.1982V34.3711C28.559 34.3142 28.559 34.2551 28.5459 34.1982Z" fill="#E9500F"/>
<path fill-rule="evenodd" clip-rule="evenodd" d="M28.6729 34.4504L28.8058 34.5235L28.8457 34.4504L28.7726 34.3174L28.6729 34.4504Z" fill="#E9500F"/>
<path fill-rule="evenodd" clip-rule="evenodd" d="M29.0976 34.8763L29.2039 34.843L29.2438 34.7699L29.0244 34.6436L29.0976 34.8763Z" fill="#E9500F"/>
<path fill-rule="evenodd" clip-rule="evenodd" d="M29.2843 34.79C29.2693 34.8547 29.2733 34.9224 29.2957 34.9848C29.3181 35.0473 29.358 35.1021 29.4107 35.1425L29.4506 35.0693C29.4595 35.0401 29.4623 35.0092 29.4586 34.9788C29.4549 34.9485 29.445 34.9192 29.4293 34.8929C29.4136 34.8666 29.3927 34.8438 29.3677 34.8261C29.3427 34.8084 29.3143 34.7961 29.2843 34.79Z" fill="#E9500F"/>
<path fill-rule="evenodd" clip-rule="evenodd" d="M29.6963 35.2951L29.8227 35.3683C29.8227 35.2286 29.8227 35.2552 29.8227 35.1621L29.6963 35.2951Z" fill="#E9500F"/>
<path fill-rule="evenodd" clip-rule="evenodd" d="M30.0283 35.5744L30.1613 35.6475L30.2012 35.5744L30.1281 35.4414L30.0283 35.5744Z" fill="#E9500F"/>
<path fill-rule="evenodd" clip-rule="evenodd" d="M31.6445 36.758L31.7975 37.0307L31.9039 36.9974L31.7709 36.7314L31.6445 36.758Z" fill="#E9500F"/>
<path fill-rule="evenodd" clip-rule="evenodd" d="M31.9571 36.9375L31.9238 37.1037C31.9837 36.9508 31.9704 37.0638 31.9571 36.9375Z" fill="#E9500F"/>
<path fill-rule="evenodd" clip-rule="evenodd" d="M32.0508 37.1769L32.217 37.0838L32.1572 37.0439L32.0508 37.1769Z" fill="#E9500F"/>
<path fill-rule="evenodd" clip-rule="evenodd" d="M32.1768 37.2505C32.2765 37.1707 32.1768 37.2505 32.3032 37.1309H32.2566L32.1768 37.2505Z" fill="#E9500F"/>
<path fill-rule="evenodd" clip-rule="evenodd" d="M32.2031 37.4571L32.4292 37.2975L32.3228 37.1445L32.2031 37.4571Z" fill="#E9500F"/>
<path fill-rule="evenodd" clip-rule="evenodd" d="M32.576 37.5696L32.6824 37.4433L32.5561 37.3701C32.5361 37.543 32.5361 37.4832 32.576 37.5696Z" fill="#E9500F"/>
<path fill-rule="evenodd" clip-rule="evenodd" d="M32.6885 37.6293L32.7284 37.6559L32.7882 37.5029L32.6885 37.6293Z" fill="#E9500F"/>
<path fill-rule="evenodd" clip-rule="evenodd" d="M32.8478 37.8217L32.9342 37.6821L32.8478 37.6289C32.8079 37.8018 32.8146 37.6953 32.8478 37.8217Z" fill="#E9500F"/>
<path fill-rule="evenodd" clip-rule="evenodd" d="M32.8682 37.8355C32.9679 37.7557 32.8681 37.8355 32.9945 37.7158H32.9546L32.8682 37.8355Z" fill="#E9500F"/>
<path fill-rule="evenodd" clip-rule="evenodd" d="M33.0342 37.835C33.0342 38.1741 33.2403 38.1807 33.4265 38.2539C33.4797 37.9347 33.2004 37.9148 33.0342 37.835Z" fill="#E9500F"/>
<path fill-rule="evenodd" clip-rule="evenodd" d="M33.9189 38.8262C33.9788 38.4937 33.6463 38.3209 33.5067 38.2012C33.4857 38.2696 33.4801 38.3418 33.4903 38.4126C33.5005 38.4834 33.5261 38.5511 33.5655 38.6108C33.6049 38.6706 33.657 38.7209 33.7181 38.7581C33.7792 38.7953 33.8478 38.8186 33.9189 38.8262Z" fill="#E9500F"/>
<path fill-rule="evenodd" clip-rule="evenodd" d="M33.9521 38.9455L34.0719 39.0119C34.0719 38.8789 34.0719 38.8989 34.0719 38.8125L33.9521 38.9455Z" fill="#E9500F"/>
<path fill-rule="evenodd" clip-rule="evenodd" d="M34.0518 39.0987L34.105 39.225L34.2246 39.1054L34.198 38.8926L34.0518 39.0987Z" fill="#E9500F"/>
<path fill-rule="evenodd" clip-rule="evenodd" d="M34.3248 39.3577L34.3714 39.2912L34.265 39.125C34.2251 39.2513 34.2716 39.2846 34.3248 39.3577Z" fill="#E9500F"/>
<path fill-rule="evenodd" clip-rule="evenodd" d="M34.6835 39.3848H34.5505C34.4574 39.6773 34.7433 39.7239 34.8763 39.7837L34.9827 39.6507C34.8298 39.5908 34.75 39.5643 34.6835 39.3848Z" fill="#E9500F"/>
</g>
<defs>
<clipPath id="clip0_5108_46777">
<rect width="46" height="70" fill="white"/>
</clipPath>
</defs>
</svg>
