<svg width="58" height="70" viewBox="0 0 58 70" fill="none" xmlns="http://www.w3.org/2000/svg">
<g clip-path="url(#clip0_5108_47180)">
<path fill-rule="evenodd" clip-rule="evenodd" d="M57.4062 5.35676H57.4924L57.6582 4.95898L57.4062 5.05843V5.35676Z" fill="#E9500F"/>
<path fill-rule="evenodd" clip-rule="evenodd" d="M55.6618 6.69571H55.748C55.748 5.95983 56.1524 5.68802 56.6629 5.29688C56.2837 5.34211 55.9322 5.5179 55.6685 5.7941L55.4961 6.6427L55.6618 6.69571Z" fill="#E9500F"/>
<path fill-rule="evenodd" clip-rule="evenodd" d="M9.99751 0.304759C9.78117 0.360702 9.55604 0.374249 9.33455 0.344575C9.24662 0.46838 9.16903 0.59918 9.10253 0.735699H8.68487C8.81307 0.60286 8.94805 0.476766 9.08926 0.357847C8.92352 0.410884 8.75779 0.477193 8.59868 0.53686C8.43957 0.596526 8.59867 0.53686 8.34675 0.53686C8.11514 0.684541 7.91664 0.87855 7.76375 1.10675C7.61085 1.33496 7.50689 1.5924 7.45841 1.86278L7.16011 1.41857C6.97448 1.41857 6.60985 1.47827 6.25185 1.45838C6.27019 1.93248 6.18655 2.40496 6.00656 2.84395H6.34468V2.33346C6.38487 2.36294 6.41877 2.40012 6.44454 2.44279C6.47032 2.48546 6.4874 2.53277 6.4948 2.58207C6.50219 2.63136 6.4998 2.68165 6.48768 2.73C6.47556 2.77836 6.454 2.82387 6.42423 2.86386C6.53693 3.02297 6.48386 3.01629 6.21867 3.14888C6.21867 2.98977 6.25842 3.06931 6.10594 2.96324C6.03965 3.10246 6.10598 3.08259 5.98002 3.23507H6.47724C6.17228 3.54003 6.18554 3.54007 5.98002 3.76547C6.0662 4.03066 6.02645 3.95107 6.33804 3.89803L6.41096 4.76655L5.93357 4.93892L5.86729 5.04494L6.26505 4.88584H6.34468V6.21176C5.97342 6.21176 6.106 6.25154 5.92037 6.1322C5.77452 6.27143 5.8739 6.13219 5.85401 6.28467L5.80101 6.48359L6.19877 6.33112C6.21296 6.57347 6.17736 6.81613 6.09413 7.04418C6.01089 7.27223 5.88179 7.48082 5.71482 7.65704V7.71005C5.85477 7.66454 5.98672 7.59749 6.10594 7.51121C6.10594 7.80292 6.10594 7.92219 6.27168 8.11445L5.94684 8.20727L5.9071 7.87579H5.66181C5.569 9.65916 5.15129 11.8071 5.61536 13.2325L5.66181 12.9806C6.01318 13.1795 5.99329 15.5131 5.82755 15.712V15.8048H5.74136L5.62863 15.1418V15.0424C5.55467 15.2106 5.51646 15.3923 5.51646 15.5761C5.51646 15.7598 5.55467 15.9416 5.62863 16.1098L6.0132 15.891C6.2449 18.3554 6.68852 20.7953 7.33912 23.1835C7.23229 23.1942 7.12435 23.182 7.02261 23.1477C6.92087 23.1134 6.82765 23.0578 6.74907 22.9847L6.51697 22.8322C6.71586 22.8786 6.60985 22.8322 6.74907 22.9847C6.72952 22.2829 6.62483 21.5862 6.43742 20.9096L6.07284 19.0467L5.88719 18.9804L5.98665 19.3848H5.90047C5.18447 18.7682 5.98001 17.9263 5.80101 17.3495C5.80101 17.2368 5.86066 17.3031 5.70155 17.2633C5.6684 17.1307 5.58889 17.2103 5.83419 17.0843C5.94689 16.8854 5.89385 16.8589 5.83419 16.5738H5.75463C5.67508 16.7528 5.81428 16.7926 5.48943 16.9849L5.27724 17.1771H5.19105C5.2242 16.8656 5.36347 16.7794 5.48943 16.5142L5.16459 16.5738C5.40989 15.4203 4.93915 14.1938 4.72038 13.259L5.13805 13.2988C4.58779 11.6414 4.97228 8.9763 5.44298 7.37194L4.91266 7.11337L5.2176 6.31122C4.7469 6.24492 4.83973 6.31118 4.82647 5.94656C4.63454 6.04175 4.45614 6.16217 4.29607 6.30458H4.20989C4.25776 6.08704 4.27122 5.86333 4.2497 5.64162C4.22839 5.47753 4.17907 5.31834 4.10387 5.17094C3.93751 4.87975 3.72728 4.61586 3.48065 4.38862C3.10276 4.02399 3.6663 2.32686 3.75912 1.70368C3.23538 1.86942 3.47404 1.86279 3.00997 1.70368C2.94161 2.93898 2.7641 4.16575 2.47957 5.36978L2.3271 5.4427C2.43318 4.77974 2.51277 4.00415 2.61221 3.19534H2.44647C2.21036 3.59541 2.10162 4.0579 2.13482 4.52126C2.13482 5.06488 2.18126 5.50907 2.33374 5.52233L2.18791 5.6748L1.67078 5.59525L1.78351 5.25713L1.6045 5.19085C1.47854 5.44941 1.35253 5.70132 1.22657 5.92673H1.06083H0.981274L1.02773 5.7079H0.948174C0.285214 6.07253 0.404508 7.50452 0.245398 8.35974C-0.165638 10.6204 0.41118 13.4447 0.0399221 16.0037C-0.284928 18.1915 0.663079 20.8367 1.17356 23.694C1.53188 25.716 2.16067 27.6805 3.04307 29.5347C4.04248 31.6503 5.43 33.5595 7.13356 35.1633C9.07945 37.0966 11.2188 38.825 13.5179 40.3211C15.7486 41.7747 18.3134 42.6349 20.9695 42.8204C22.6374 43.0687 24.3217 43.1907 26.008 43.1851C26.7903 43.1851 27.5461 43.1387 28.3151 43.1055C29.0841 43.0724 29.893 42.9729 30.6819 42.8934C31.5703 42.721 32.4653 42.5354 33.3338 42.31C35.3806 42.2142 37.3882 41.7139 39.2408 40.8382C41.2215 39.9193 43.0187 38.6479 44.5444 37.0859C44.8958 36.6814 46.0493 35.7599 47.0106 34.8384C47.5211 34.381 47.9653 33.9169 48.3365 33.5721C48.5446 33.3277 48.7993 33.1271 49.0857 32.9821C49.3973 32.5644 49.4039 32.6108 49.1586 32.4583C50.6603 30.4405 51.872 28.2224 52.7584 25.8685C53.5418 23.8076 54.1452 21.6826 54.5617 19.5174C54.7872 17.7672 54.8866 16.1031 54.9529 14.4789C55.2576 13.2758 55.2576 12.0158 54.9529 10.8127L55.2181 10.3951L54.6678 8.40619C54.3893 7.42501 54.091 6.41726 54.0579 6.28467L53.7264 6.23167C53.7264 6.42392 53.7927 6.29799 53.6402 6.43058C53.2381 5.80735 52.9089 5.14002 52.6591 4.4417H52.4933C52.1012 4.70924 51.6417 4.86083 51.1674 4.8792L51.4989 4.687L51.1674 4.58754L51.0878 4.78638V4.49471L50.8359 4.4417C50.8359 4.99196 50.9221 5.93992 50.995 6.93436C50.4779 6.84155 50.5111 6.58969 50.7497 6.3444L50.3387 6.0991C50.2326 6.17866 50.226 6.22501 50.0868 6.29131L50.4978 6.73552C49.457 6.27145 49.8348 5.6947 50.0072 5.02511C49.8327 5.12741 49.6326 5.17797 49.4304 5.17094C49.4304 4.44169 50.0072 4.18312 50.0072 3.33453L49.8415 3.28808L49.2647 4.614H49.1852C48.8272 4.10352 49.2514 3.73226 49.2647 3.12234L49.9277 3.02296L50.0072 2.93014C49.0656 2.84577 48.1166 2.91287 47.1963 3.12898L47.0305 2.79086L46.6195 2.74449L46.7056 2.98314L45.9565 3.12898L45.7908 3.55992L46.2084 3.60637C45.5918 4.20966 46.4471 4.54776 46.5399 5.33668C46.0824 5.33668 46.0825 5.29027 45.9565 5.57534L46.2084 5.62171L46.1223 5.76762C45.7186 5.64172 45.2861 5.64172 44.8825 5.76762L44.4714 4.33561C42.6417 4.58753 44.193 4.99855 43.5565 5.80736C43.0328 6.47032 42.0384 6.9344 42.6218 8.0548C42.3699 8.14099 42.3434 7.45151 42.2241 7.30566C41.8992 7.96862 42.4627 8.85698 42.6748 9.45364H42.5886L42.4295 9.21499H42.1843L42.4163 9.73211H42.3367C42.0583 9.53986 41.9257 9.42715 41.939 9.06915L42.1843 9.16861C41.7334 8.59184 41.7003 7.59735 41.5677 6.88135L41.4816 7.02055L41.2362 6.68907H41.1566C40.9899 6.82596 40.8681 7.00963 40.8066 7.21639C40.7452 7.42315 40.7471 7.64354 40.812 7.84925C40.5526 7.67343 40.3511 7.42471 40.2331 7.13441C40.1151 6.84412 40.0859 6.52532 40.149 6.21839L40.0628 6.17202H39.9833C39.5258 7.0405 39.9103 8.06145 40.1026 9.06915C40.1821 9.48682 39.5391 9.73206 39.5656 10.1762C39.6319 11.0845 40.1225 11.9198 40.2286 12.8281L40.0363 13.1596C40.8119 14.0811 40.9644 17.1373 40.0363 18.5627C39.5484 19.5946 39.1233 20.6551 38.7634 21.7383C38.4068 22.7387 37.9631 23.7059 37.4374 24.6288C37.1334 24.9576 36.8055 25.2634 36.4563 25.5437C36.3459 25.8322 36.2175 26.1134 36.0718 26.3857C35.6674 26.6111 34.852 27.0088 34.0233 27.3602C33.6269 27.515 33.2395 27.6921 32.8631 27.8906C32.5788 28.0019 32.3436 28.2111 32.2001 28.4806C32.1338 28.3679 31.6498 28.4276 31.1062 28.5204C30.5881 28.615 30.0593 28.6373 29.535 28.5867H28.1096L26.6577 28.5071C26.0942 28.3546 25.5903 28.1955 25.0799 28.0762C24.5694 27.9568 24.0987 27.8176 23.6546 27.6651C22.7787 27.4306 21.9194 27.1383 21.0823 26.7901C20.9497 27.0751 21.0822 26.9426 20.8634 27.0553C20.8634 27.3669 21.3209 27.4729 21.5264 27.4994V27.5789C21.4153 27.634 21.2886 27.6489 21.1677 27.6211C21.0469 27.5933 20.9393 27.5245 20.8634 27.4265C20.6977 27.2607 20.5652 27.095 20.4326 27.1083C20.4326 27.1083 20.3795 27.3072 20.2403 27.2806L20.406 27.095L20.227 26.8962C20.1474 26.9758 20.0843 27.0704 20.0414 27.1746C19.9062 27.1676 19.7725 27.1431 19.6436 27.1016C19.5228 27.0435 19.4074 26.9748 19.2989 26.8962C19.0693 26.735 18.8715 26.5327 18.7155 26.2995C18.4301 25.8443 18.1039 25.416 17.7409 25.0199C17.3924 24.4868 17.0887 23.9258 16.8327 23.3426C16.4296 22.3166 16.1211 21.2559 15.9111 20.1737C16.1962 20.4124 16.5741 21.5925 16.9388 22.567C17.173 23.1801 17.4408 23.7799 17.7409 24.3636C17.8735 24.5161 17.8205 24.5028 18.0459 24.3636C18.0459 24.5294 18.0459 24.7481 18.0459 24.9669C18.05 25.1845 18.1219 25.3954 18.2514 25.5702L18.3111 25.5105L18.2448 25.4509L18.6028 25.3315V25.2321C18.5329 25.2166 18.4605 25.215 18.39 25.2275C18.3194 25.24 18.2521 25.2664 18.1918 25.305C18.3111 25.1393 18.1917 25.1724 18.3707 25.126L18.132 24.6222C18.2541 24.6047 18.3786 24.6268 18.4872 24.6853C18.5957 24.7438 18.6827 24.8355 18.7354 24.947C18.8228 25.0964 18.8898 25.257 18.9343 25.4243L19.0536 25.1989C19.0536 25.3846 19.1331 25.1989 18.8945 25.5105C19.0536 25.5105 18.9541 25.5967 19.2193 25.3514C19.2193 25.5039 19.2657 25.3514 19.153 25.61C19.0668 25.61 19.153 25.5371 19.027 25.61C19.1795 25.7094 19.1066 25.663 19.3917 25.4708L19.1398 25.7956C19.332 25.736 19.1928 25.7956 19.385 25.5702H19.5044C19.3586 25.7426 19.5044 25.5702 19.332 25.7492C19.2326 26.1204 19.5176 26.0807 19.6104 26.2597C19.8425 26.0011 19.6701 26.2 19.7894 25.8818C20.0679 26.3194 20.9298 26.505 21.8381 26.5978C22.0767 26.5978 22.2889 26.6508 22.501 26.6574C22.7132 26.6641 22.9783 26.6575 23.1971 26.7238C23.6374 26.7546 24.0697 26.8576 24.4766 27.0287C25.6779 27.27 26.898 27.4053 28.1229 27.4331C29.3759 27.8442 30.6488 27.2011 31.7825 27.2343C33.1415 27.2873 34.9116 26.79 35.6541 25.6763C36.7542 24.8836 37.6608 23.8524 38.306 22.6598L38.233 22.62C38.1186 22.6428 38.0115 22.6934 37.9213 22.7674C37.8311 22.8414 37.7606 22.9365 37.7159 23.0443L37.5568 23.3692C37.4987 23.4669 37.4248 23.5542 37.3381 23.6277C36.4315 24.9171 35.1691 25.9146 33.705 26.4983C32.1651 27.0298 30.5474 27.301 28.9184 27.3006L27.9505 27.1812L26.9627 27.0155C26.2998 26.9359 25.7495 26.7901 25.1727 26.7171C24.194 26.5173 23.2007 26.3976 22.2026 26.3591C21.0016 26.1262 19.8685 25.6254 18.8878 24.894C18.6425 24.6023 18.7685 24.231 18.4437 24.0587C18.6956 23.9128 18.51 23.9857 18.6824 23.9658L18.742 23.7736L18.3442 24.0719C18.4238 23.8465 18.384 23.946 18.6955 23.7073C18.5961 23.6675 18.5762 23.4024 18.3044 23.4952H18.1918C18.2978 23.6874 18.2647 23.5416 18.4105 23.6476L18.132 23.8267C18.0606 23.7462 17.9964 23.6596 17.9398 23.5681L18.1719 23.4686L18.3111 23.23C18.1254 23.2896 18.3111 23.23 18.1056 23.3758C17.9266 23.3758 18.0392 23.4156 18.0392 23.2763L17.7675 23.3162C17.6747 23.4686 17.7675 23.3559 17.7675 23.4421L17.6614 23.5814C17.4694 23.2014 17.2968 22.812 17.1442 22.4145C17.6614 22.5538 17.5288 23.0045 17.6415 23.2631C17.7128 23.2188 17.774 23.1599 17.8207 23.0901C17.8675 23.0204 17.8988 22.9414 17.9127 22.8586C17.9265 22.7758 17.9224 22.6909 17.9008 22.6097C17.8792 22.5286 17.8405 22.453 17.7873 22.388L17.6415 22.4676L17.7608 22.5074L17.6547 22.6399L17.5818 22.6863C17.4426 22.4012 17.7012 22.3549 17.7542 22.1626L17.3895 21.9902C17.7542 21.2212 16.7929 20.8632 16.7266 20.2732C16.7106 20.2079 16.7106 20.1396 16.7266 20.0743C16.9918 19.8555 16.8062 19.5307 16.6007 19.1859C16.3951 18.8412 16.1829 18.4434 16.3885 18.1782C16.594 17.913 16.3885 16.8523 16.236 15.5264C16.0835 14.2005 15.9178 12.7353 15.805 12.311H16.2294V11.8138C15.9708 11.9796 16.0835 11.8602 16.1034 12.1055L15.7719 12.1585V11.3364H16.183C16.1432 10.9254 16.2161 10.7663 15.9774 10.4017H15.805L16.0172 10.7464L15.7719 10.7796L15.7189 9.75858H15.805C15.9178 9.9641 15.9111 9.79842 15.805 9.99068L16.0636 10.0503C15.931 9.46692 15.7719 9.69231 15.6725 8.96306C16.0835 9.02272 15.752 9.1686 15.9774 9.40063C16.1829 9.05589 16.3421 7.86916 15.7719 7.78961C15.9775 7.59735 15.7719 7.7167 16.1697 7.64377C15.7255 7.03385 16.3686 6.31785 16.0503 5.48915C15.8183 5.5886 15.9509 5.48912 15.8183 5.62171C15.6924 5.53553 15.6725 5.21068 15.4868 5.04494V4.94548C15.3609 5.11122 15.4139 5.09796 15.4868 5.36315L15.4073 5.42951H14.9963L14.8571 3.95104C14.758 3.6125 14.5649 3.30907 14.3002 3.07597C14.1926 2.98943 14.1084 2.87743 14.0551 2.75007C14.0019 2.62272 13.9813 2.48406 13.9952 2.34673L13.6173 2.59202V2.19426H13.5311L13.4781 2.37327C13.2792 2.37327 13.3521 2.4329 13.2063 2.24727C12.8881 2.45941 12.656 2.67158 12.6693 3.01632H12.5035C12.5114 2.39771 12.5558 1.78006 12.6362 1.16664H12.55C12.4681 1.53338 12.2869 1.8705 12.0262 2.14117H11.94C11.5688 1.64395 11.277 0.603097 11.582 0.477135L11.0914 0.556687L10.508 0.497043C10.398 0.447215 10.3088 0.360433 10.2561 0.251751V0.178835C10.0553 0.155067 9.85614 0.119627 9.65948 0.0727388L9.46719 0.0263672L9.87159 0.119191H10.044C10.044 0.119191 10.0439 0.119191 9.99751 0.119191C9.98537 0.180471 9.98537 0.243479 9.99751 0.304759Z" fill="#E9500F"/>
<path fill-rule="evenodd" clip-rule="evenodd" d="M55.8943 8.1214L55.7285 8.06836L55.8943 8.27388V8.1214Z" fill="#E9500F"/>
<path fill-rule="evenodd" clip-rule="evenodd" d="M55.582 6.94808L55.8273 6.90167L55.6616 6.84863L55.582 6.89504V6.94808Z" fill="#E9500F"/>
<path fill-rule="evenodd" clip-rule="evenodd" d="M55.8151 7.86243V7.76297L55.6494 7.70996C55.7555 7.86244 55.6494 7.76961 55.8151 7.86243Z" fill="#E9500F"/>
<path fill-rule="evenodd" clip-rule="evenodd" d="M55.7413 7.40493V7.29883C55.6618 7.39164 55.6618 7.31211 55.7413 7.40493Z" fill="#E9500F"/>
<path fill-rule="evenodd" clip-rule="evenodd" d="M50.2854 31.5506L50.4114 31.3584H50.2324C50.2523 31.4048 50.2722 31.5042 50.2854 31.5506Z" fill="#E9500F"/>
<path fill-rule="evenodd" clip-rule="evenodd" d="M49.6689 32.1669C49.9076 32.1669 49.9606 32.0476 50.1529 31.7559C50.0269 31.4377 49.722 32.1006 49.6689 32.1669Z" fill="#E9500F"/>
<path fill-rule="evenodd" clip-rule="evenodd" d="M49.4906 32.412L49.716 32.3788L49.6232 32.2197L49.4707 32.2993L49.4906 32.412Z" fill="#E9500F"/>
<path fill-rule="evenodd" clip-rule="evenodd" d="M54.6742 6.48385C54.5483 6.37114 54.5218 6.27173 54.3428 6.18555C54.482 6.39769 54.535 6.43744 54.6742 6.48385Z" fill="#E9500F"/>
<path fill-rule="evenodd" clip-rule="evenodd" d="M54.3489 5.73438L54.2627 5.83384C54.4417 5.99958 54.4152 5.95316 54.5942 5.9863L54.4284 5.73438H54.3489Z" fill="#E9500F"/>
<path fill-rule="evenodd" clip-rule="evenodd" d="M53.6064 4.70052V4.75361L53.7722 4.79998V4.55469C53.5998 4.6475 53.7059 4.55467 53.6064 4.70052Z" fill="#E9500F"/>
<path fill-rule="evenodd" clip-rule="evenodd" d="M52.6132 4.32261C52.3812 4.09058 52.421 3.97787 52.4475 3.65965L52.3679 3.61328L52.2022 3.65965C52.1757 4.03091 52.2486 4.2298 52.6132 4.32261Z" fill="#E9500F"/>
<path fill-rule="evenodd" clip-rule="evenodd" d="M52.281 2.57898V2.43313L52.1152 2.38672L52.2014 2.57898H52.281Z" fill="#E9500F"/>
<path fill-rule="evenodd" clip-rule="evenodd" d="M52.281 2.67188C52.0887 2.78458 52.1616 2.83094 52.1152 2.9569C52.2876 2.86409 52.2545 2.87076 52.281 2.67188Z" fill="#E9500F"/>
<path fill-rule="evenodd" clip-rule="evenodd" d="M52.0352 2.24113L52.1147 1.86328C51.8827 1.98924 51.9954 2.0091 52.0352 2.24113Z" fill="#E9500F"/>
<path fill-rule="evenodd" clip-rule="evenodd" d="M51.9563 3.92438H52.1154V3.78516H51.8701L51.9563 3.92438Z" fill="#E9500F"/>
<path fill-rule="evenodd" clip-rule="evenodd" d="M2.07532 2.0752L1.92285 2.21439C2.0687 2.11495 1.97588 2.20779 2.07532 2.0752Z" fill="#E9500F"/>
<path fill-rule="evenodd" clip-rule="evenodd" d="M50.9609 2.5791V2.72495L51.1267 2.5791H50.9609Z" fill="#E9500F"/>
<path fill-rule="evenodd" clip-rule="evenodd" d="M50.6237 6.15877H50.7033L50.7895 5.66818C50.5177 5.55548 50.6171 5.97977 50.6237 6.15877Z" fill="#E9500F"/>
<path fill-rule="evenodd" clip-rule="evenodd" d="M50.6298 4.65439L50.7159 4.36269L49.9668 4.12402L50.6298 4.65439Z" fill="#E9500F"/>
<path fill-rule="evenodd" clip-rule="evenodd" d="M50.5438 5.1377L50.1328 5.32995H50.3781L50.5438 5.1377Z" fill="#E9500F"/>
<path fill-rule="evenodd" clip-rule="evenodd" d="M49.8018 4.9919L50.3852 5.04493V4.7002L49.8018 4.89245V4.94549V4.9919Z" fill="#E9500F"/>
<path fill-rule="evenodd" clip-rule="evenodd" d="M50.2132 5.42969H50.1337C49.9282 5.62195 50.0077 5.64181 50.2132 5.81418H50.2928L50.379 5.56888L50.2132 5.42969Z" fill="#E9500F"/>
<path fill-rule="evenodd" clip-rule="evenodd" d="M5.94058 18.2783L5.91406 18.5501L6.13284 18.3977L5.94058 18.2783Z" fill="#E9500F"/>
<path fill-rule="evenodd" clip-rule="evenodd" d="M3.71289 4.1699L3.75271 4.36218C3.89856 4.23622 3.83885 4.36213 3.87863 4.13672L3.71289 4.1699Z" fill="#E9500F"/>
<path fill-rule="evenodd" clip-rule="evenodd" d="M5.86742 16.1703L5.69505 16.1504L5.65527 16.3625L5.82764 16.3824L5.86742 16.1703Z" fill="#E9500F"/>
<path fill-rule="evenodd" clip-rule="evenodd" d="M4.12395 4.09766L3.96484 4.1308L3.99799 4.32306L4.12395 4.09766Z" fill="#E9500F"/>
<path fill-rule="evenodd" clip-rule="evenodd" d="M5.71437 14.1738H5.54199L5.58844 15.0224C5.86026 14.7771 5.76741 14.4655 5.71437 14.1738Z" fill="#E9500F"/>
<path fill-rule="evenodd" clip-rule="evenodd" d="M5.72798 13.7236L5.64842 13.7369L5.52246 14.0021L5.69483 14.0286L5.72798 13.7236Z" fill="#E9500F"/>
<path fill-rule="evenodd" clip-rule="evenodd" d="M5.78105 13.5112V13.4648C5.5026 13.5974 5.675 13.4649 5.55566 13.6439L5.78105 13.5112Z" fill="#E9500F"/>
<path fill-rule="evenodd" clip-rule="evenodd" d="M4.45479 3.06961L4.34208 2.87072L4.32883 2.76465L4.24927 2.77791L4.16309 2.79117L4.19623 3.00331L4.29568 3.0895L4.45479 3.06961Z" fill="#E9500F"/>
<path fill-rule="evenodd" clip-rule="evenodd" d="M4.98535 5.69434V6.12528L5.171 6.23801C5.35663 6.05901 5.27044 5.9264 5.171 5.72088L4.98535 5.69434Z" fill="#E9500F"/>
<path fill-rule="evenodd" clip-rule="evenodd" d="M5.47559 6.57715V6.66997H5.64133C5.47559 6.57053 5.61481 6.61693 5.47559 6.57715Z" fill="#E9500F"/>
<path fill-rule="evenodd" clip-rule="evenodd" d="M5.88742 7.3717L5.96035 7.26562L5.72168 7.35181L5.88742 7.3717Z" fill="#E9500F"/>
<path fill-rule="evenodd" clip-rule="evenodd" d="M6.26491 5.88736L5.98646 5.68848L5.83398 5.80781L6.11243 6.0067L6.26491 5.88736Z" fill="#E9500F"/>
<path fill-rule="evenodd" clip-rule="evenodd" d="M6.03939 5.48926C5.88691 5.59533 5.97974 5.48926 5.89355 5.655L6.04602 5.53563L6.03939 5.48926Z" fill="#E9500F"/>
<path fill-rule="evenodd" clip-rule="evenodd" d="M6.07259 4.68652L5.92676 4.81245C6.07261 4.71963 5.97315 4.79923 6.07259 4.68652Z" fill="#E9500F"/>
<path fill-rule="evenodd" clip-rule="evenodd" d="M6.05308 4.54785L5.90723 4.67381L6.14589 4.62741L6.05308 4.54785Z" fill="#E9500F"/>
<path fill-rule="evenodd" clip-rule="evenodd" d="M6.07903 4.2495L6.13867 4.09703V4.04395C6.05365 4.08996 5.97917 4.1532 5.91992 4.22959L6.07903 4.2495Z" fill="#E9500F"/>
<path fill-rule="evenodd" clip-rule="evenodd" d="M5.75471 2.20117H5.67516L5.62207 2.46629C5.77455 2.3337 5.73482 2.41332 5.75471 2.20117Z" fill="#E9500F"/>
<path fill-rule="evenodd" clip-rule="evenodd" d="M5.62181 1.80957L5.58203 2.1742L5.8207 2.04824L5.62181 1.80957Z" fill="#E9500F"/>
<path fill-rule="evenodd" clip-rule="evenodd" d="M6.31152 1.2334V1.33286C6.39108 1.23341 6.40434 1.31295 6.31152 1.2334Z" fill="#E9500F"/>
<path fill-rule="evenodd" clip-rule="evenodd" d="M46.5801 1.91602L46.6596 2.49279L46.8254 2.5392V2.25413L46.5801 1.91602Z" fill="#E9500F"/>
<path fill-rule="evenodd" clip-rule="evenodd" d="M46.4932 2.58594C46.6125 2.67875 46.4932 2.58595 46.6589 2.67876V2.58594H46.4932Z" fill="#E9500F"/>
<path fill-rule="evenodd" clip-rule="evenodd" d="M46.1621 1.48488L46.3279 1.63073V1.43848L46.1621 1.48488Z" fill="#E9500F"/>
<path fill-rule="evenodd" clip-rule="evenodd" d="M46.2479 5.17773L45.4192 5.31693L45.333 5.46276C45.6593 5.45911 45.9773 5.36006 46.2479 5.17773Z" fill="#E9500F"/>
<path fill-rule="evenodd" clip-rule="evenodd" d="M45.917 1.72363C45.665 1.7833 45.8175 1.72364 45.665 1.81646C45.7815 1.88737 45.8923 1.96715 45.9965 2.05511H46.0827V1.96229L45.917 1.72363Z" fill="#E9500F"/>
<path fill-rule="evenodd" clip-rule="evenodd" d="M44.2666 3.40039C44.6975 3.9838 45.5925 4.36167 45.6654 5.12407C45.9903 5.03126 45.8179 5.04453 45.9969 4.88541L44.5914 3.49985L44.2666 3.40039Z" fill="#E9500F"/>
<path fill-rule="evenodd" clip-rule="evenodd" d="M45.9167 3.69238H45.751L45.8372 3.8316H45.9167V3.69238Z" fill="#E9500F"/>
<path fill-rule="evenodd" clip-rule="evenodd" d="M45.0879 3.20886L45.174 2.92383C45.0083 3.04316 45.0945 2.99671 45.0879 3.20886Z" fill="#E9500F"/>
<path fill-rule="evenodd" clip-rule="evenodd" d="M44.5908 4.40908H44.7566V4.2168C44.5908 4.32287 44.6704 4.23671 44.5908 4.40908Z" fill="#E9500F"/>
<path fill-rule="evenodd" clip-rule="evenodd" d="M44.2666 3.07031L44.4323 3.21616V3.11672L44.2666 3.07031Z" fill="#E9500F"/>
<path fill-rule="evenodd" clip-rule="evenodd" d="M43.6823 3.83198C43.8613 3.83198 43.742 3.87172 43.8481 3.78553L44.0138 4.07064H44.1L44.2658 3.87836L44.1 3.54688H43.7685C43.6094 3.69273 43.8746 3.63309 43.5166 3.73916L43.6823 3.83198Z" fill="#E9500F"/>
<path fill-rule="evenodd" clip-rule="evenodd" d="M43.3581 4.88613L43.1062 4.83972L42.9404 4.64746L43.1062 5.36346L43.3581 4.88613Z" fill="#E9500F"/>
<path fill-rule="evenodd" clip-rule="evenodd" d="M42.774 4.59353L42.9398 4.64653V4.45425L42.4425 3.83111L42.1972 3.73828L41.9453 3.83111V4.59353L42.1111 3.93057H42.2768C42.4028 4.32171 42.6016 4.32171 42.774 4.59353Z" fill="#E9500F"/>
<path fill-rule="evenodd" clip-rule="evenodd" d="M42.4424 4.8799V4.92636L42.6081 5.02582L42.7739 4.69434C42.6504 4.72948 42.5369 4.79299 42.4424 4.8799Z" fill="#E9500F"/>
<path fill-rule="evenodd" clip-rule="evenodd" d="M42.3564 2.20117C42.4758 2.29399 42.3564 2.20111 42.5222 2.30055V2.20117H42.3564Z" fill="#E9500F"/>
<path fill-rule="evenodd" clip-rule="evenodd" d="M42.1843 6.97476L42.35 6.78911L42.1843 6.69629C42.0517 6.7891 42.0716 6.75602 42.0186 6.92839L42.1843 6.97476Z" fill="#E9500F"/>
<path fill-rule="evenodd" clip-rule="evenodd" d="M41.6211 3.26172V3.40757L41.7868 3.26172H41.6211Z" fill="#E9500F"/>
<path fill-rule="evenodd" clip-rule="evenodd" d="M41.6135 6.34464L41.6996 6.05957L41.3682 6.10598L41.5273 6.34464H41.6135Z" fill="#E9500F"/>
<path fill-rule="evenodd" clip-rule="evenodd" d="M32.1332 28.2827L32.2724 28.2429L32.1133 28.2031L32.1332 28.2827Z" fill="#E9500F"/>
<path fill-rule="evenodd" clip-rule="evenodd" d="M19.5105 26.3457C19.403 26.4351 19.315 26.5457 19.252 26.6705C19.5105 26.5446 19.5569 26.7236 19.7094 26.77L19.7492 26.6971C19.7757 26.4982 19.663 26.412 19.5105 26.3457Z" fill="#E9500F"/>
<path fill-rule="evenodd" clip-rule="evenodd" d="M19.2928 26.4985L19.4387 26.293C19.2663 26.1273 19.0873 26.293 18.9016 26.2002L18.8486 26.2598L18.9945 26.4853C19.2663 26.2997 19.2596 26.3394 19.2928 26.4985Z" fill="#E9500F"/>
<path fill-rule="evenodd" clip-rule="evenodd" d="M41.5341 4.74009L41.123 4.64062C41.2414 4.74866 41.3816 4.83004 41.5341 4.87928V4.74009Z" fill="#E9500F"/>
<path fill-rule="evenodd" clip-rule="evenodd" d="M41.2829 6.01333L41.5349 5.73488L41.3691 5.68848L41.1172 5.92051V5.96692L41.2829 6.01333Z" fill="#E9500F"/>
<path fill-rule="evenodd" clip-rule="evenodd" d="M20.1537 26.9357L20.0676 26.8893C19.9814 26.7899 20.0145 26.7899 19.8223 26.9423L20.041 27.0617L20.1537 26.9357Z" fill="#E9500F"/>
<path fill-rule="evenodd" clip-rule="evenodd" d="M19.949 26.7304L19.843 26.6641L19.7302 26.7901L19.6904 26.8563L19.7899 26.9293L19.949 26.7304Z" fill="#E9500F"/>
<path fill-rule="evenodd" clip-rule="evenodd" d="M19.1195 26.1606C19.1482 26.0716 19.1522 25.9766 19.1312 25.8856C19.1102 25.7945 19.065 25.7109 19.0002 25.6435C18.9567 25.5747 18.8984 25.5164 18.8296 25.4729C18.7608 25.4293 18.6833 25.4015 18.6024 25.3916L18.4102 25.5507C18.5693 25.9021 18.735 25.9485 19.0267 26.2137L19.1195 26.1606Z" fill="#E9500F"/>
<path fill-rule="evenodd" clip-rule="evenodd" d="M20.9758 26.8896L20.7637 26.9758L20.8034 27.1747L20.9758 26.8896Z" fill="#E9500F"/>
<path fill-rule="evenodd" clip-rule="evenodd" d="M20.6573 26.8633L20.5977 27.1152C20.6706 26.8633 20.6639 27.0224 20.6573 26.8633Z" fill="#E9500F"/>
<path fill-rule="evenodd" clip-rule="evenodd" d="M18.0859 25.2254L18.0196 24.9072L17.96 24.9669L18.0859 25.2254Z" fill="#E9500F"/>
<path fill-rule="evenodd" clip-rule="evenodd" d="M20.2536 26.3327C20.3398 26.399 20.3331 26.3328 20.1807 26.5714C20.4923 26.5714 20.532 26.5714 20.5585 26.9692L20.7043 26.6708C20.8116 26.7283 20.9223 26.7792 21.0358 26.8233C21.0358 26.5183 20.4259 26.2001 20.2536 26.3327Z" fill="#E9500F"/>
<path fill-rule="evenodd" clip-rule="evenodd" d="M20.2598 26.8038L20.3128 26.8369L20.4587 26.6314L20.4321 26.6182L20.2995 26.7375L20.2598 26.8038Z" fill="#E9500F"/>
<path fill-rule="evenodd" clip-rule="evenodd" d="M20.0611 26.6181L20.1273 26.5584L20.2268 26.333C20.2042 26.2923 20.1843 26.2503 20.1672 26.207C20.0926 26.3308 20.0557 26.4736 20.0611 26.6181Z" fill="#E9500F"/>
<path fill-rule="evenodd" clip-rule="evenodd" d="M20.0681 26.419L19.9421 26.2334L19.9023 26.3063L19.9355 26.5251L20.0681 26.419Z" fill="#E9500F"/>
<path fill-rule="evenodd" clip-rule="evenodd" d="M19.9154 26.1143L19.8027 26.3397L19.9221 26.2203L19.9154 26.1143Z" fill="#E9500F"/>
<path fill-rule="evenodd" clip-rule="evenodd" d="M40.792 4.83301L40.8715 4.97223H40.9577V4.83301H40.792Z" fill="#E9500F"/>
<path fill-rule="evenodd" clip-rule="evenodd" d="M40.2949 13.9219L40.3678 14.0611L40.4474 14.0677L40.4607 13.9418L40.2949 13.9219Z" fill="#E9500F"/>
<path fill-rule="evenodd" clip-rule="evenodd" d="M40.7057 5.68202L40.54 5.44999L40.4604 5.44336L40.3809 5.63562L40.6262 5.77484L40.7057 5.68202Z" fill="#E9500F"/>
<path fill-rule="evenodd" clip-rule="evenodd" d="M40.5402 6.33122L40.6198 6.00637L40.2949 5.95996L40.5402 6.2384V6.33122Z" fill="#E9500F"/>
<path fill-rule="evenodd" clip-rule="evenodd" d="M34.4743 25.9152H34.6334C34.4809 25.597 34.5207 25.7893 34.3881 25.4844L34.2754 25.4512C34.3085 25.7893 34.3086 25.4644 34.4743 25.9152Z" fill="#E9500F"/>
<path fill-rule="evenodd" clip-rule="evenodd" d="M34.5537 25.6705L34.7128 25.7766C34.6465 25.5379 34.6465 25.6705 34.5537 25.6705Z" fill="#E9500F"/>
<path fill-rule="evenodd" clip-rule="evenodd" d="M34.1229 25.7295V25.6566L34.03 25.6035L33.9307 25.65L34.1096 25.756C34.0566 25.8355 34.0566 25.7958 33.9439 25.756L33.9903 25.9151V25.9881H34.2091L34.1229 25.7295Z" fill="#E9500F"/>
<path fill-rule="evenodd" clip-rule="evenodd" d="M17.8867 23.2436L18.0458 23.1773L18.0127 23.1309L17.8867 23.2436Z" fill="#E9500F"/>
<path fill-rule="evenodd" clip-rule="evenodd" d="M39.95 5.64841H40.0295L40.1157 5.17773C39.6583 5.28381 39.9036 5.423 39.95 5.64841Z" fill="#E9500F"/>
<path fill-rule="evenodd" clip-rule="evenodd" d="M38.2324 20.6846C38.3186 20.7906 38.2324 20.6845 38.365 20.8105V20.7442L38.2324 20.6846Z" fill="#E9500F"/>
<path fill-rule="evenodd" clip-rule="evenodd" d="M38.127 20.97L38.3325 20.9103C38.127 20.7512 38.1932 20.8971 38.127 20.97Z" fill="#E9500F"/>
<path fill-rule="evenodd" clip-rule="evenodd" d="M38.1997 21.2149L38.0605 21.1221C38.1401 21.2215 38.1334 21.1751 38.1997 21.2149Z" fill="#E9500F"/>
<path fill-rule="evenodd" clip-rule="evenodd" d="M37.9609 21.3938H38.0339L38.173 21.2744C37.9609 21.3009 38.0405 21.2943 37.9609 21.3938Z" fill="#E9500F"/>
<path fill-rule="evenodd" clip-rule="evenodd" d="M37.9941 21.4863L37.835 21.6653L37.9079 21.7051H37.9808L38.0205 21.6123L37.9941 21.4863Z" fill="#E9500F"/>
<path fill-rule="evenodd" clip-rule="evenodd" d="M34.3213 25.8157L34.1953 25.6963C34.3014 25.8156 34.2219 25.7361 34.3213 25.8157Z" fill="#E9500F"/>
<path fill-rule="evenodd" clip-rule="evenodd" d="M19.2851 24.5635C19.1657 24.6099 19.2851 24.5635 19.126 24.643H19.1658L19.2851 24.5635Z" fill="#E9500F"/>
<path fill-rule="evenodd" clip-rule="evenodd" d="M37.0264 22.9777L37.0795 23.044C37.1723 22.9512 37.2584 22.8385 37.3578 22.7324C37.2451 22.8186 37.1391 22.8849 37.0264 22.9777Z" fill="#E9500F"/>
<path fill-rule="evenodd" clip-rule="evenodd" d="M36.9272 23.1172L36.8145 23.2697L36.8808 23.3227L36.9537 23.3691L37.0664 23.21L36.9272 23.1172Z" fill="#E9500F"/>
<path fill-rule="evenodd" clip-rule="evenodd" d="M36.5947 23.5818C36.707 23.5322 36.8156 23.4746 36.9196 23.4095C36.7141 23.3498 36.6345 23.4691 36.5947 23.5818Z" fill="#E9500F"/>
<path fill-rule="evenodd" clip-rule="evenodd" d="M35.3096 24.874C35.3096 25.0066 35.3096 24.874 35.3494 25.0464C35.3494 25.0464 35.3493 25.0464 35.3891 25.0464L35.3096 24.874Z" fill="#E9500F"/>
<path fill-rule="evenodd" clip-rule="evenodd" d="M35.2095 24.9532C35.0769 24.8737 35.13 25.0328 35.2493 25.1256L35.2095 24.9532Z" fill="#E9500F"/>
<path fill-rule="evenodd" clip-rule="evenodd" d="M35.0039 25.0998L35.0503 25.166H35.2027C35.0635 25.0467 35.11 25.0733 35.0039 25.0998Z" fill="#E9500F"/>
<path fill-rule="evenodd" clip-rule="evenodd" d="M34.6465 25.3318L34.6929 25.3982C34.8119 25.3627 34.9273 25.316 35.0376 25.2589C34.8719 25.1197 34.7791 25.239 34.6465 25.3318Z" fill="#E9500F"/>
<path fill-rule="evenodd" clip-rule="evenodd" d="M39.8767 6.09961L39.7109 6.14602L39.7905 6.28524L39.9562 6.19242L39.8767 6.09961Z" fill="#E9500F"/>
<path fill-rule="evenodd" clip-rule="evenodd" d="M36.5098 23.6874L36.5694 23.7339L36.6424 23.6543L36.5098 23.6874Z" fill="#E9500F"/>
<path fill-rule="evenodd" clip-rule="evenodd" d="M36.3233 23.7734L36.2305 23.8928L36.2901 23.9524L36.4492 23.8795L36.3233 23.7734Z" fill="#E9500F"/>
<path fill-rule="evenodd" clip-rule="evenodd" d="M36.2109 23.9199L36.2242 24.0326L36.2839 24.0923L36.3369 24.026L36.2109 23.9199Z" fill="#E9500F"/>
<path fill-rule="evenodd" clip-rule="evenodd" d="M36.1439 23.999L36.0908 24.0454L36.2499 24.125L36.1439 23.999Z" fill="#E9500F"/>
<path fill-rule="evenodd" clip-rule="evenodd" d="M35.9727 24.1318C36.0257 24.2512 35.9727 24.1318 36.0588 24.2843L35.9727 24.1318Z" fill="#E9500F"/>
<path fill-rule="evenodd" clip-rule="evenodd" d="M33.7177 25.9143V25.6426C33.1277 25.9277 32.3918 25.8149 31.9277 26.1862V26.3585C32.5244 26.2458 32.9221 25.8348 33.7177 25.9143Z" fill="#E9500F"/>
<path fill-rule="evenodd" clip-rule="evenodd" d="M18.0791 23.0845L18.2316 23.0182L18.1852 22.9453L18.0791 23.0845Z" fill="#E9500F"/>
<path fill-rule="evenodd" clip-rule="evenodd" d="M39.8835 4.83301L39.7178 4.92583C39.8703 4.85954 39.7642 4.91919 39.8835 4.83301Z" fill="#E9500F"/>
<path fill-rule="evenodd" clip-rule="evenodd" d="M39.7642 8.48596H39.8438V8.34668C39.6515 8.44612 39.8106 8.34673 39.7642 8.48596Z" fill="#E9500F"/>
<path fill-rule="evenodd" clip-rule="evenodd" d="M18.9934 23.8994L18.9404 24.0851C19.1592 23.9591 19.0332 23.9723 18.9934 23.8994Z" fill="#E9500F"/>
<path fill-rule="evenodd" clip-rule="evenodd" d="M18.2381 22.8857C18.1055 22.8857 18.2381 22.8858 18.0658 22.9256C18.0627 22.9409 18.0627 22.9566 18.0658 22.9719L18.2381 22.8857Z" fill="#E9500F"/>
<path fill-rule="evenodd" clip-rule="evenodd" d="M39.4658 11.7739L39.6382 11.6943C39.4791 11.7474 39.5852 11.6943 39.4658 11.7739Z" fill="#E9500F"/>
<path fill-rule="evenodd" clip-rule="evenodd" d="M39.4336 12.3379C39.5397 12.4307 39.4336 12.3379 39.5927 12.4374V12.3512L39.4336 12.3379Z" fill="#E9500F"/>
<path fill-rule="evenodd" clip-rule="evenodd" d="M39.4121 12.6426L39.4585 13.0337L39.5646 12.7354L39.4121 12.6426Z" fill="#E9500F"/>
<path fill-rule="evenodd" clip-rule="evenodd" d="M31.4639 26.2992V26.3854H31.7092C31.7357 26.1401 31.5766 26.2859 31.4639 26.2992Z" fill="#E9500F"/>
<path fill-rule="evenodd" clip-rule="evenodd" d="M30.9473 26.4063L31.0732 26.5455C31.0599 26.2737 31.0732 26.4195 30.9473 26.4063Z" fill="#E9500F"/>
<path fill-rule="evenodd" clip-rule="evenodd" d="M19.2857 24.0918H19.1729L19.1133 24.1448L19.1663 24.2045L19.2857 24.0918Z" fill="#E9500F"/>
<path fill-rule="evenodd" clip-rule="evenodd" d="M37.8681 20.4795L37.835 20.5789L38.0272 20.5392L37.8681 20.4795Z" fill="#E9500F"/>
<path fill-rule="evenodd" clip-rule="evenodd" d="M24.1119 26.3726L24.2909 26.0743V25.9881C24.0655 25.7295 23.7406 25.809 23.429 25.9283V25.8223H23.3428V25.9549L23.0312 26.0874L23.124 25.8554C23.0511 25.8554 22.9053 26.0742 22.6931 26.0013L22.5605 26.2201L23.0578 26.3526C23.4357 26.3725 23.787 26.3593 24.1119 26.3726Z" fill="#E9500F"/>
<path fill-rule="evenodd" clip-rule="evenodd" d="M20.7577 25.0869C20.6119 25.1665 20.7577 25.0339 20.5654 25.2593H20.6052L20.7577 25.0869Z" fill="#E9500F"/>
<path fill-rule="evenodd" clip-rule="evenodd" d="M20.3135 24.874C20.3225 24.9503 20.338 25.0257 20.3598 25.0994C20.5587 24.927 20.3798 24.9403 20.3135 24.874Z" fill="#E9500F"/>
<path fill-rule="evenodd" clip-rule="evenodd" d="M20.1737 24.6758L19.9814 24.8415L20.0212 24.8747L20.1737 24.6758Z" fill="#E9500F"/>
<path fill-rule="evenodd" clip-rule="evenodd" d="M39.5454 10.2362L39.2206 10.0439L39.1211 10.3953C39.3266 10.4351 39.2471 10.3953 39.5388 10.3953L39.5454 10.2362Z" fill="#E9500F"/>
<path fill-rule="evenodd" clip-rule="evenodd" d="M39.4394 10.7195L39.1941 10.7129L39.1875 10.9317H39.2671L39.519 10.8123L39.4394 10.7195Z" fill="#E9500F"/>
<path fill-rule="evenodd" clip-rule="evenodd" d="M22.0831 25.6629L22.0565 25.6562L21.9902 25.8949L22.0831 25.6629Z" fill="#E9500F"/>
<path fill-rule="evenodd" clip-rule="evenodd" d="M20.8633 25.345L20.9959 25.4179L21.1418 25.2124C21.0224 25.1992 21.0158 25.1859 20.8633 25.345Z" fill="#E9500F"/>
<path fill-rule="evenodd" clip-rule="evenodd" d="M20.8174 25.1328V25.3118C20.9566 25.1328 20.8505 25.2124 20.8174 25.1328Z" fill="#E9500F"/>
<path fill-rule="evenodd" clip-rule="evenodd" d="M21.8516 25.4709L21.666 25.3848L21.6328 25.4643L21.8052 25.7229L21.8516 25.4709Z" fill="#E9500F"/>
<path fill-rule="evenodd" clip-rule="evenodd" d="M21.5127 25.5906L21.6188 25.3652H21.5459C21.5231 25.4382 21.5119 25.5142 21.5127 25.5906Z" fill="#E9500F"/>
<path fill-rule="evenodd" clip-rule="evenodd" d="M21.5131 25.4111H21.3806L21.3408 25.4841H21.4137L21.5131 25.4111Z" fill="#E9500F"/>
<path fill-rule="evenodd" clip-rule="evenodd" d="M21.4001 25.3584L21.2742 25.3849L21.2344 25.4578L21.3007 25.4976L21.4001 25.3584Z" fill="#E9500F"/>
<path fill-rule="evenodd" clip-rule="evenodd" d="M39.2207 5.72168V5.90731H39.3864L39.466 5.72168H39.2207Z" fill="#E9500F"/>
<path fill-rule="evenodd" clip-rule="evenodd" d="M31.3187 26.0811L30.7949 26.1009L31.0468 26.2203L31.3187 26.0811Z" fill="#E9500F"/>
<path fill-rule="evenodd" clip-rule="evenodd" d="M26.9897 26.3662C26.9168 26.4855 26.9897 26.3662 26.9102 26.5319H26.9831L26.9897 26.3662Z" fill="#E9500F"/>
<path fill-rule="evenodd" clip-rule="evenodd" d="M26.6113 26.3662L26.7174 26.5319C26.797 26.2999 26.6909 26.4126 26.6113 26.3662Z" fill="#E9500F"/>
<path fill-rule="evenodd" clip-rule="evenodd" d="M25.4049 26.4658L25.4512 26.3067L25.3916 26.2139L25.4049 26.4658Z" fill="#E9500F"/>
<path fill-rule="evenodd" clip-rule="evenodd" d="M22.2955 25.5576L22.1895 25.6968L22.2889 25.8162L22.2955 25.5576Z" fill="#E9500F"/>
<path fill-rule="evenodd" clip-rule="evenodd" d="M39.2148 6.18504L39.3805 5.9994C39.1352 5.89995 39.2413 6.03919 39.2148 6.18504Z" fill="#E9500F"/>
<path fill-rule="evenodd" clip-rule="evenodd" d="M39.2341 11.542L38.9756 11.6149C39.2275 11.5751 39.075 11.6149 39.2341 11.542Z" fill="#E9500F"/>
<path fill-rule="evenodd" clip-rule="evenodd" d="M30.5762 26.1465L30.5894 26.226L30.7154 26.1995L30.5762 26.1465Z" fill="#E9500F"/>
<path fill-rule="evenodd" clip-rule="evenodd" d="M26.3924 26.4392L26.3659 26.2734L26.293 26.4392H26.3924Z" fill="#E9500F"/>
<path fill-rule="evenodd" clip-rule="evenodd" d="M25.6031 26.2334L25.5898 26.313L25.7291 26.4058L25.6031 26.2334Z" fill="#E9500F"/>
<path fill-rule="evenodd" clip-rule="evenodd" d="M22.8925 25.7559L22.7533 25.8089L22.7334 25.8885L22.8196 25.9083L22.8925 25.7559Z" fill="#E9500F"/>
<path fill-rule="evenodd" clip-rule="evenodd" d="M25.0137 26.0811L25.0866 26.2601C25.1794 26.0413 25.0999 26.1407 25.0137 26.0811Z" fill="#E9500F"/>
<path fill-rule="evenodd" clip-rule="evenodd" d="M24.6881 26.0477L24.5556 26.0344L24.5357 25.9482L24.4893 26.0278L24.6285 26.2068L24.6881 26.0477Z" fill="#E9500F"/>
<path fill-rule="evenodd" clip-rule="evenodd" d="M23.376 25.7959C23.2965 25.8887 23.376 25.7959 23.2832 25.9351H23.3362L23.376 25.7959Z" fill="#E9500F"/>
<path fill-rule="evenodd" clip-rule="evenodd" d="M29.561 26.0146C29.5146 26.1406 29.5611 26.0147 29.5146 26.1937H29.5809L29.561 26.0146Z" fill="#E9500F"/>
<path fill-rule="evenodd" clip-rule="evenodd" d="M24.8274 25.9814L24.7412 26.1339L24.8738 26.1538L24.8274 25.9814Z" fill="#E9500F"/>
<path fill-rule="evenodd" clip-rule="evenodd" d="M38.8291 11.3438C38.9418 11.4366 38.8291 11.3438 38.9882 11.4432V11.357L38.8291 11.3438Z" fill="#E9500F"/>
<path fill-rule="evenodd" clip-rule="evenodd" d="M36.1973 22.7128L36.2636 22.7592L36.3232 22.6797L36.1973 22.7128Z" fill="#E9500F"/>
<path fill-rule="evenodd" clip-rule="evenodd" d="M35.998 23.0048L36.0643 23.0512L36.124 22.9717L35.998 23.0048Z" fill="#E9500F"/>
<path fill-rule="evenodd" clip-rule="evenodd" d="M35.668 23.2773L35.7608 23.4232L35.8072 23.3635L35.668 23.2773Z" fill="#E9500F"/>
<path fill-rule="evenodd" clip-rule="evenodd" d="M16.5273 15.9902L16.5605 16.1493L16.7063 16.0366L16.5273 15.9902Z" fill="#E9500F"/>
<path fill-rule="evenodd" clip-rule="evenodd" d="M26.7365 25.6233L26.5244 25.5371V25.6233C26.5866 25.7376 26.6553 25.8483 26.73 25.9548L26.7365 25.6233Z" fill="#E9500F"/>
<path fill-rule="evenodd" clip-rule="evenodd" d="M18.2312 20.5449L17.9727 20.5847L17.9992 20.6444L18.2312 20.5449Z" fill="#E9500F"/>
<path fill-rule="evenodd" clip-rule="evenodd" d="M28.0633 25.71L27.9971 25.8757H28.1032L28.0633 25.71Z" fill="#E9500F"/>
<path fill-rule="evenodd" clip-rule="evenodd" d="M26.1209 25.6758L26.1143 25.762L26.4524 25.868L26.1209 25.6758Z" fill="#E9500F"/>
<path fill-rule="evenodd" clip-rule="evenodd" d="M16.5144 13.6433L16.4813 13.4775L16.2559 13.6035L16.5144 13.6433Z" fill="#E9500F"/>
<path fill-rule="evenodd" clip-rule="evenodd" d="M27.7382 25.7888L27.3271 25.623C27.42 25.7888 27.5459 25.802 27.7382 25.7888Z" fill="#E9500F"/>
<path fill-rule="evenodd" clip-rule="evenodd" d="M16.0836 11.7083L16.1764 11.7878H16.4217C16.3155 11.7189 16.1956 11.6737 16.0703 11.6553L16.0836 11.7083Z" fill="#E9500F"/>
<path fill-rule="evenodd" clip-rule="evenodd" d="M15.1416 4.89258V4.99204C15.2212 4.89259 15.2344 4.98539 15.1416 4.89258Z" fill="#E9500F"/>
<path fill-rule="evenodd" clip-rule="evenodd" d="M25.4642 25.4775L25.3184 25.6234L25.4443 25.6433L25.4642 25.4775Z" fill="#E9500F"/>
<path fill-rule="evenodd" clip-rule="evenodd" d="M25.1394 25.5176L25.1328 25.6038L25.2588 25.617L25.1394 25.5176Z" fill="#E9500F"/>
<path fill-rule="evenodd" clip-rule="evenodd" d="M16.4485 12.7287C16.3226 12.6624 16.4485 12.7286 16.2695 12.6689V12.7551L16.4485 12.7287Z" fill="#E9500F"/>
<path fill-rule="evenodd" clip-rule="evenodd" d="M16.3556 11.529L16.349 11.4893L16.1104 11.5688L16.3556 11.529Z" fill="#E9500F"/>
<path fill-rule="evenodd" clip-rule="evenodd" d="M16.083 10.2295L16.1758 10.309C16.2222 10.203 16.1758 10.2494 16.083 10.2295Z" fill="#E9500F"/>
<path fill-rule="evenodd" clip-rule="evenodd" d="M21.6124 24.1512L21.5992 24.0518L21.46 24.1711L21.4865 24.2772L21.6124 24.1512Z" fill="#E9500F"/>
<path fill-rule="evenodd" clip-rule="evenodd" d="M16.0961 9.57379L16.2552 9.5075L16.0762 9.43457L16.0961 9.57379Z" fill="#E9500F"/>
<path fill-rule="evenodd" clip-rule="evenodd" d="M20.9697 23.3102L20.8636 23.2041L20.8105 23.2638L20.8238 23.3964L20.9697 23.3102Z" fill="#E9500F"/>
<path fill-rule="evenodd" clip-rule="evenodd" d="M20.7244 22.8252L20.5918 22.9247L20.6713 23.0174C20.7244 22.8848 20.7244 22.918 20.7244 22.8252Z" fill="#E9500F"/>
<path fill-rule="evenodd" clip-rule="evenodd" d="M20.4257 22.2422L20.2666 22.3151L20.3064 22.3615L20.4257 22.2422Z" fill="#E9500F"/>
<path fill-rule="evenodd" clip-rule="evenodd" d="M20.1735 21.6123L20.1006 21.6521L20.1536 21.725L20.1735 21.6123Z" fill="#E9500F"/>
<path fill-rule="evenodd" clip-rule="evenodd" d="M19.955 20.5449L19.8821 20.5847L19.7959 20.7704C19.9683 20.6245 19.9285 20.6709 19.955 20.5449Z" fill="#E9500F"/>
<path fill-rule="evenodd" clip-rule="evenodd" d="M19.7028 19.5645L19.6299 19.5976L19.6697 19.7103L19.7028 19.5645Z" fill="#E9500F"/>
<path fill-rule="evenodd" clip-rule="evenodd" d="M19.6305 19.1467L19.5046 19.0605H19.4316V19.1467H19.6305Z" fill="#E9500F"/>
<path fill-rule="evenodd" clip-rule="evenodd" d="M19.5112 18.5566L19.4316 18.5832L19.478 18.9677L19.5112 18.5566Z" fill="#E9500F"/>
<path fill-rule="evenodd" clip-rule="evenodd" d="M19.2793 17.8266L19.4186 17.7139C19.286 17.8001 19.3986 17.7338 19.2793 17.8266Z" fill="#E9500F"/>
<path fill-rule="evenodd" clip-rule="evenodd" d="M19.3589 17.4887L19.2992 17.2832L19.2197 17.3097L19.1865 17.502L19.3589 17.4887Z" fill="#E9500F"/>
<path fill-rule="evenodd" clip-rule="evenodd" d="M19.3058 16.6604L19.1997 16.5742H19.1201C19.1201 16.6936 19.1798 16.8063 19.2129 16.919L19.3058 16.6604Z" fill="#E9500F"/>
<path fill-rule="evenodd" clip-rule="evenodd" d="M19.1063 16.5212C19.1672 16.4648 19.2126 16.3937 19.2381 16.3148C19.2636 16.2358 19.2685 16.1517 19.2521 16.0703H19.1726C19.0333 16.2162 19.0466 16.3422 19.1063 16.5212Z" fill="#E9500F"/>
<path fill-rule="evenodd" clip-rule="evenodd" d="M19.146 15.5926L19.0996 15.3672C18.9869 15.4666 19.0002 15.4401 18.9736 15.5859L19.146 15.5926Z" fill="#E9500F"/>
<path fill-rule="evenodd" clip-rule="evenodd" d="M19.0935 14.9361L19.0471 14.7041L18.9675 14.724L18.9277 14.9295L19.0935 14.9361Z" fill="#E9500F"/>
<path fill-rule="evenodd" clip-rule="evenodd" d="M18.7945 11.6349L18.8874 11.1311L18.7879 11.0117L18.6885 11.4692L18.7945 11.6349Z" fill="#E9500F"/>
<path fill-rule="evenodd" clip-rule="evenodd" d="M18.7354 10.9523L18.8812 10.8395V10.7998C18.6889 10.9523 18.7818 10.8329 18.7354 10.9523Z" fill="#E9500F"/>
<path fill-rule="evenodd" clip-rule="evenodd" d="M18.8145 10.6074L18.6289 10.4482L18.6488 10.5808L18.8145 10.6074Z" fill="#E9500F"/>
<path fill-rule="evenodd" clip-rule="evenodd" d="M18.7749 10.3356C18.649 10.2627 18.7749 10.3356 18.6025 10.2627V10.3555L18.7749 10.3356Z" fill="#E9500F"/>
<path fill-rule="evenodd" clip-rule="evenodd" d="M18.9139 10.0907L18.6355 9.89844L18.5957 10.2233L18.9139 10.0907Z" fill="#E9500F"/>
<path fill-rule="evenodd" clip-rule="evenodd" d="M18.7349 9.37402H18.5625L18.6023 9.6525C18.7349 9.51327 18.7349 9.56628 18.7349 9.37402Z" fill="#E9500F"/>
<path fill-rule="evenodd" clip-rule="evenodd" d="M18.7085 9.14262L18.6952 9.0498L18.5361 9.1161L18.7085 9.14262Z" fill="#E9500F"/>
<path fill-rule="evenodd" clip-rule="evenodd" d="M18.7351 8.66406H18.5693V8.84963C18.7351 8.75682 18.6754 8.84306 18.7351 8.66406Z" fill="#E9500F"/>
<path fill-rule="evenodd" clip-rule="evenodd" d="M18.7357 8.61882C18.6097 8.54589 18.7356 8.61883 18.5566 8.5459V8.63872L18.7357 8.61882Z" fill="#E9500F"/>
<path fill-rule="evenodd" clip-rule="evenodd" d="M18.6031 8.35259C18.8815 8.03436 18.7092 7.6101 18.6031 7.22559C18.3578 7.49077 18.5699 8.04762 18.6031 8.35259Z" fill="#E9500F"/>
<path fill-rule="evenodd" clip-rule="evenodd" d="M18.6689 5.64844C18.397 5.96003 18.5163 6.76221 18.5296 7.1401C18.9207 6.76221 18.7948 6.07273 18.6689 5.64844Z" fill="#E9500F"/>
<path fill-rule="evenodd" clip-rule="evenodd" d="M18.7351 5.43002L18.6953 5.125C18.5759 5.24433 18.5959 5.21121 18.5693 5.40347L18.7351 5.43002Z" fill="#E9500F"/>
<path fill-rule="evenodd" clip-rule="evenodd" d="M18.7615 5.06524L18.8013 4.79342L18.6289 4.71387L18.5029 5.04535L18.7615 5.06524Z" fill="#E9500F"/>
<path fill-rule="evenodd" clip-rule="evenodd" d="M18.7358 4.15723H18.6562V4.5948C18.7358 4.52188 18.7358 4.38263 18.7358 4.15723Z" fill="#E9500F"/>
<path fill-rule="evenodd" clip-rule="evenodd" d="M18.4233 3.34838C18.4594 3.44591 18.5014 3.54107 18.5492 3.63341C18.6884 3.55386 18.6884 3.23564 18.6487 2.97045C18.6089 2.70527 18.5227 2.42684 18.4829 2.24121H18.3105C18.4122 2.6009 18.4503 2.97559 18.4233 3.34838Z" fill="#E9500F"/>
</g>
<defs>
<clipPath id="clip0_5108_47180">
<rect width="58" height="70" fill="white"/>
</clipPath>
</defs>
</svg>
