<svg width="39" height="22" viewBox="0 0 39 22" fill="none" xmlns="http://www.w3.org/2000/svg">
    <path
        d="M7.81773 7.08462L4.13739 3.44629C2.10706 5.44922 0.966797 8.16321 0.966797 10.9927C0.966797 13.8223 2.10706 16.5363 4.13739 18.5392L7.83339 14.9009C6.78029 13.8654 6.18725 12.4611 6.18431 10.9959C6.18138 9.53072 6.76878 8.12415 7.81773 7.08462Z"
        fill="#E8710A" />
    <path
        d="M4.13672 3.44593L7.81706 7.08426C8.33923 6.56964 8.95932 6.16138 9.64188 5.88284C10.3244 5.6043 11.0561 5.46092 11.795 5.46092C12.5339 5.46092 13.2655 5.6043 13.9481 5.88284C14.6306 6.16138 15.2507 6.56964 15.7729 7.08426L18.4509 2.56718L18.2943 2.44384C16.2054 0.909728 13.6255 0.166775 11.026 0.350767C8.42656 0.534759 5.98115 1.63341 4.13672 3.44593Z"
        fill="#F9AB00" />
    <path
        d="M18.4666 19.4177L15.7729 14.916C15.2507 15.4306 14.6306 15.8389 13.948 16.1174C13.2655 16.396 12.5338 16.5394 11.795 16.5394C11.0561 16.5394 10.3244 16.396 9.64187 16.1174C8.95932 15.8389 8.33922 15.4306 7.81706 14.916L4.13672 18.5544C5.97748 20.3507 8.41055 21.4393 10.9958 21.6231C13.5811 21.8069 16.1478 21.0738 18.2316 19.5564L18.4039 19.4177"
        fill="#F9AB00" />
    <path
        d="M19.5007 3.4461C17.4703 5.44903 16.3301 8.16301 16.3301 10.9926C16.3301 13.8221 17.4703 16.5361 19.5007 18.539L23.1967 14.9007C22.1417 13.8621 21.549 12.4536 21.549 10.9848C21.549 9.51612 22.1417 8.10756 23.1967 7.06901C24.2517 6.03047 25.6826 5.44702 27.1746 5.44702C28.6666 5.44702 30.0975 6.03047 31.1525 7.06901L34.8641 3.4461C33.856 2.45182 32.6587 1.66301 31.3405 1.12481C30.0224 0.586601 28.6094 0.30957 27.1824 0.30957C25.7554 0.30957 24.3424 0.586601 23.0242 1.12481C21.7061 1.66301 20.5087 2.45182 19.5007 3.4461Z"
        fill="#F9AB00" />
    <path
        d="M34.8635 3.44629L31.1831 7.08463C32.2381 8.12317 32.8308 9.53174 32.8308 11.0005C32.8308 12.4692 32.2381 13.8778 31.1831 14.9163C30.1281 15.9548 28.6972 16.5383 27.2052 16.5383C25.7132 16.5383 24.2823 15.9548 23.2273 14.9163L19.5 18.5546C21.5352 20.5602 24.2965 21.6877 27.1762 21.6891C28.6021 21.6898 30.0142 21.4141 31.3318 20.8776C32.6495 20.3411 33.8469 19.5544 34.8556 18.5623C35.8644 17.5703 36.6648 16.3924 37.2112 15.0959C37.7575 13.7993 38.0391 12.4096 38.0398 11.0059C38.0405 9.60226 37.7604 8.21221 37.2154 6.91512C36.6704 5.61804 35.8712 4.43933 34.8635 3.44629Z"
        fill="#E8710A" />
</svg>
